<?xml version="1.0" standalone="no"?>
<!DOCTYPE svg PUBLIC "-//W3C//DTD SVG 20010904//EN"
 "http://www.w3.org/TR/2001/REC-SVG-20010904/DTD/svg10.dtd">
<svg version="1.0" xmlns="http://www.w3.org/2000/svg"
 width="400.000000pt" height="400.000000pt" viewBox="0 0 400.000000 400.000000"
 preserveAspectRatio="xMidYMid meet">

<g transform="translate(0.000000,400.000000) scale(0.100000,-0.100000)"
fill="#563d7c" stroke="none">
<path d="M765 3600 c-145 -30 -261 -135 -305 -277 -17 -54 -20 -93 -20 -237 0
-543 -122 -882 -346 -965 -30 -12 -64 -21 -74 -21 -19 0 -20 -7 -20 -104 l0
-104 50 -12 c69 -17 159 -77 203 -138 78 -105 139 -281 167 -477 7 -44 15
-192 19 -330 l7 -250 31 -67 c42 -90 109 -160 192 -201 l66 -32 1259 -3 c1124
-2 1266 -1 1315 14 116 32 217 126 262 241 20 52 23 83 29 313 8 289 24 411
76 570 37 115 85 204 142 263 35 36 141 97 169 97 10 0 13 25 13 110 0 97 -2
111 -17 116 -55 16 -128 63 -173 110 -136 143 -210 437 -210 829 0 101 -5 208
-11 237 -26 125 -132 254 -246 300 l-58 23 -1240 2 c-682 0 -1258 -3 -1280 -7z
m1519 -764 c145 -43 248 -122 302 -231 27 -56 29 -68 29 -175 0 -107 -2 -119
-28 -169 -42 -78 -112 -149 -182 -182 -33 -16 -67 -29 -75 -30 -8 0 11 -7 44
-15 87 -21 170 -70 231 -135 64 -69 94 -143 102 -246 19 -241 -118 -424 -372
-499 -52 -15 -117 -18 -497 -21 l-438 -4 0 866 0 866 413 -4 c355 -3 420 -6
471 -21z"/>
<path d="M1680 2380 l0 -250 204 0 c240 0 307 14 378 78 82 74 102 189 52 291
-54 107 -130 131 -426 131 l-208 0 0 -250z"/>
<path d="M1680 1636 l0 -276 239 0 c210 0 247 2 302 20 134 41 189 109 197
241 4 70 2 84 -23 134 -30 62 -70 97 -147 128 -48 19 -76 21 -310 25 l-258 4
0 -276z"/>
</g>
</svg>
