<?xml version="1.0" encoding="utf-8"?>
<svg viewBox="0 0 500 500" xmlns="http://www.w3.org/2000/svg">
  <g transform="matrix(0.062208, 0, 0, -0.062692, 14.168454, 485.922004)" fill="#fff" stroke="none" style="">
    <path d="M 1050.778 6482.827 C 984.31 6455.438 928.183 6386.967 917.843 6319.864 C 913.412 6288.367 910.457 6054.193 913.412 5800.847 C 917.843 5359.888 919.32 5337.978 948.861 5302.372 C 1018.283 5214.728 1040.439 5207.881 1281.2 5203.773 L 1501.282 5199.665 L 1501.282 5032.593 C 1501.282 4745.011 1539.686 4612.176 1668.19 4454.691 C 1802.602 4288.989 1991.667 4194.497 2229.473 4173.956 C 2384.565 4160.261 2467.28 4121.918 2517.501 4039.751 C 2544.088 3994.56 2549.996 3964.432 2549.996 3867.202 C 2549.996 3756.278 2548.519 3749.431 2517.501 3743.953 C 2498.299 3741.214 2397.859 3724.781 2292.987 3709.717 C 2086.199 3678.22 1945.878 3630.289 1908.951 3578.251 C 1885.318 3544.015 1880.887 3307.102 1883.841 1876.041 L 1885.318 1268.011 L 1931.107 1228.297 C 1979.85 1187.214 2100.969 1146.131 2256.06 1120.112 C 2338.776 1106.417 2352.07 1106.417 2386.041 1131.067 C 2412.629 1148.87 2425.922 1172.15 2428.877 1206.386 C 2434.785 1270.75 2397.859 1304.985 2307.757 1317.31 C 2269.354 1322.788 2205.841 1336.483 2164.483 1347.438 L 2092.107 1367.979 L 2092.107 1825.372 C 2092.107 2201.967 2095.061 2284.133 2112.786 2284.133 C 2123.125 2284.133 2217.657 2271.808 2322.528 2258.113 C 3100.94 2148.559 4628.221 2145.82 5393.338 2251.267 C 5474.577 2262.222 5569.108 2274.547 5604.558 2280.025 L 5666.595 2288.241 L 5666.595 1828.11 L 5666.595 1367.979 L 5591.264 1347.438 C 5313.577 1270.75 4603.111 1225.558 3736.075 1231.036 C 3189.563 1235.144 3155.591 1233.774 3127.527 1209.125 C 3092.077 1180.367 3086.169 1110.526 3117.187 1072.181 C 3146.728 1035.207 3281.141 1026.99 3849.809 1025.62 C 4837.963 1022.882 5603.081 1094.092 5796.576 1205.016 C 5891.108 1259.794 5888.153 1215.973 5888.153 2414.23 C 5888.153 3590.576 5889.631 3567.295 5809.869 3615.226 C 5747.833 3653.57 5607.512 3691.914 5437.65 3715.195 C 5349.027 3727.52 5260.403 3741.214 5242.678 3743.953 C 5210.182 3749.431 5208.706 3756.278 5208.706 3880.896 C 5208.706 4108.223 5279.605 4180.803 5520.366 4201.345 C 5715.337 4219.147 5814.301 4253.383 5959.053 4356.091 C 6062.447 4428.671 6162.887 4560.138 6210.153 4684.756 C 6242.648 4769.662 6248.557 4813.483 6254.465 4991.51 L 6260.373 5198.295 L 6434.666 5203.773 C 6623.73 5207.881 6654.749 5218.836 6721.216 5302.372 C 6750.758 5337.978 6752.234 5359.888 6756.666 5832.344 C 6761.097 6295.214 6759.62 6328.081 6731.556 6385.597 C 6710.877 6429.419 6687.244 6452.699 6642.932 6474.611 C 6583.85 6501.999 6564.648 6503.369 6038.814 6499.26 C 5505.595 6495.152 5496.732 6495.152 5450.944 6465.024 C 5357.889 6403.4 5356.411 6392.444 5356.411 5848.777 C 5356.411 5287.309 5356.411 5288.678 5474.577 5232.531 C 5535.137 5203.773 5560.246 5201.033 5789.19 5201.033 L 6038.814 5201.033 L 6034.383 4998.357 C 6028.474 4801.158 6026.998 4794.311 5979.732 4703.928 C 5880.769 4519.054 5731.585 4427.302 5492.301 4405.391 C 5320.963 4388.958 5221.999 4351.983 5131.898 4267.078 C 5027.027 4169.848 4997.486 4097.267 4990.101 3916.502 L 4984.192 3761.756 L 4922.156 3769.972 C 4836.487 3780.928 4269.295 3804.208 4097.956 3804.208 L 3953.204 3804.208 L 3953.204 4501.252 L 3953.204 5199.665 L 4173.286 5203.773 C 4414.047 5207.881 4436.203 5214.728 4505.624 5302.372 C 4535.166 5339.347 4536.643 5355.78 4536.643 5841.93 C 4536.643 6319.864 4535.166 6347.252 4507.101 6391.075 C 4490.854 6417.094 4458.359 6449.961 4436.203 6466.394 C 4394.845 6493.782 4377.12 6495.152 3852.764 6499.26 C 3247.169 6503.369 3242.738 6501.999 3174.793 6407.508 C 3140.82 6360.947 3140.82 6358.209 3140.82 5852.886 C 3140.82 5373.583 3142.297 5342.086 3170.361 5301.003 C 3223.535 5218.836 3256.031 5209.25 3502.7 5201.033 L 3724.259 5194.187 L 3728.69 4505.36 C 3731.645 3961.694 3728.69 3816.533 3713.92 3812.425 C 3703.58 3808.317 3502.7 3798.731 3266.37 3790.514 C 3031.517 3782.297 2824.729 3774.081 2808.481 3772.711 C 2781.894 3769.972 2778.94 3780.928 2770.078 3906.916 C 2759.738 4071.249 2725.766 4149.306 2620.894 4245.167 C 2535.225 4321.856 2437.739 4358.83 2279.693 4371.155 C 2131.988 4383.48 2033.025 4417.716 1926.676 4494.404 C 1860.208 4543.704 1832.144 4577.94 1786.355 4662.845 L 1730.227 4768.292 L 1724.318 4983.293 L 1719.887 5199.665 L 1945.878 5203.773 C 2158.575 5207.881 2176.299 5210.62 2223.565 5240.748 C 2312.189 5299.634 2313.666 5313.328 2313.666 5851.517 C 2313.666 6389.705 2312.189 6403.4 2223.565 6462.286 L 2173.345 6495.152 L 1634.218 6497.891 C 1208.824 6500.63 1086.228 6497.891 1050.778 6482.827 Z M 2092.107 5851.517 L 2092.107 5406.449 L 1612.062 5406.449 L 1132.017 5406.449 L 1132.017 5851.517 L 1132.017 6296.583 L 1612.062 6296.583 L 2092.107 6296.583 L 2092.107 5851.517 Z M 4315.084 5851.517 L 4315.084 5413.297 L 3839.47 5409.189 L 3362.38 5406.449 L 3362.38 5851.517 L 3362.38 6296.583 L 3839.47 6293.845 L 4315.084 6289.736 L 4315.084 5851.517 Z M 6538.061 5851.517 L 6538.061 5406.449 L 6058.016 5406.449 L 5577.971 5406.449 L 5577.971 5851.517 L 5577.971 6296.583 L 6058.016 6296.583 L 6538.061 6296.583 L 6538.061 5851.517 Z M 4861.596 3571.404 C 5180.642 3546.754 5499.687 3508.409 5486.393 3494.716 C 5473.1 3483.76 4996.009 3434.46 4765.587 3422.135 C 3956.158 3375.574 2960.619 3398.855 2381.611 3476.913 C 2295.941 3489.238 2270.831 3496.085 2294.464 3504.301 C 2360.932 3527.582 2888.243 3574.143 3258.985 3590.576 C 3483.498 3600.162 4675.487 3586.468 4861.596 3571.404 Z M 2343.207 3278.344 C 3084.691 3168.789 4638.56 3167.42 5412.54 3276.975 C 5490.824 3287.93 5579.448 3302.994 5607.512 3311.211 C 5635.576 3318.058 5660.687 3324.905 5662.163 3324.905 C 5665.118 3324.905 5666.595 3140.031 5666.595 2915.443 C 5666.595 2536.11 5665.118 2504.612 5641.485 2497.765 C 5393.338 2429.293 4647.422 2379.993 3871.965 2379.993 C 3097.985 2379.993 2453.986 2422.446 2155.62 2492.287 L 2092.107 2505.982 L 2092.107 2907.227 C 2092.107 3126.337 2096.538 3309.842 2100.969 3313.95 C 2105.4 3318.058 2130.51 3316.688 2155.62 3309.842 C 2182.207 3304.364 2266.399 3289.3 2343.207 3278.344 Z" style=""/>
    <path d="M 1504.236 5855.625 L 1508.667 5755.656 L 1616.493 5751.548 L 1722.841 5747.44 L 1722.841 5851.517 L 1722.841 5954.224 L 1612.062 5954.224 L 1499.805 5954.224 L 1504.236 5855.625 Z" style=""/>
    <path d="M 3731.645 5851.517 L 3731.645 5748.808 L 3842.424 5748.808 L 3953.204 5748.808 L 3953.204 5851.517 L 3953.204 5954.224 L 3842.424 5954.224 L 3731.645 5954.224 L 3731.645 5851.517 Z" style=""/>
    <path d="M 5947.237 5851.517 L 5947.237 5748.808 L 6058.016 5748.808 L 6168.795 5748.808 L 6168.795 5851.517 L 6168.795 5954.224 L 6058.016 5954.224 L 5947.237 5954.224 L 5947.237 5851.517 Z" style=""/>
    <path d="M 2451.033 2938.724 C 2399.335 2915.443 2380.133 2856.557 2408.198 2807.258 C 2445.125 2741.525 2523.409 2729.2 2576.583 2781.238 C 2619.417 2823.691 2617.941 2879.838 2572.151 2920.921 C 2533.748 2957.896 2502.73 2962.004 2451.033 2938.724 Z" style=""/>
    <path d="M 2338.776 1859.608 C 2295.941 1828.11 2285.602 1770.594 2313.666 1722.664 C 2350.592 1658.3 2780.417 1607.631 3471.682 1585.72 C 4322.469 1558.332 5338.687 1624.064 5433.219 1711.708 C 5474.577 1750.053 5464.237 1828.11 5414.017 1862.346 C 5377.09 1888.366 5371.182 1888.366 5251.54 1866.455 C 4586.863 1748.683 3062.536 1755.531 2424.446 1880.149 C 2390.473 1886.996 2369.794 1881.518 2338.776 1859.608 Z" style=""/>
  </g>
</svg>