<svg version="1.0" xmlns="http://www.w3.org/2000/svg"
 viewBox="0 0 800.000000 800.000000"
 preserveAspectRatio="xMidYMid meet">
<g transform="translate(0.000000,800.000000) scale(0.100000,-0.100000)"
fill="#fff" stroke="none">
<path d="M2115 6686 c-45 -20 -83 -70 -90 -119 -3 -23 -5 -194 -3 -379 3 -322
4 -338 24 -364 47 -64 62 -69 225 -72 l149 -3 0 -122 c0 -210 26 -307 113
-422 91 -121 219 -190 380 -205 105 -10 161 -38 195 -98 18 -33 22 -55 22
-126 0 -81 -1 -86 -22 -90 -13 -2 -81 -14 -152 -25 -140 -23 -235 -58 -260
-96 -16 -25 -19 -198 -17 -1243 l1 -444 31 -29 c33 -30 115 -60 220 -79 56
-10 65 -10 88 8 18 13 27 30 29 55 4 47 -21 72 -82 81 -26 4 -69 14 -97 22
l-49 15 0 334 c0 275 2 335 14 335 7 0 71 -9 142 -19 527 -80 1561 -82 2079
-5 55 8 119 17 143 21 l42 6 0 -336 0 -336 -51 -15 c-188 -56 -669 -89 -1256
-85 -370 3 -393 2 -412 -16 -24 -21 -28 -72 -7 -100 20 -27 111 -33 496 -34
669 -2 1187 50 1318 131 64 40 62 8 62 883 0 859 1 842 -53 877 -42 28 -137
56 -252 73 -60 9 -120 19 -132 21 -22 4 -23 9 -23 100 0 166 48 219 211 234
132 13 199 38 297 113 70 53 138 149 170 240 22 62 26 94 30 224 l4 151 118 4
c128 3 149 11 194 72 20 26 21 42 24 387 3 338 2 362 -17 404 -14 32 -30 49
-60 65 -40 20 -53 21 -409 18 -361 -3 -367 -3 -398 -25 -63 -45 -64 -53 -64
-450 0 -410 0 -409 80 -450 41 -21 58 -23 213 -23 l169 0 -3 -148 c-4 -144 -5
-149 -37 -215 -67 -135 -168 -202 -330 -218 -116 -12 -183 -39 -244 -101 -71
-71 -91 -124 -96 -256 l-4 -113 -42 6 c-58 8 -442 25 -558 25 l-98 0 0 509 0
510 149 3 c163 3 178 8 225 72 20 27 21 39 21 394 0 349 -1 369 -20 401 -11
19 -33 43 -48 55 -28 20 -40 21 -395 24 -410 3 -413 2 -459 -67 -23 -34 -23
-36 -23 -405 0 -350 1 -373 20 -403 36 -60 58 -67 225 -73 l150 -5 3 -503 c2
-397 0 -503 -10 -506 -7 -3 -143 -10 -303 -16 -159 -6 -299 -12 -310 -13 -18
-2 -20 6 -26 98 -7 120 -30 177 -101 247 -58 56 -124 83 -231 92 -100 9 -167
34 -239 90 -45 36 -64 61 -95 123 l-38 77 -4 157 -3 158 153 3 c144 3 156 5
188 27 60 43 61 53 61 446 0 393 -1 403 -61 446 l-34 24 -365 2 c-288 2 -371
0 -395 -11z m705 -461 l0 -325 -325 0 -325 0 0 325 0 325 325 0 325 0 0 -325z
m1505 0 l0 -320 -322 -3 -323 -2 0 325 0 325 323 -2 322 -3 0 -320z m1505 0
l0 -325 -325 0 -325 0 0 325 0 325 325 0 325 0 0 -325z m-1135 -1665 c216 -18
432 -46 423 -56 -9 -8 -332 -44 -488 -53 -548 -34 -1222 -17 -1614 40 -58 9
-75 14 -59 20 45 17 402 51 653 63 152 7 959 -3 1085 -14z m-1705 -214 c502
-80 1554 -81 2078 -1 53 8 113 19 132 25 19 5 36 10 37 10 2 0 3 -135 3 -299
0 -277 -1 -300 -17 -305 -168 -50 -673 -86 -1198 -86 -524 0 -960 31 -1162 82
l-43 10 0 293 c0 160 3 294 6 297 3 3 20 2 37 -3 18 -4 75 -15 127 -23z"/>
<path d="M2422 6228 l3 -73 73 -3 72 -3 0 76 0 75 -75 0 -76 0 3 -72z"/>
<path d="M3930 6225 l0 -75 75 0 75 0 0 75 0 75 -75 0 -75 0 0 -75z"/>
<path d="M5430 6225 l0 -75 75 0 75 0 0 75 0 75 -75 0 -75 0 0 -75z"/>
<path d="M3063 4098 c-35 -17 -48 -60 -29 -96 25 -48 78 -57 114 -19 29 31 28
72 -3 102 -26 27 -47 30 -82 13z"/>
<path d="M2987 3310 c-29 -23 -36 -65 -17 -100 25 -47 316 -84 784 -100 576
-20 1264 28 1328 92 28 28 21 85 -13 110 -25 19 -29 19 -110 3 -450 -86 -1482
-81 -1914 10 -23 5 -37 1 -58 -15z"/>
<path d="M1664 1617 c-2 -7 -3 -109 -2 -227 l3 -215 100 0 c112 1 169 21 202
73 10 15 20 29 24 32 14 12 29 77 29 125 0 98 -68 188 -161 215 -51 15 -189
13 -195 -3z m236 -67 c82 -59 93 -202 21 -284 -28 -32 -69 -47 -139 -49 l-67
-2 -3 175 c-1 96 -1 179 2 185 2 7 29 9 78 5 56 -5 83 -13 108 -30z"/>
<path d="M4575 1618 c-2 -7 -6 -51 -7 -96 l-3 -84 -30 24 c-23 18 -42 23 -85
23 -70 0 -112 -28 -135 -90 -43 -111 31 -225 145 -225 59 0 101 23 133 72 l27
43 -2 170 c-3 153 -5 170 -21 173 -9 2 -19 -2 -22 -10z m-48 -194 c64 -41 54
-162 -17 -199 -40 -21 -71 -19 -111 8 -45 30 -59 81 -38 140 24 71 101 94 166
51z"/>
<path d="M5107 1623 c-4 -3 -7 -94 -7 -200 l0 -195 29 -29 c30 -29 55 -36 80
-20 18 12 7 41 -17 41 -38 0 -42 17 -42 205 0 127 -4 185 -12 193 -14 14 -22
15 -31 5z"/>
<path d="M5287 1624 c-4 -4 -7 -95 -7 -201 l0 -195 30 -29 c22 -22 37 -29 57
-27 34 4 40 41 8 46 -11 2 -24 8 -30 13 -6 6 -12 94 -15 202 -4 163 -7 192
-20 195 -9 1 -19 0 -23 -4z"/>
<path d="M2547 1584 c-4 -4 -7 -29 -7 -55 0 -42 -3 -48 -25 -53 -14 -4 -25
-13 -25 -21 0 -8 11 -17 25 -21 24 -6 25 -9 25 -94 0 -74 3 -92 23 -121 25
-38 88 -62 109 -41 17 17 1 42 -26 42 -43 0 -57 36 -54 131 2 67 6 83 17 81
26 -6 61 8 61 23 0 15 -35 29 -61 23 -10 -2 -15 11 -19 52 -4 39 -10 56 -20
58 -9 1 -19 0 -23 -4z"/>
<path d="M2194 1472 c-55 -26 -84 -75 -84 -141 0 -94 48 -152 132 -159 45 -3
59 0 91 22 l38 26 9 -25 c11 -28 20 -31 38 -13 20 20 15 166 -7 214 -37 81
-134 114 -217 76z m148 -59 c37 -36 45 -83 22 -134 -29 -64 -95 -87 -154 -52
-35 20 -50 52 -50 106 0 102 109 150 182 80z"/>
<path d="M2856 1480 c-37 -12 -64 -37 -87 -82 -51 -99 19 -228 124 -228 43 0
107 24 107 39 0 21 19 11 22 -11 2 -15 10 -23 23 -23 18 0 20 8 23 95 3 111
-11 153 -63 189 -38 26 -104 35 -149 21z m99 -44 c50 -21 69 -56 63 -116 -8
-85 -76 -130 -149 -99 -92 37 -90 181 3 218 32 13 44 13 83 -3z"/>
<path d="M3354 1475 c-3 -6 -3 -76 -2 -155 3 -137 4 -145 23 -145 19 0 20 8
23 105 2 115 11 143 51 160 30 12 73 1 88 -22 4 -7 10 -65 13 -128 5 -107 6
-115 25 -115 18 0 20 8 25 110 3 61 9 118 14 127 18 38 99 42 123 6 4 -7 10
-65 13 -128 5 -107 6 -115 25 -115 19 0 20 7 20 128 l0 129 -33 29 c-37 33
-90 39 -132 14 -14 -8 -30 -17 -37 -21 -7 -3 -24 4 -39 15 -31 25 -71 27 -120
6 -28 -12 -36 -12 -40 -1 -6 16 -34 17 -40 1z"/>
<path d="M3980 1471 c-54 -28 -80 -74 -80 -140 0 -98 60 -161 153 -161 80 0
136 42 156 118 37 135 -106 249 -229 183z m116 -31 c20 0 61 -50 68 -81 10
-51 -10 -107 -47 -129 -83 -51 -166 -2 -167 97 0 78 50 129 115 117 11 -2 25
-4 31 -4z"/>
<path d="M4818 1482 c-63 -26 -105 -104 -94 -176 6 -37 56 -127 56 -101 0 5 6
1 13 -9 20 -27 106 -33 162 -11 43 16 57 36 34 50 -5 4 -26 -1 -46 -10 -52
-25 -110 -15 -145 25 -49 54 -42 59 95 62 l122 3 3 35 c7 73 -60 141 -139 139
-24 0 -51 -3 -61 -7z m106 -43 c21 -10 56 -62 56 -83 0 -3 -47 -6 -105 -6
-115 0 -123 5 -84 54 35 44 84 57 133 35z"/>
<path d="M5484 1477 c-2 -7 -3 -78 -2 -157 3 -137 4 -145 23 -145 19 0 20 8
23 144 2 97 -1 148 -9 157 -14 18 -28 18 -35 1z"/>
<path d="M5662 1478 c-19 -19 -17 -282 3 -298 27 -22 35 0 35 91 0 113 15 152
64 169 45 14 100 -1 119 -33 6 -12 14 -69 17 -127 5 -97 7 -105 25 -105 19 0
20 8 23 102 3 115 -10 160 -52 188 -40 26 -107 30 -151 9 -35 -16 -38 -16 -47
-1 -11 20 -20 21 -36 5z"/>
<path d="M6130 1472 c-19 -10 -46 -34 -58 -53 -20 -29 -23 -44 -20 -99 4 -74
24 -110 75 -135 55 -26 106 -20 148 19 43 41 55 29 36 -36 -27 -87 -108 -115
-186 -62 -61 41 -89 16 -35 -30 63 -52 163 -55 217 -4 49 45 58 75 58 193 0
98 -2 114 -24 148 -31 51 -59 67 -123 73 -40 4 -61 1 -88 -14z m152 -59 c81
-77 12 -219 -97 -199 -39 8 -84 50 -87 80 -5 77 11 116 55 139 42 21 94 13
129 -20z"/>
</g>
</svg>
