<?xml version="1.0" encoding="utf-8"?>
<svg viewBox="108.403 65.932 294.687 315.998"  xmlns="http://www.w3.org/2000/svg" xmlns:bx="https://boxy-svg.com">
  <defs>
    <style bx:fonts="Averia Serif Libre">@import url(https://fonts.googleapis.com/css2?family=Averia+Serif+Libre%3Aital%2Cwght%400%2C300%3B0%2C400%3B0%2C700%3B1%2C300%3B1%2C400%3B1%2C700&amp;display=swap);</style>
  </defs>
  <path d="M 1905.777 6686 C 1860.777 6666 1822.777 6616 1815.777 6567 C 1812.777 6544 1810.777 6373 1812.777 6188 C 1815.777 5866 1816.777 5850 1836.777 5824 C 1883.777 5760 1898.777 5755 2061.777 5752 L 2210.777 5749 L 2210.777 5627 C 2210.777 5417 2236.777 5320 2323.777 5205 C 2414.777 5084 2542.777 5015 2703.777 5000 C 2808.777 4990 2864.777 4962 2898.777 4902 C 2916.777 4869 2920.777 4847 2920.777 4776 C 2920.777 4695 2919.777 4690 2898.777 4686 C 2885.777 4684 2817.777 4672 2746.777 4661 C 2606.777 4638 2511.777 4603 2486.777 4565 C 2470.777 4540 2467.777 4367 2469.777 3322 L 2470.777 2878 L 2501.777 2849 C 2534.777 2819 2616.777 2789 2721.777 2770 C 2777.777 2760 2786.777 2760 2809.777 2778 C 2827.777 2791 2836.777 2808 2838.777 2833 C 2842.777 2880 2817.777 2905 2756.777 2914 C 2730.777 2918 2687.777 2928 2659.777 2936 L 2610.777 2951 L 2610.777 3285 C 2610.777 3560 2612.777 3620 2624.777 3620 C 2631.777 3620 2695.777 3611 2766.777 3601 C 3293.777 3521 4327.777 3519 4845.777 3596 C 4900.777 3604 4964.777 3613 4988.777 3617 L 5030.777 3623 L 5030.777 3287 L 5030.777 2951 L 4979.777 2936 C 4791.777 2880 4310.777 2847 3723.777 2851 C 3353.777 2854 3330.777 2853 3311.777 2835 C 3287.777 2814 3283.777 2763 3304.777 2735 C 3324.777 2708 3415.777 2702 3800.777 2701 C 4469.777 2699 4987.777 2751 5118.777 2832 C 5182.777 2872 5180.777 2840 5180.777 3715 C 5180.777 4574 5181.777 4557 5127.777 4592 C 5085.777 4620 4990.777 4648 4875.777 4665 C 4815.777 4674 4755.777 4684 4743.777 4686 C 4721.777 4690 4720.777 4695 4720.777 4786 C 4720.777 4952 4768.777 5005 4931.777 5020 C 5063.777 5033 5130.777 5058 5228.777 5133 C 5298.777 5186 5366.777 5282 5398.777 5373 C 5420.777 5435 5424.777 5467 5428.777 5597 L 5432.777 5748 L 5550.777 5752 C 5678.777 5755 5699.777 5763 5744.777 5824 C 5764.777 5850 5765.777 5866 5768.777 6211 C 5771.777 6549 5770.777 6573 5751.777 6615 C 5737.777 6647 5721.777 6664 5691.777 6680 C 5651.777 6700 5638.777 6701 5282.777 6698 C 4921.777 6695 4915.777 6695 4884.777 6673 C 4821.777 6628 4820.777 6620 4820.777 6223 C 4820.777 5813 4820.777 5814 4900.777 5773 C 4941.777 5752 4958.777 5750 5113.777 5750 L 5282.777 5750 L 5279.777 5602 C 5275.777 5458 5274.777 5453 5242.777 5387 C 5175.777 5252 5074.777 5185 4912.777 5169 C 4796.777 5157 4729.777 5130 4668.777 5068 C 4597.777 4997 4577.777 4944 4572.777 4812 L 4568.777 4699 L 4526.777 4705 C 4468.777 4713 4084.777 4730 3968.777 4730 L 3870.777 4730 L 3870.777 5239 L 3870.777 5749 L 4019.777 5752 C 4182.777 5755 4197.777 5760 4244.777 5824 C 4264.777 5851 4265.777 5863 4265.777 6218 C 4265.777 6567 4264.777 6587 4245.777 6619 C 4234.777 6638 4212.777 6662 4197.777 6674 C 4169.777 6694 4157.777 6695 3802.777 6698 C 3392.777 6701 3389.777 6700 3343.777 6631 C 3320.777 6597 3320.777 6595 3320.777 6226 C 3320.777 5876 3321.777 5853 3340.777 5823 C 3376.777 5763 3398.777 5756 3565.777 5750 L 3715.777 5745 L 3718.777 5242 C 3720.777 4845 3718.777 4739 3708.777 4736 C 3701.777 4733 3565.777 4726 3405.777 4720 C 3246.777 4714 3106.777 4708 3095.777 4707 C 3077.777 4705 3075.777 4713 3069.777 4805 C 3062.777 4925 3039.777 4982 2968.777 5052 C 2910.777 5108 2844.777 5135 2737.777 5144 C 2637.777 5153 2570.777 5178 2498.777 5234 C 2453.777 5270 2434.777 5295 2403.777 5357 L 2365.777 5434 L 2361.777 5591 L 2358.777 5749 L 2511.777 5752 C 2655.777 5755 2667.777 5757 2699.777 5779 C 2759.777 5822 2760.777 5832 2760.777 6225 C 2760.777 6618 2759.777 6628 2699.777 6671 L 2665.777 6695 L 2300.777 6697 C 2012.777 6699 1929.777 6697 1905.777 6686 Z M 2610.777 6225 L 2610.777 5900 L 2285.777 5900 L 1960.777 5900 L 1960.777 6225 L 1960.777 6550 L 2285.777 6550 L 2610.777 6550 L 2610.777 6225 Z M 4115.777 6225 L 4115.777 5905 L 3793.777 5902 L 3470.777 5900 L 3470.777 6225 L 3470.777 6550 L 3793.777 6548 L 4115.777 6545 L 4115.777 6225 Z M 5620.777 6225 L 5620.777 5900 L 5295.777 5900 L 4970.777 5900 L 4970.777 6225 L 4970.777 6550 L 5295.777 6550 L 5620.777 6550 L 5620.777 6225 Z M 4485.777 4560 C 4701.777 4542 4917.777 4514 4908.777 4504 C 4899.777 4496 4576.777 4460 4420.777 4451 C 3872.777 4417 3198.777 4434 2806.777 4491 C 2748.777 4500 2731.777 4505 2747.777 4511 C 2792.777 4528 3149.777 4562 3400.777 4574 C 3552.777 4581 4359.777 4571 4485.777 4560 Z M 2780.777 4346 C 3282.777 4266 4334.777 4265 4858.777 4345 C 4911.777 4353 4971.777 4364 4990.777 4370 C 5009.777 4375 5026.777 4380 5027.777 4380 C 5029.777 4380 5030.777 4245 5030.777 4081 C 5030.777 3804 5029.777 3781 5013.777 3776 C 4845.777 3726 4340.777 3690 3815.777 3690 C 3291.777 3690 2855.777 3721 2653.777 3772 L 2610.777 3782 L 2610.777 4075 C 2610.777 4235 2613.777 4369 2616.777 4372 C 2619.777 4375 2636.777 4374 2653.777 4369 C 2671.777 4365 2728.777 4354 2780.777 4346 Z" transform="matrix(0.062208, 0, 0, -0.062692, 14.168454, 485.922004)"/>
  <path d="M2422 6228 l3 -73 73 -3 72 -3 0 76 0 75 -75 0 -76 0 3 -72z" transform="matrix(0.062208, 0, 0, -0.062692, 14.168454, 485.922004)"/>
  <path d="M3930 6225 l0 -75 75 0 75 0 0 75 0 75 -75 0 -75 0 0 -75z" transform="matrix(0.062208, 0, 0, -0.062692, 14.168454, 485.922004)"/>
  <path d="M5430 6225 l0 -75 75 0 75 0 0 75 0 75 -75 0 -75 0 0 -75z" transform="matrix(0.062208, 0, 0, -0.062692, 14.168454, 485.922004)"/>
  <path d="M3063 4098 c-35 -17 -48 -60 -29 -96 25 -48 78 -57 114 -19 29 31 28 72 -3 102 -26 27 -47 30 -82 13z" transform="matrix(0.062208, 0, 0, -0.062692, 14.168454, 485.922004)"/>
  <path d="M2987 3310 c-29 -23 -36 -65 -17 -100 25 -47 316 -84 784 -100 576 -20 1264 28 1328 92 28 28 21 85 -13 110 -25 19 -29 19 -110 3 -450 -86 -1482 -81 -1914 10 -23 5 -37 1 -58 -15z" transform="matrix(0.062208, 0, 0, -0.062692, 14.168454, 485.922004)"/>
  <text style="font-family: &quot;Averia Serif Libre&quot;; font-size: 28px; white-space: pre;" transform="matrix(1.56855, 0, 0, 1.593601, 108.40293, 371.280969)">Data Modeling</text>
</svg>