<?xml version="1.0" standalone="no"?>
<!DOCTYPE svg PUBLIC "-//W3C//DTD SVG 20010904//EN"
 "http://www.w3.org/TR/2001/REC-SVG-20010904/DTD/svg10.dtd">
<svg version="1.0" xmlns="http://www.w3.org/2000/svg"
 viewBox="0 0 512.000000 512.000000"
 preserveAspectRatio="xMidYMid meet" >

<g transform="translate(0.000000,512.000000) scale(0.100000,-0.100000)"
fill="#FFF" stroke="none">
<path d="M926 5109 c-149 -22 -311 -83 -436 -164 -96 -63 -252 -219 -315 -315
-62 -94 -108 -201 -143 -327 l-27 -98 -3 -1590 c-2 -1100 0 -1616 8 -1673 21
-162 82 -326 175 -467 54 -83 215 -241 305 -300 94 -61 203 -109 328 -143 l97
-27 1590 -3 c1100 -2 1616 0 1673 8 286 37 549 190 724 420 63 82 151 262 177
360 37 139 41 225 41 978 0 781 1 772 -48 825 -83 92 -241 66 -293 -47 -18
-39 -19 -80 -19 -789 0 -846 1 -836 -75 -992 -73 -150 -180 -257 -330 -330
-164 -80 -53 -75 -1795 -75 -1718 0 -1629 -3 -1777 65 -170 78 -291 202 -367
372 -58 133 -56 60 -56 1763 0 1703 -2 1630 56 1763 76 170 197 294 367 372
140 65 145 65 969 65 708 0 745 1 785 19 134 61 133 261 -1 322 -39 18 -81 19
-796 18 -415 -1 -782 -5 -814 -10z"/>
<path d="M3482 5099 c-44 -22 -83 -76 -96 -132 -16 -67 35 -155 109 -188 37
-17 76 -19 525 -19 l485 0 -1087 -1087 c-597 -599 -1094 -1103 -1103 -1122
-21 -42 -21 -120 -1 -159 20 -38 70 -80 104 -88 15 -3 33 -8 40 -10 7 -2 34 1
60 7 45 11 104 68 1145 1108 l1097 1096 0 -485 c0 -449 2 -488 19 -525 33 -74
121 -125 188 -109 57 13 111 53 132 97 21 43 21 53 21 765 0 628 -2 727 -15
759 -21 50 -42 72 -90 94 -38 17 -83 19 -765 19 -718 0 -725 0 -768 -21z"/>
</g>
</svg>
