<?xml version="1.0" standalone="no"?>
<!DOCTYPE svg PUBLIC "-//W3C//DTD SVG 20010904//EN"
 "http://www.w3.org/TR/2001/REC-SVG-20010904/DTD/svg10.dtd">
<svg version="1.0" xmlns="http://www.w3.org/2000/svg"
 width="1464.000000pt" height="400.000000pt" viewBox="0 0 1464.000000 400.000000"
 preserveAspectRatio="xMidYMid meet">
<metadata>
Created by potrace 1.16, written by Peter Selinger 2001-2019
</metadata>
<g transform="translate(0.000000,400.000000) scale(0.100000,-0.100000)"
fill="#000000" stroke="none">
<path d="M490 1525 l0 -1155 798 1 797 0 42 57 c42 56 163 214 246 321 23 29
52 68 63 85 12 17 31 40 43 50 11 11 21 23 21 29 0 5 15 26 33 47 17 20 48 58
67 85 19 26 52 66 72 89 33 37 38 39 50 24 7 -9 47 -60 88 -115 41 -54 93
-121 115 -148 22 -28 51 -66 65 -84 40 -53 84 -106 93 -109 4 -2 7 -9 7 -16 0
-7 14 -25 30 -41 17 -16 30 -33 30 -39 0 -5 10 -20 23 -34 12 -13 51 -63 87
-110 62 -83 67 -87 108 -90 46 -3 49 -1 28 25 -26 31 -85 107 -122 153 -19 25
-49 64 -67 86 -17 23 -48 63 -67 89 -19 26 -50 64 -68 85 -31 36 -47 57 -107
140 -13 19 -42 56 -62 82 -21 25 -64 81 -97 123 l-59 76 22 23 c11 12 21 26
21 30 0 5 12 23 28 42 15 18 41 51 57 74 17 22 35 46 41 53 11 13 400 527 423
558 13 18 11 19 -27 19 l-40 0 -178 -236 c-99 -129 -183 -243 -189 -252 -5 -9
-23 -33 -40 -53 -16 -19 -57 -72 -90 -117 -33 -45 -65 -82 -70 -82 -6 0 -31
28 -55 62 -43 59 -215 292 -380 513 -41 55 -84 114 -95 130 -16 23 -31 31 -63
36 -23 3 -42 3 -42 0 0 -7 31 -54 68 -102 32 -42 119 -159 157 -209 14 -19 54
-71 88 -115 34 -44 76 -98 92 -122 17 -23 65 -87 108 -142 42 -55 77 -103 77
-105 0 -5 -42 -65 -88 -127 -85 -113 -111 -145 -125 -158 -10 -7 -17 -19 -17
-26 0 -8 -4 -15 -8 -17 -5 -1 -28 -28 -51 -58 -66 -86 -206 -268 -264 -343
l-52 -68 -745 1 c-409 0 -748 4 -752 8 -5 5 -7 251 -6 548 l3 539 687 3 688 2
0 35 0 35 -688 2 -687 3 -3 497 -2 498 732 2 733 3 0 30 0 30 -762 3 -763 2 0
-1155z"/>
<path d="M13485 2120 c-161 -32 -271 -106 -341 -230 -60 -105 -62 -293 -5
-416 63 -134 175 -217 456 -335 120 -50 180 -93 206 -146 37 -77 12 -145 -72
-193 -39 -22 -56 -25 -139 -25 -75 0 -105 5 -140 21 -52 24 -139 99 -159 138
-8 14 -20 26 -27 26 -7 0 -52 -23 -101 -51 -48 -29 -105 -61 -125 -72 -21 -12
-38 -25 -38 -30 0 -23 66 -111 126 -166 230 -215 677 -230 889 -30 31 29 64
67 75 84 38 61 60 152 60 245 0 192 -82 327 -260 429 -39 22 -179 91 -186 91
-3 0 -51 22 -107 48 -112 53 -150 88 -167 153 -9 33 -8 46 8 83 27 59 72 86
147 86 73 0 116 -21 168 -81 23 -27 45 -49 49 -49 7 0 50 26 201 123 26 17 47
34 47 39 0 33 -128 171 -186 201 -99 50 -279 77 -379 57z"/>
<path d="M12485 2098 c-3 -7 -6 -283 -7 -613 -3 -565 -4 -602 -22 -638 -47
-95 -207 -103 -290 -13 -21 22 -42 51 -47 64 -5 12 -15 25 -24 28 -8 4 -63
-23 -127 -61 -158 -95 -151 -87 -120 -143 37 -65 127 -152 197 -188 89 -47
197 -68 314 -61 244 14 387 126 441 344 19 78 20 108 18 685 l-3 603 -163 3
c-124 2 -164 0 -167 -10z"/>
<path d="M4145 2063 c-119 -26 -240 -86 -324 -160 -65 -57 -151 -181 -177
-254 -10 -27 -22 -49 -26 -49 -4 0 -8 97 -8 215 l0 215 -35 0 -35 0 0 -1015 0
-1015 35 0 35 0 0 411 c0 376 6 463 24 366 8 -43 55 -133 104 -200 53 -71 139
-140 222 -178 72 -34 97 -41 192 -55 84 -13 120 -13 198 -4 112 13 141 21 237
68 110 54 239 191 294 312 58 127 75 184 96 315 28 182 1 430 -63 593 -38 93
-100 185 -181 264 -128 124 -268 179 -458 177 -60 -1 -119 -3 -130 -6z m285
-75 c93 -18 177 -65 261 -148 102 -100 158 -201 194 -350 30 -124 35 -167 35
-278 -1 -214 -49 -406 -135 -531 -16 -23 -34 -50 -40 -59 -12 -20 -94 -99
-133 -129 -25 -19 -62 -37 -127 -64 -55 -22 -140 -31 -246 -27 -162 8 -257 41
-370 132 -171 136 -259 358 -259 657 0 551 345 887 820 797z"/>
<path d="M5800 2056 c-207 -47 -373 -190 -430 -371 -7 -22 -16 -43 -19 -48 -4
-4 -5 82 -3 191 l4 199 -28 6 c-16 3 -32 2 -37 -2 -4 -4 -6 -378 -5 -832 l3
-824 30 0 30 0 5 555 c6 538 6 557 28 628 59 194 169 327 332 400 63 29 112
40 213 48 l87 7 0 28 0 29 -77 -1 c-43 -1 -103 -7 -133 -13z"/>
<path d="M6635 2063 c-39 -8 -174 -54 -197 -66 -105 -57 -226 -178 -292 -292
-25 -44 -46 -87 -46 -95 0 -9 -4 -20 -9 -25 -17 -18 -49 -139 -61 -233 -21
-152 -2 -389 42 -532 20 -63 91 -203 131 -256 60 -81 186 -164 307 -202 117
-38 363 -33 492 9 190 62 336 198 402 372 38 101 46 131 46 170 0 33 -3 37
-25 37 -28 0 -45 -25 -45 -69 0 -16 -4 -33 -10 -36 -5 -3 -10 -15 -10 -26 0
-11 -17 -55 -37 -97 -71 -145 -234 -273 -387 -304 -86 -17 -265 -21 -341 -8
-72 13 -202 68 -225 95 -7 8 -18 15 -25 15 -13 0 -80 70 -110 115 -32 49 -80
147 -92 190 -38 133 -46 182 -47 280 l-1 80 688 3 687 2 0 105 c0 108 -7 152
-42 265 -100 324 -349 513 -672 509 -56 -1 -110 -3 -121 -6z m290 -79 c262
-62 451 -312 480 -638 6 -61 5 -80 -6 -87 -17 -11 -1281 -10 -1298 0 -9 6 -11
24 -7 62 10 97 18 144 27 154 5 5 9 19 9 31 0 13 5 26 10 29 6 3 10 14 10 24
0 36 87 181 152 252 151 165 383 230 623 173z"/>
<path d="M8077 2051 c-105 -29 -176 -69 -242 -135 -92 -92 -109 -136 -109
-276 0 -105 2 -120 27 -172 34 -68 90 -120 172 -158 62 -29 170 -65 240 -80
22 -5 56 -13 75 -19 19 -5 67 -17 105 -26 39 -9 99 -25 135 -36 36 -10 71 -19
77 -19 6 0 49 -19 95 -41 154 -77 208 -156 208 -304 0 -102 -19 -151 -91 -229
-104 -114 -258 -162 -491 -153 -172 6 -241 24 -360 93 -44 26 -107 99 -138
160 -33 66 -60 177 -60 247 0 34 -2 37 -29 37 -17 0 -32 -4 -36 -9 -13 -22 17
-196 46 -273 58 -149 187 -253 369 -297 201 -48 453 -31 595 40 101 50 112 58
157 108 74 82 108 174 108 289 0 64 -24 158 -46 183 -8 8 -14 20 -14 25 0 11
-82 94 -93 94 -4 0 -28 13 -54 29 -49 30 -107 52 -200 77 -29 8 -79 21 -110
30 -32 9 -74 20 -93 24 -391 93 -492 154 -529 319 -12 52 -12 72 -1 119 27
117 75 181 175 237 88 49 166 66 308 66 219 0 338 -40 434 -144 72 -80 96
-136 110 -264 5 -50 7 -53 34 -53 15 0 30 3 32 8 3 4 -1 48 -8 98 -29 207
-148 340 -360 400 -93 26 -349 29 -438 5z"/>
<path d="M9579 2051 c-254 -68 -398 -259 -359 -476 36 -194 138 -273 450 -345
52 -12 103 -26 112 -31 10 -5 31 -9 47 -9 17 0 33 -4 36 -10 3 -5 21 -10 40
-10 19 0 37 -4 40 -10 3 -5 19 -10 36 -10 16 0 37 -4 47 -9 9 -5 44 -20 77
-32 103 -39 187 -106 228 -184 18 -33 21 -57 21 -135 1 -117 -18 -164 -97
-242 -103 -104 -241 -148 -457 -148 -318 1 -505 126 -566 378 -7 31 -13 81
-14 110 l0 52 -35 0 c-35 0 -35 -1 -35 -43 0 -49 20 -148 46 -227 23 -68 58
-121 121 -182 44 -43 135 -98 162 -98 6 0 19 -4 29 -9 59 -31 253 -55 372 -46
259 20 421 109 506 278 35 68 36 75 36 176 0 113 -14 164 -64 231 -28 39 -115
105 -165 126 -21 9 -46 20 -55 25 -10 5 -25 9 -33 9 -8 0 -23 4 -33 9 -16 9
-117 37 -172 48 -14 2 -34 8 -45 13 -11 5 -31 11 -45 13 -39 8 -220 57 -270
73 -111 38 -194 96 -225 157 -8 16 -19 56 -26 90 -21 119 20 231 114 313 97
83 273 122 465 104 237 -23 372 -119 427 -303 8 -28 15 -67 15 -88 0 -55 8
-69 41 -69 28 0 29 1 29 54 0 114 -81 305 -144 338 -11 6 -29 19 -40 29 -11
11 -24 19 -30 19 -5 0 -17 6 -25 13 -79 67 -403 100 -562 58z"/>
</g>
</svg>
