<?xml version="1.0" standalone="no"?>
<!DOCTYPE svg PUBLIC "-//W3C//DTD SVG 20010904//EN"
 "http://www.w3.org/TR/2001/REC-SVG-20010904/DTD/svg10.dtd">
<svg version="1.0" xmlns="http://www.w3.org/2000/svg"
 width="80px" height="80px" viewBox="0 0 780.000000 1169.000000"
 preserveAspectRatio="xMidYMid meet">

<g transform="translate(0.000000,1169.000000) scale(0.100000,-0.100000)"
fill="#000000" stroke="none">
<path d="M3873 11149 c-768 -74 -1132 -537 -1133 -1443 0 -88 7 -299 17 -468
14 -261 15 -327 5 -435 -43 -437 -174 -750 -464 -1110 -538 -665 -881 -1329
-973 -1883 -19 -118 -29 -353 -18 -440 l9 -65 -51 -60 c-29 -33 -86 -105 -127
-160 -78 -104 -137 -164 -185 -188 -15 -8 -79 -33 -142 -56 -192 -71 -266
-117 -331 -209 -82 -113 -97 -234 -60 -477 27 -182 26 -284 -4 -377 -65 -198
-76 -345 -36 -453 32 -84 103 -152 200 -192 97 -41 174 -56 466 -92 388 -48
485 -73 724 -186 275 -130 435 -170 675 -170 137 0 172 4 240 23 164 47 305
148 375 270 l35 59 65 7 c36 3 164 23 285 45 405 72 559 77 895 26 96 -14 246
-29 332 -32 l156 -6 21 -57 c12 -31 39 -85 61 -119 291 -449 899 -420 1363 67
249 261 308 304 669 486 135 67 267 137 294 156 74 50 143 119 172 175 23 43
27 62 27 135 -1 69 -6 97 -27 147 -32 76 -96 172 -184 278 -85 102 -104 144
-160 368 -25 100 -59 211 -76 247 -37 76 -123 166 -192 200 -33 16 -46 27 -42
37 14 35 55 213 65 278 80 531 -93 1120 -512 1750 -90 134 -254 353 -386 513
-275 335 -422 566 -499 784 -62 175 -64 191 -72 708 -4 261 -13 522 -19 580
-44 400 -136 689 -291 908 -235 334 -638 483 -1167 431z m539 -1212 c262 -129
360 -557 192 -843 -41 -69 -41 -69 -145 -28 -52 20 -98 40 -102 44 -4 4 1 22
12 41 68 115 65 292 -6 408 -71 114 -197 111 -271 -7 -43 -68 -56 -116 -56
-209 l-1 -81 -35 15 c-19 8 -63 25 -97 36 l-63 21 0 95 c0 206 84 384 229 484
64 43 114 57 206 54 64 -2 91 -7 137 -30z m-1081 -89 c58 -39 110 -104 143
-180 52 -117 76 -332 39 -344 -14 -5 -106 -47 -156 -72 -4 -2 -5 7 -2 20 9 37
-13 155 -40 208 -41 81 -92 110 -150 86 -55 -23 -90 -105 -89 -211 0 -98 14
-148 59 -215 l34 -51 -47 -34 c-26 -19 -50 -35 -54 -35 -12 0 -55 63 -87 127
-85 171 -82 440 5 591 86 146 226 191 345 110z m518 -584 c58 -16 193 -78 296
-138 33 -20 118 -56 190 -82 275 -98 355 -164 355 -291 0 -138 -143 -282 -364
-368 -52 -20 -121 -53 -153 -72 -258 -159 -326 -185 -473 -186 -159 -1 -242
34 -386 163 -38 34 -112 91 -165 126 -107 71 -185 148 -219 215 -29 56 -30
133 -4 178 10 18 77 76 149 129 71 53 163 128 205 165 184 168 356 216 569
161z m875 -826 c107 -393 379 -1075 601 -1503 166 -321 289 -640 350 -910 15
-66 28 -125 30 -131 2 -7 32 -15 66 -19 34 -4 75 -11 90 -15 27 -8 28 -7 48
53 11 34 25 89 32 122 18 88 16 303 -5 408 -54 280 -216 599 -405 799 -70 74
-101 115 -101 132 0 3 9 6 19 6 42 0 262 -263 369 -441 225 -376 315 -779 243
-1098 l-9 -40 103 -50 c199 -97 353 -219 400 -318 20 -40 32 -146 21 -188 -5
-21 -12 -25 -40 -25 -34 0 -34 0 -29 39 16 121 -57 215 -252 324 -171 96 -359
157 -487 157 -160 0 -263 -89 -283 -245 -7 -50 -7 -50 -68 -79 -86 -40 -181
-139 -228 -236 -81 -165 -116 -353 -139 -750 -12 -184 -29 -283 -85 -476 -26
-90 -40 -124 -59 -139 -60 -48 -251 -154 -365 -203 -522 -224 -1038 -201
-1473 65 -41 25 -68 53 -101 101 -24 37 -78 110 -119 163 l-76 97 57 7 c113
14 194 69 221 150 17 51 8 158 -19 228 -57 146 -241 362 -441 516 -52 41 -168
122 -257 182 -241 162 -337 261 -418 430 -61 130 -78 213 -78 389 -1 124 4
176 22 260 46 216 133 440 266 690 80 150 192 337 207 346 24 15 -7 -60 -111
-266 -120 -239 -170 -357 -212 -503 -82 -285 -75 -573 21 -784 39 -86 89 -165
101 -157 5 3 9 32 9 64 0 144 51 421 117 640 49 162 103 296 243 600 336 729
475 1129 512 1478 6 59 12 108 14 110 5 8 172 -113 254 -185 143 -127 255
-173 413 -173 148 1 262 41 460 164 59 36 152 84 206 105 115 44 219 110 282
178 24 27 47 44 50 38 4 -5 19 -54 33 -107z m1192 -2827 c150 -51 282 -140
321 -215 22 -42 19 -105 -6 -153 -47 -92 -226 -214 -341 -232 -135 -21 -240
48 -299 197 -40 101 -43 280 -7 349 49 96 159 114 332 54z m-434 -363 c22
-173 125 -340 247 -400 39 -20 62 -23 156 -23 100 0 117 3 190 33 104 41 224
115 303 187 l63 57 112 -4 c94 -3 121 -8 167 -29 127 -59 169 -128 234 -389
65 -258 74 -277 209 -442 125 -153 180 -282 157 -367 -25 -94 -116 -161 -414
-306 -353 -172 -457 -245 -666 -466 -155 -164 -250 -239 -394 -309 -132 -66
-230 -90 -360 -90 -173 0 -280 42 -392 154 -54 54 -81 92 -115 160 l-44 89 0
141 c0 167 12 229 115 591 90 315 99 361 116 615 29 440 74 634 176 762 36 46
106 100 122 95 6 -2 14 -29 18 -59z m-3708 9 c158 -78 298 -263 492 -651 64
-127 125 -247 137 -266 33 -55 144 -204 282 -377 254 -318 355 -507 355 -660
-1 -183 -96 -350 -246 -430 -105 -56 -201 -77 -349 -76 -210 1 -422 57 -655
173 -219 109 -352 142 -798 195 -231 27 -308 43 -389 82 -147 69 -170 219 -78
498 38 115 42 201 14 380 -12 83 -22 191 -23 241 0 83 2 96 32 157 51 102 103
139 294 208 214 76 261 113 407 309 162 219 225 262 373 256 65 -2 89 -8 152
-39z"/>
<path d="M4425 8771 c-22 -10 -103 -55 -179 -100 -278 -164 -414 -219 -568
-228 -196 -12 -336 48 -548 238 -47 42 -95 81 -107 87 -20 11 -22 10 -25 -20
-3 -30 5 -40 82 -111 224 -206 430 -288 644 -258 153 21 278 73 536 225 91 53
186 104 213 114 41 14 47 20 47 44 0 24 -4 28 -27 27 -16 0 -46 -8 -68 -18z"/>
<path d="M356 2382 c-8 -8 -7 -55 2 -68 4 -6 43 -14 87 -18 100 -9 159 -35
174 -78 15 -43 15 -1633 1 -1675 -14 -40 -46 -53 -160 -64 -52 -6 -98 -16
-102 -22 -5 -7 -7 -25 -6 -40 l3 -28 713 -2 c706 -2 713 -2 716 18 2 11 9 67
16 124 6 57 23 162 36 234 28 144 27 149 -35 145 -31 -3 -34 -7 -50 -58 -46
-149 -133 -269 -226 -312 -47 -22 -64 -23 -292 -26 -280 -4 -298 0 -333 72
-20 42 -20 57 -20 829 0 588 3 793 12 812 17 38 61 57 163 69 l90 12 3 41 3
41 -395 0 c-217 0 -397 -3 -400 -6z"/>
<path d="M2274 2281 c-97 -59 -108 -175 -22 -244 30 -24 46 -29 88 -29 80 0
138 53 147 133 12 108 -122 196 -213 140z"/>
<path d="M2400 1734 c-25 -8 -106 -26 -180 -40 -74 -14 -145 -27 -157 -30 -19
-3 -23 -11 -23 -39 0 -38 2 -39 99 -49 29 -3 59 -10 67 -17 30 -25 34 -89 34
-545 0 -447 -1 -462 -20 -487 -23 -28 -59 -42 -137 -52 l-53 -7 0 -41 0 -42
330 0 330 0 0 37 c0 20 -4 39 -9 42 -5 3 -38 10 -74 15 -83 12 -114 32 -128
85 -8 29 -10 202 -6 614 5 643 13 583 -73 556z"/>
<path d="M3160 1729 c-36 -11 -114 -28 -175 -39 -60 -12 -120 -23 -132 -26
-19 -3 -23 -11 -23 -39 0 -38 2 -39 99 -49 79 -8 91 -24 103 -137 5 -52 8
-269 6 -484 -3 -441 -3 -441 -73 -462 -22 -7 -62 -16 -90 -20 -50 -8 -50 -8
-53 -48 l-3 -40 323 1 323 1 0 39 0 38 -75 17 c-55 13 -80 24 -97 44 l-23 26
0 408 0 408 83 80 c93 90 164 129 259 145 128 22 208 -14 244 -110 16 -42 18
-94 22 -473 4 -490 4 -486 -69 -512 -24 -8 -62 -19 -84 -23 -38 -9 -40 -11
-43 -49 l-3 -40 323 1 323 1 0 39 0 39 -74 12 c-90 15 -117 32 -130 80 -7 23
-11 187 -11 423 0 404 -6 482 -41 576 -54 143 -200 214 -381 184 -143 -24
-231 -73 -356 -199 l-75 -76 6 143 7 142 -23 -1 c-12 -1 -51 -10 -87 -20z"/>
<path d="M4452 1678 l3 -42 60 -11 c75 -14 103 -29 118 -63 7 -18 13 -170 17
-477 6 -486 5 -479 64 -579 50 -86 146 -135 281 -143 150 -10 271 38 397 156
l78 73 0 -121 0 -121 29 0 c16 0 54 13 85 30 61 32 145 59 269 85 74 16 77 18
77 45 0 39 -14 46 -100 54 -87 8 -117 24 -125 68 -3 18 -5 270 -3 561 l3 527
-218 0 -218 0 3 -42 c3 -37 6 -43 28 -46 14 -2 49 -10 77 -18 90 -25 87 -12
91 -490 l3 -411 -74 -69 c-100 -93 -179 -135 -268 -142 -121 -8 -199 51 -234
180 -14 56 -16 119 -13 551 l3 487 -218 0 -218 0 3 -42z"/>
<path d="M6032 1683 c3 -40 -1 -38 97 -63 78 -20 121 -74 444 -548 31 -46 35
-57 25 -75 -12 -24 -227 -303 -296 -384 -61 -73 -147 -128 -211 -137 -54 -7
-75 -28 -69 -68 3 -21 6 -21 253 -22 l250 0 0 40 c0 38 -1 39 -47 51 -75 18
-81 28 -52 84 18 36 232 347 243 353 4 3 12 2 18 -2 17 -12 252 -338 263 -366
13 -35 -13 -61 -69 -71 -40 -7 -41 -7 -41 -48 l0 -42 300 0 301 0 -3 40 -3 39
-62 13 c-81 16 -108 31 -165 90 -55 57 -378 510 -378 531 0 20 315 416 368
463 43 37 115 69 158 69 43 0 54 10 54 51 l0 39 -252 -2 c-236 -3 -253 -4
-256 -21 -9 -47 5 -64 60 -70 66 -8 86 -26 70 -62 -24 -53 -265 -376 -278
-373 -16 4 -264 372 -264 393 0 19 30 34 84 41 53 8 69 22 64 61 l-3 28 -303
3 -303 2 3 -37z"/>
</g>
</svg>
