<?xml version="1.0" encoding="UTF-8" standalone="no"?>
<!DOCTYPE svg PUBLIC "-//W3C//DTD SVG 1.1//EN" "http://www.w3.org/Graphics/SVG/1.1/DTD/svg11.dtd">
<svg xmlns="http://www.w3.org/2000/svg" xmlns:xlink="http://www.w3.org/1999/xlink" version="1.1" width="750pt" height="750pt" viewBox="0 0 750 750">
<g enable-background="new">
<g id="Layer-1" data-name="Layer">
<clipPath id="cp0">
<path transform="matrix(1,0,0,-1,0,750)" d="M 0 750 L 750 750 L 750 0 L 0 0 Z "/>
</clipPath>
<g clip-path="url(#cp0)">
<path transform="matrix(1,0,0,-1,40.7168,634.7754)" d="M 0 0 L 18.952 0 C 23.994 -.308 28.936 1.498 32.592 4.983 C 36.119 9.089 37.865 14.431 37.445 19.826 L 37.445 21.531 C 37.879 26.925 36.158 32.27 32.658 36.396 C 28.997 39.87 24.054 41.66 19.017 41.336 L .175 41.336 Z M -11.717 -45.904 L -11.717 47.959 C -11.714 49.063 -11.227 50.11 -10.383 50.822 C -9.435 51.63 -8.218 52.052 -6.973 52.003 L 19.498 52.003 C 27.328 52.389 35.013 49.796 41.008 44.746 C 46.385 39.907 49.074 32.278 49.074 21.859 L 49.074 20.591 C 49.074 10.157 46.334 2.499 40.854 -2.383 C 34.743 -7.476 26.942 -10.089 18.996 -9.706 L .175 -9.706 L .175 -45.904 C .21 -47.172 -.465 -48.353 -1.574 -48.965 C -4.114 -50.474 -7.275 -50.474 -9.815 -48.965 C -10.98 -48.391 -11.718 -47.204 -11.717 -45.904 " fill="#ff6c37"/>
<path transform="matrix(1,0,0,-1,142.5371,655.2578)" d="M 0 0 C 0 -13.203 6.091 -19.812 18.274 -19.826 C 23.304 -20.152 28.242 -18.361 31.893 -14.886 C 35.387 -10.747 37.115 -5.4 36.702 0 L 36.702 42.058 C 37.14 47.455 35.409 52.804 31.893 56.922 C 28.242 60.397 23.304 62.188 18.274 61.862 C 6.077 61.862 0 55.304 0 42.058 Z M -11.76 0 L -11.76 42.058 C -11.76 52.55 -9.028 60.252 -3.563 65.163 C 9.391 74.875 27.201 74.875 40.155 65.163 C 45.679 60.252 48.447 52.55 48.462 42.058 L 48.462 0 C 48.462 -10.507 45.715 -18.209 40.221 -23.105 C 27.25 -32.938 9.32 -32.938 -3.65 -23.105 C -9.05 -18.187 -11.76 -10.558 -11.76 0 " fill="#ff6c37"/>
<path transform="matrix(1,0,0,-1,232.4658,670.4717)" d="M 0 0 C .039 1.597 .608 3.135 1.618 4.372 C 2.34 5.594 3.595 6.403 5.006 6.558 C 6.245 6.344 7.376 5.721 8.219 4.787 C 9.509 3.629 10.886 2.339 12.285 .896 C 14.173 -.853 16.407 -2.186 18.843 -3.017 C 22.11 -4.244 25.584 -4.83 29.073 -4.743 C 34.189 -5.058 39.246 -3.505 43.303 -.372 C 46.927 2.907 48.838 7.673 48.484 12.547 C 48.683 17.185 46.977 21.702 43.763 25.051 C 40.519 28.291 36.611 30.789 32.308 32.374 C 27.805 34.035 23.346 35.783 18.668 37.751 C 14.157 39.655 10.196 42.662 7.148 46.495 C 3.872 50.906 2.206 56.306 2.427 61.796 C 2.321 66.219 3.272 70.604 5.203 74.584 C 6.86 77.969 9.455 80.807 12.679 82.759 C 15.706 84.555 18.974 85.908 22.384 86.781 C 25.895 87.649 29.5 88.075 33.117 88.049 C 38.735 88.075 44.324 87.234 49.687 85.558 C 54.933 83.853 57.6 81.535 57.6 78.737 C 57.522 77.237 57.039 75.786 56.2 74.54 C 55.478 73.196 54.076 72.356 52.55 72.354 C 50.397 73.012 48.3 73.838 46.276 74.824 C 42.192 76.642 37.762 77.551 33.292 77.491 C 28.51 77.711 23.768 76.525 19.652 74.081 C 16.07 71.591 14.074 67.392 14.405 63.042 C 14.208 59.015 15.917 55.128 19.018 52.55 C 22.438 49.751 26.343 47.603 30.538 46.211 C 35.063 44.615 39.565 42.801 44.156 40.746 C 48.756 38.533 52.686 35.139 55.544 30.909 C 58.87 25.788 60.526 19.763 60.288 13.662 C 60.288 4.044 57.49 -3.17 51.894 -8.088 C 45.664 -13.198 37.755 -15.809 29.707 -15.411 C 22.363 -15.647 15.098 -13.839 8.722 -10.187 C 2.864 -6.82 0 -3.497 0 0 Z " fill="#ff6c37"/>
<path transform="matrix(1,0,0,-1,327.7285,587.9531)" d="M 0 0 C -.044 1.301 .348 2.578 1.115 3.629 C 1.775 4.666 2.948 5.262 4.175 5.181 L 61.01 5.181 C 62.236 5.262 63.409 4.666 64.069 3.629 C 64.813 2.566 65.202 1.297 65.185 0 C 65.228 -1.354 64.837 -2.687 64.069 -3.804 C 63.429 -4.871 62.253 -5.5 61.01 -5.442 L 38.713 -5.442 L 38.713 -92.727 C 38.738 -93.991 38.066 -95.167 36.964 -95.787 C 34.424 -97.296 31.263 -97.296 28.723 -95.787 C 27.621 -95.167 26.949 -93.991 26.975 -92.727 L 26.975 -5.442 L 4.35 -5.442 C 3.12 -5.514 1.948 -4.911 1.29 -3.869 C .445 -2.757 -.008 -1.396 0 0 " fill="#ff6c37"/>
<path transform="matrix(1,0,0,-1,432.7402,680.6797)" d="M 0 0 L 0 91.962 C -.447 94.735 1.427 97.352 4.197 97.82 C 4.807 97.906 5.425 97.906 6.033 97.82 C 9.75 97.82 12.854 95.372 15.411 90.409 L 37.271 48.374 L 59.37 90.409 C 62.059 95.372 65.163 97.82 68.704 97.82 C 71.473 98.253 74.071 96.367 74.519 93.602 C 74.605 93.117 74.605 92.621 74.519 92.137 L 74.519 .152 C 74.557 -1.115 73.893 -2.3 72.792 -2.93 C 70.237 -4.414 67.083 -4.414 64.529 -2.93 C 63.428 -2.3 62.764 -1.115 62.802 .152 L 62.802 73.338 L 41.708 33.685 C 41.036 31.704 39.208 30.346 37.117 30.274 C 35.091 30.385 33.346 31.746 32.745 33.685 L 11.651 74.016 L 11.651 0 C 11.677 -1.265 11.005 -2.44 9.902 -3.061 C 8.742 -3.876 7.364 -4.325 5.946 -4.351 C 4.496 -4.392 3.066 -4.003 1.837 -3.235 C .639 -2.615 -.081 -1.347 0 0 " fill="#ff6c37"/>
<path transform="matrix(1,0,0,-1,567.7002,652.0439)" d="M 0 0 L 31.236 0 L 15.607 52.199 Z M -20.286 -27.98 C -20.256 -27.588 -20.16 -27.204 -20.002 -26.844 L 8.59 65.162 C 9.399 67.851 11.76 69.206 15.694 69.206 C 19.629 69.206 22.012 67.851 22.82 65.162 L 51.5 -27.303 C 51.478 -27.47 51.478 -27.639 51.5 -27.806 C 51.544 -27.94 51.544 -28.086 51.5 -28.221 C 51.448 -29.671 50.61 -30.978 49.314 -31.631 C 47.779 -32.575 46 -33.046 44.199 -32.986 C 42.353 -33.229 40.593 -32.129 40.002 -30.363 L 33.882 -9.925 L -2.842 -9.925 L -8.963 -30.363 C -9.538 -32.229 -11.409 -33.38 -13.335 -33.052 C -15.018 -33.052 -16.664 -32.565 -18.078 -31.652 C -19.463 -30.959 -20.323 -29.528 -20.286 -27.98 " fill="#ff6c37"/>
<path transform="matrix(1,0,0,-1,659.7051,680.6797)" d="M 0 0 L 0 93.863 C 0 96.552 1.946 97.907 5.858 97.907 C 7.674 97.952 9.444 97.339 10.843 96.181 C 12.496 94.556 13.831 92.636 14.777 90.519 L 49.577 22.361 L 49.577 93.929 C 49.571 95.171 50.241 96.318 51.326 96.924 C 53.895 98.323 56.998 98.323 59.566 96.924 C 60.646 96.316 61.309 95.168 61.294 93.929 L 61.294 -.065 C 61.328 -1.327 60.664 -2.504 59.566 -3.126 C 58.33 -3.897 56.893 -4.285 55.436 -4.241 C 52.144 -4.074 49.253 -1.997 48.047 1.071 L 11.717 71.305 L 11.717 -.065 C 11.751 -1.327 11.087 -2.504 9.99 -3.126 C 7.442 -4.635 4.274 -4.635 1.728 -3.126 C .608 -2.493 -.06 -1.284 0 0 " fill="#ff6c37"/>
<path transform="matrix(1,0,0,-1,591.832,310.5371)" d="M 0 0 C 15.377 119.742 -69.228 229.278 -188.97 244.655 C -308.711 260.032 -418.247 175.427 -433.624 55.685 C -449.001 -64.057 -364.396 -173.593 -244.654 -188.97 C -244.645 -188.971 -244.636 -188.972 -244.626 -188.974 C -124.894 -204.334 -15.375 -119.731 0 0 " fill="#ff6c37"/>
<path transform="matrix(1,0,0,-1,453.8564,204.58502)" d="M 0 0 L -92.158 -92.159 L -118.28 -66.059 C -27.542 24.635 -18.536 16.657 0 0 " fill="#ffffff"/>
<path transform="matrix(1,0,0,-1,338.6802,270.5347)" d="M 0 0 L 23.018 -23.083 L 112.007 65.906 C 95.853 80.18 84.879 84.617 0 -.109 Z M 23.018 -28.417 C 22.434 -28.415 21.875 -28.178 21.466 -27.761 L -4.765 -1.53 C -5.613 -.677 -5.613 .7 -4.765 1.552 C 87.481 93.798 97.186 85.076 116.532 67.698 C 116.979 67.295 117.24 66.726 117.253 66.125 C 117.274 65.521 117.045 64.935 116.62 64.507 L 24.548 -27.761 C 24.145 -28.173 23.594 -28.409 23.018 -28.417 " fill="#ff6c37"/>
<path transform="matrix(1,0,0,-1,388.1045,323.1719)" d="M 0 0 L -25.182 25.182 L 66.998 117.363 C 91.809 92.53 55.02 52.047 0 0 " fill="#ffffff"/>
<path transform="matrix(1,0,0,-1,366.0264,297.9897)" d="M 0 0 C 14.099 -14.121 19.805 -19.805 22.121 -22.122 C 58.933 12.853 94.432 48.681 94.781 73.36 C 94.93 79.129 92.865 84.737 89.011 89.033 Z M 22.078 -27.368 L 21.969 -27.368 C 21.415 -27.323 20.896 -27.083 20.504 -26.69 L -4.656 -1.552 C -5.056 -1.133 -5.282 -.579 -5.29 0 C -5.293 .581 -5.065 1.14 -4.656 1.552 L 87.524 93.71 C 88.377 94.558 89.754 94.558 90.606 93.71 C 96.186 88.41 99.286 81.011 99.153 73.316 C 98.804 49.074 71.195 18.274 23.586 -26.756 C 23.181 -27.146 22.641 -27.366 22.078 -27.368 " fill="#ff6c37"/>
<path transform="matrix(1,0,0,-1,336.21,271.2778)" d="M 0 0 L 18.603 -18.58 C 18.95 -18.932 18.947 -19.5 18.595 -19.848 C 18.471 -19.97 18.314 -20.054 18.143 -20.088 L -20.22 -28.352 C -22.165 -28.78 -24.089 -27.551 -24.519 -25.606 C -24.784 -24.401 -24.416 -23.145 -23.542 -22.274 L -1.18 0 C -.842 .296 -.338 .296 0 0 " fill="#ffffff"/>
<path transform="matrix(1,0,0,-1,335.5762,273.7261)" d="M 0 0 L -21.356 -21.356 C -21.826 -21.798 -21.926 -22.507 -21.597 -23.062 C -21.315 -23.638 -20.663 -23.931 -20.045 -23.761 L 16.001 -16.001 Z M -20.373 -28.177 C -23.572 -28.167 -26.158 -25.566 -26.149 -22.367 C -26.145 -20.83 -25.529 -19.357 -24.438 -18.274 L -2.186 4 C -.976 5.201 .976 5.201 2.186 4 L 20.766 -14.602 C 21.972 -15.787 21.989 -17.724 20.804 -18.93 C 20.378 -19.363 19.832 -19.66 19.236 -19.783 L -19.127 -28.045 C -19.537 -28.132 -19.954 -28.176 -20.373 -28.177 " fill="#ff6c37"/>
<path transform="matrix(1,0,0,-1,502.7344,153.4126)" d="M 0 0 C -14.086 13.534 -36.476 13.086 -50.009 -.999 C -63.542 -15.084 -63.095 -37.474 -49.01 -51.007 C -37.472 -62.093 -19.929 -64.052 -6.23 -55.785 L -31.019 -31.018 Z " fill="#ffffff"/>
<path transform="matrix(1,0,0,-1,478.208,145.80573)" d="M 0 0 C -18.302 -.014 -33.127 -14.862 -33.113 -33.165 C -33.099 -51.466 -18.25 -66.292 .052 -66.277 C 5.12 -66.273 10.12 -65.106 14.667 -62.867 L -8.022 -40.155 C -8.435 -39.752 -8.67 -39.202 -8.679 -38.625 C -8.676 -38.041 -8.439 -37.482 -8.022 -37.073 L 21.356 -7.694 C 15.368 -2.705 7.816 .019 .021 0 Z M 0 -70.693 C -20.753 -70.7 -37.582 -53.882 -37.589 -33.129 C -37.596 -12.376 -20.777 4.453 -.025 4.459 C 9.691 4.462 19.031 .702 26.034 -6.033 C 26.46 -6.438 26.704 -6.998 26.712 -7.585 C 26.721 -8.174 26.492 -8.741 26.078 -9.159 L -3.279 -38.625 L 19.957 -61.84 C 20.43 -62.318 20.655 -62.987 20.569 -63.654 C 20.489 -64.327 20.102 -64.924 19.521 -65.271 C 13.632 -68.83 6.88 -70.705 0 -70.693 " fill="#ff6c37"/>
<path transform="matrix(1,0,0,-1,503.3457,153.89362)" d="M 0 0 L -.546 .481 L -31.63 -30.537 L -6.842 -55.304 C -4.355 -53.857 -2.058 -52.11 0 -50.102 C 13.836 -36.278 13.845 -13.856 .021 -.021 C .015 -.014 .008 -.007 0 0 " fill="#ffffff"/>
<path transform="matrix(1,0,0,-1,474.9287,184.43073)" d="M 0 0 L 21.859 -21.991 C 23.619 -20.804 25.266 -19.458 26.778 -17.969 C 39.344 -5.402 39.786 14.831 27.783 27.936 Z M 21.575 -26.953 C 20.994 -26.956 20.436 -26.728 20.023 -26.319 L -4.743 -1.53 C -5.155 -1.127 -5.391 -.577 -5.399 0 C -5.396 .584 -5.16 1.143 -4.743 1.552 L 26.231 32.57 C 27.081 33.403 28.441 33.403 29.292 32.57 L 29.86 32.067 C 44.534 17.461 44.59 -6.275 29.983 -20.95 C 27.791 -23.151 25.334 -25.073 22.668 -26.668 C 22.335 -26.857 21.958 -26.956 21.575 -26.953 " fill="#ff6c37"/>
<path transform="matrix(1,0,0,-1,457.6602,208.3667)" d="M 0 0 C -5.263 5.244 -13.776 5.244 -19.039 0 L -101.471 -82.453 L -87.656 -96.181 L -.524 -19.673 C 5.043 -14.744 5.561 -6.234 .631 -.666 C .429 -.437 .218 -.215 0 0 " fill="#ffffff"/>
<path transform="matrix(1,0,0,-1,359.3809,290.8418)" d="M 0 0 L 10.711 -10.711 L 96.312 64.463 C 101.058 68.499 101.633 75.617 97.598 80.362 C 93.562 85.108 86.443 85.684 81.698 81.648 C 81.42 81.412 81.154 81.163 80.901 80.901 Z M 10.624 -15.892 C 10.042 -15.895 9.484 -15.667 9.072 -15.258 L -4.678 -1.53 C -5.535 -.68 -5.541 .704 -4.69 1.561 C -4.687 1.565 -4.682 1.57 -4.678 1.574 L 77.688 84.005 C 83.812 90.1 93.708 90.1 99.831 84.005 C 105.935 77.901 105.935 68.005 99.831 61.902 C 99.591 61.662 99.343 61.43 99.088 61.206 L 11.957 -15.301 C 11.593 -15.645 11.123 -15.854 10.624 -15.892 " fill="#ff6c37"/>
<path transform="matrix(1,0,0,-1,292.9727,384.5088)" d="M 0 0 C -.796 -.413 -1.217 -1.309 -1.027 -2.186 L 2.667 -17.969 C 3.439 -20.256 2.212 -22.736 -.075 -23.51 C -1.797 -24.092 -3.699 -23.548 -4.853 -22.144 L -28.745 1.749 L 49.708 80.18 L 76.704 79.765 L 95.132 61.359 C 90.563 57.534 64.135 32.155 0 0 " fill="#ffffff"/>
<path transform="matrix(1,0,0,-1,267.2661,382.7822)" d="M 0 0 L 22.406 -22.318 C 23.009 -23.38 24.36 -23.752 25.422 -23.148 C 26.484 -22.545 26.856 -21.194 26.253 -20.132 L 22.559 -4.35 C 22.123 -2.479 23.027 -.554 24.745 .307 C 63.523 19.761 94.694 39.784 117.646 59.829 L 101.514 75.961 L 76.311 76.354 Z M 24.045 -27.411 C 22.285 -27.41 20.599 -26.701 19.367 -25.443 L -4.59 -1.53 C -4.995 -1.123 -5.222 -.573 -5.225 0 C -5.228 .581 -5 1.14 -4.59 1.553 L 73.862 80.005 C 74.28 80.42 74.848 80.648 75.436 80.639 L 102.454 80.224 C 103.02 80.216 103.561 79.988 103.962 79.59 L 122.368 61.163 C 122.807 60.732 123.045 60.138 123.024 59.523 C 122.994 58.912 122.708 58.34 122.237 57.949 L 120.685 56.594 C 97.558 36.287 66.037 16.045 26.843 -3.585 L 30.516 -19.214 C 31.232 -22.118 29.892 -25.14 27.258 -26.559 C 26.276 -27.107 25.171 -27.401 24.045 -27.411 " fill="#ff6c37"/>
<path transform="matrix(1,0,0,-1,245.4067,401.5586)" d="M 0 0 L 18.777 18.776 L 46.691 -9.138 L 2.099 -6.077 C .144 -5.854 -1.261 -4.089 -1.038 -2.134 C -.946 -1.325 -.58 -.572 0 0 " fill="#ffffff"/>
<path transform="matrix(1,0,0,-1,264.2275,385.8643)" d="M 0 0 L -17.225 -17.225 C -17.618 -17.594 -17.755 -18.16 -17.575 -18.668 C -17.407 -19.181 -16.954 -19.549 -16.417 -19.607 L 22.253 -22.253 Z M 27.914 -27.018 L 27.783 -27.018 L -16.832 -23.958 C -20.002 -23.632 -22.308 -20.798 -21.983 -17.627 C -21.848 -16.311 -21.264 -15.08 -20.329 -14.143 L -1.552 4.635 C -.702 5.491 .682 5.497 1.54 4.647 C 1.543 4.643 1.548 4.639 1.552 4.635 L 29.466 -23.28 C 30.125 -23.924 30.308 -24.912 29.925 -25.75 C 29.563 -26.532 28.776 -27.028 27.915 -27.018 Z " fill="#ff6c37"/>
<path transform="matrix(1,0,0,-1,355.9707,294.1206)" d="M 0 0 L -14.383 -14.449 L 9.378 -9.312 Z M -21.247 -20.329 C -22.454 -20.324 -23.429 -19.341 -23.424 -18.134 C -23.421 -17.565 -23.197 -17.02 -22.799 -16.613 L -1.552 4.634 C -.702 5.491 .682 5.497 1.54 4.647 C 1.544 4.643 1.548 4.638 1.552 4.634 L 15.236 -9.072 C 15.816 -9.638 16.035 -10.48 15.804 -11.258 C 15.574 -12.022 14.946 -12.6 14.165 -12.766 L -20.81 -20.307 C -20.954 -20.334 -21.101 -20.341 -21.247 -20.329 " fill="#ff6c37"/>
<path transform="matrix(1,0,0,-1,369.6768,304.7441)" d="M 0 0 L -24.045 -5.159 C -25.824 -5.559 -27.59 -4.442 -27.99 -2.663 C -28.241 -1.549 -27.898 -.385 -27.083 .415 L -13.793 13.706 Z " fill="#ffffff"/>
<path transform="matrix(1,0,0,-1,355.9272,294.1206)" d="M 0 0 L -11.76 -11.739 C -12.125 -12.086 -12.198 -12.642 -11.935 -13.072 C -11.734 -13.548 -11.205 -13.793 -10.711 -13.64 L 9.312 -9.269 Z M -10.93 -18.034 C -13.96 -18.034 -16.417 -15.578 -16.417 -12.548 C -16.417 -11.087 -15.835 -9.687 -14.799 -8.656 L -1.508 4.634 C -.658 5.491 .726 5.497 1.583 4.647 C 1.587 4.643 1.591 4.638 1.596 4.634 L 15.279 -9.072 C 15.86 -9.638 16.079 -10.48 15.848 -11.258 C 15.618 -12.022 14.989 -12.6 14.208 -12.766 L -9.837 -17.947 C -10.197 -18.013 -10.563 -18.042 -10.93 -18.034 " fill="#ff6c37"/>
<path transform="matrix(1,0,0,-1,503.499,174.90039)" d="M 0 0 C -.434 1.332 -1.865 2.059 -3.196 1.625 C -4.528 1.191 -5.256 -.24 -4.821 -1.571 C -4.751 -1.789 -4.651 -1.995 -4.524 -2.186 C -3.196 -4.872 -3.564 -8.087 -5.465 -10.405 C -6.354 -11.48 -6.208 -13.073 -5.137 -13.968 C -4.052 -14.841 -2.469 -14.685 -1.574 -13.618 C 1.577 -9.78 2.192 -4.455 0 0 " fill="#ff6c37"/>
</g>
</g>
</g>
</svg>
