<?xml version="1.0" encoding="utf-8"?>
<svg viewBox="118 69 678 231" xmlns="http://www.w3.org/2000/svg">
  <g transform="matrix(0.1, 0, 0, -0.1, 97.686121, 308.150914)" fill="#000000">
    <path d="M3707 1562 c-14 -16 -17 -44 -17 -180 0 -155 1 -162 20 -162 19 0 20 7 20 154 0 88 4 157 10 161 8 5 596 -162 648 -185 22 -9 22 -12 22 -215 0 -160 -3 -207 -13 -211 -7 -2 -42 4 -78 16 -79 24 -79 24 -79 0 0 -15 14 -24 66 -40 142 -43 144 -40 144 236 0 187 -2 214 -17 232 -12 14 -61 34 -143 57 -69 20 -216 63 -326 96 -111 32 -211 59 -221 59 -11 0 -27 -8 -36 -18z" style="fill: rgb(242, 200, 15);"/>
    <path d="M4820 1195 l0 -205 30 0 30 0 0 80 0 80 39 0 c116 0 189 93 145 185 -24 51 -58 65 -159 65 l-85 0 0 -205z m175 140 c46 -45 25 -116 -40 -134 -66 -18 -75 -9 -75 80 l0 79 45 0 c35 0 52 -6 70 -25z" style="fill: rgb(242, 200, 15);"/>
    <path d="M6540 1194 l0 -206 95 4 c92 3 96 4 127 36 28 27 33 40 33 78 0 39 -5 50 -34 76 l-33 30 26 27 c17 18 26 38 26 60 0 74 -43 101 -160 101 l-80 0 0 -206z m165 141 c14 -13 25 -31 25 -40 0 -9 -11 -27 -25 -40 -18 -19 -35 -25 -70 -25 l-45 0 0 65 0 65 45 0 c35 0 52 -6 70 -25z m2 -171 c46 -30 39 -105 -13 -124 -14 -6 -43 -10 -65 -10 l-39 0 0 73 c0 41 3 77 8 81 10 11 83 -2 109 -20z" style="fill: rgb(242, 200, 15);"/>
    <path d="M6870 1195 l0 -205 25 0 25 0 0 205 0 205 -25 0 -25 0 0 -205z" style="fill: rgb(242, 200, 15);"/>
    <path d="M4112 1318 c-9 -9 -12 -74 -12 -250 0 -229 1 -238 20 -248 28 -15 59 -3 71 27 14 38 11 423 -4 453 -14 28 -55 38 -75 18z" style="fill: rgb(242, 200, 15);"/>
    <path d="M5175 1270 c-42 -27 -65 -75 -65 -135 0 -116 99 -183 203 -137 98 43 115 188 32 261 -30 26 -44 31 -88 31 -35 0 -62 -7 -82 -20z m116 -30 c32 -18 52 -68 46 -118 -12 -113 -137 -131 -166 -25 -27 96 45 182 120 143z" style="fill: rgb(242, 200, 15);"/>
    <path d="M5430 1280 c0 -6 19 -74 42 -150 40 -134 43 -140 68 -140 25 0 29 7 60 105 19 58 37 105 40 105 3 0 19 -46 36 -103 30 -98 33 -102 60 -102 27 0 29 4 71 135 23 74 43 141 43 148 0 6 -11 12 -25 12 -20 0 -26 -7 -35 -42 -6 -24 -17 -63 -25 -88 -7 -25 -16 -58 -20 -75 -7 -27 -12 -17 -44 85 -33 104 -39 115 -60 115 -22 0 -28 -11 -61 -115 l-37 -115 -11 40 c-6 22 -19 74 -30 115 -17 68 -20 75 -45 78 -15 2 -27 -2 -27 -8z" style="fill: rgb(242, 200, 15);"/>
    <path d="M5947 1272 c-81 -50 -88 -200 -12 -260 54 -42 177 -40 183 4 3 19 -1 20 -56 16 -35 -2 -68 1 -81 8 -23 12 -53 68 -45 82 3 5 50 8 105 8 l99 0 0 35 c0 43 -22 88 -52 109 -30 21 -106 20 -141 -2z m122 -48 c37 -47 29 -54 -54 -54 -83 0 -91 7 -54 54 15 19 30 26 54 26 24 0 39 -7 54 -26z" style="fill: rgb(242, 200, 15);"/>
    <path d="M6208 1283 c-2 -5 -2 -72 0 -150 l4 -143 24 0 c23 0 24 2 24 85 0 108 17 153 60 161 23 5 30 12 30 30 0 33 -36 32 -72 -3 l-28 -27 0 27 c0 20 -5 27 -19 27 -11 0 -21 -3 -23 -7z" style="fill: rgb(242, 200, 15);"/>
    <path d="M3966 1258 c-13 -18 -16 -55 -16 -194 0 -159 1 -172 20 -189 16 -15 26 -17 48 -9 l27 9 3 187 c2 159 0 188 -13 202 -23 22 -51 20 -69 -6z" style="fill: rgb(242, 200, 15);"/>
    <path d="M3822 1218 c-17 -17 -17 -279 0 -296 18 -18 53 -15 71 6 24 27 25 263 1 286 -18 19 -55 21 -72 4z" style="fill: rgb(242, 200, 15);"/>
    <path d="M3676 1158 c-11 -15 -16 -46 -16 -95 0 -60 4 -77 20 -93 23 -23 33 -24 61 -10 17 9 19 22 19 103 0 59 -4 97 -12 105 -19 19 -55 14 -72 -10z" style="fill: rgb(242, 200, 15);"/>
  </g>
</svg>