<?xml version="1.0" encoding="utf-8"?>
<svg viewBox="0 0 500 500" xmlns="http://www.w3.org/2000/svg">
  <g transform="matrix(0.1, 0, 0, -0.1, 97.686121, 308.150914)" fill="#000000" stroke="none">
    <path d="M3070 1535 l0 -105 -90 0 c-53 0 -90 -4 -90 -10 0 -6 37 -10 90 -10 l89 0 3 -110 c4 -147 22 -149 26 -2 l3 112 84 0 c50 0 85 4 85 10 0 6 -35 10 -85 10 l-85 0 0 105 c0 87 -3 105 -15 105 -12 0 -15 -18 -15 -105z" style="fill: rgb(128, 0, 128);"/>
    <path d="M3707 1562 c-14 -16 -17 -44 -17 -180 0 -155 1 -162 20 -162 19 0 20 7 20 154 0 88 4 157 10 161 8 5 596 -162 648 -185 22 -9 22 -12 22 -215 0 -160 -3 -207 -13 -211 -7 -2 -42 4 -78 16 -79 24 -79 24 -79 0 0 -15 14 -24 66 -40 142 -43 144 -40 144 236 0 187 -2 214 -17 232 -12 14 -61 34 -143 57 -69 20 -216 63 -326 96 -111 32 -211 59 -221 59 -11 0 -27 -8 -36 -18z" style="fill: rgb(242, 200, 15);"/>
    <path d="M4820 1195 l0 -205 30 0 30 0 0 80 0 80 39 0 c116 0 189 93 145 185 -24 51 -58 65 -159 65 l-85 0 0 -205z m175 140 c46 -45 25 -116 -40 -134 -66 -18 -75 -9 -75 80 l0 79 45 0 c35 0 52 -6 70 -25z" style="fill: rgb(242, 200, 15);"/>
    <path d="M6540 1194 l0 -206 95 4 c92 3 96 4 127 36 28 27 33 40 33 78 0 39 -5 50 -34 76 l-33 30 26 27 c17 18 26 38 26 60 0 74 -43 101 -160 101 l-80 0 0 -206z m165 141 c14 -13 25 -31 25 -40 0 -9 -11 -27 -25 -40 -18 -19 -35 -25 -70 -25 l-45 0 0 65 0 65 45 0 c35 0 52 -6 70 -25z m2 -171 c46 -30 39 -105 -13 -124 -14 -6 -43 -10 -65 -10 l-39 0 0 73 c0 41 3 77 8 81 10 11 83 -2 109 -20z" style="fill: rgb(242, 200, 15);"/>
    <path d="M6870 1195 l0 -205 25 0 25 0 0 205 0 205 -25 0 -25 0 0 -205z" style="fill: rgb(242, 200, 15);"/>
    <path d="M4112 1318 c-9 -9 -12 -74 -12 -250 0 -229 1 -238 20 -248 28 -15 59 -3 71 27 14 38 11 423 -4 453 -14 28 -55 38 -75 18z" style="fill: rgb(242, 200, 15);"/>
    <path d="M5175 1270 c-42 -27 -65 -75 -65 -135 0 -116 99 -183 203 -137 98 43 115 188 32 261 -30 26 -44 31 -88 31 -35 0 -62 -7 -82 -20z m116 -30 c32 -18 52 -68 46 -118 -12 -113 -137 -131 -166 -25 -27 96 45 182 120 143z" style="fill: rgb(242, 200, 15);"/>
    <path d="M5430 1280 c0 -6 19 -74 42 -150 40 -134 43 -140 68 -140 25 0 29 7 60 105 19 58 37 105 40 105 3 0 19 -46 36 -103 30 -98 33 -102 60 -102 27 0 29 4 71 135 23 74 43 141 43 148 0 6 -11 12 -25 12 -20 0 -26 -7 -35 -42 -6 -24 -17 -63 -25 -88 -7 -25 -16 -58 -20 -75 -7 -27 -12 -17 -44 85 -33 104 -39 115 -60 115 -22 0 -28 -11 -61 -115 l-37 -115 -11 40 c-6 22 -19 74 -30 115 -17 68 -20 75 -45 78 -15 2 -27 -2 -27 -8z" style="fill: rgb(242, 200, 15);"/>
    <path d="M5947 1272 c-81 -50 -88 -200 -12 -260 54 -42 177 -40 183 4 3 19 -1 20 -56 16 -35 -2 -68 1 -81 8 -23 12 -53 68 -45 82 3 5 50 8 105 8 l99 0 0 35 c0 43 -22 88 -52 109 -30 21 -106 20 -141 -2z m122 -48 c37 -47 29 -54 -54 -54 -83 0 -91 7 -54 54 15 19 30 26 54 26 24 0 39 -7 54 -26z" style="fill: rgb(242, 200, 15);"/>
    <path d="M6208 1283 c-2 -5 -2 -72 0 -150 l4 -143 24 0 c23 0 24 2 24 85 0 108 17 153 60 161 23 5 30 12 30 30 0 33 -36 32 -72 -3 l-28 -27 0 27 c0 20 -5 27 -19 27 -11 0 -21 -3 -23 -7z" style="fill: rgb(242, 200, 15);"/>
    <path d="M3966 1258 c-13 -18 -16 -55 -16 -194 0 -159 1 -172 20 -189 16 -15 26 -17 48 -9 l27 9 3 187 c2 159 0 188 -13 202 -23 22 -51 20 -69 -6z" style="fill: rgb(242, 200, 15);"/>
    <path d="M3822 1218 c-17 -17 -17 -279 0 -296 18 -18 53 -15 71 6 24 27 25 263 1 286 -18 19 -55 21 -72 4z" style="fill: rgb(242, 200, 15);"/>
    <path d="M3676 1158 c-11 -15 -16 -46 -16 -95 0 -60 4 -77 20 -93 23 -23 33 -24 61 -10 17 9 19 22 19 103 0 59 -4 97 -12 105 -19 19 -55 14 -72 -10z" style="fill: rgb(242, 200, 15);"/>
  </g>
  <g transform="matrix(0.096462, 0, 0, 0.101961, 158.04671, 59.376862)" style="">
    <linearGradient id="a" gradientUnits="userSpaceOnUse" x1="-2901.952" y1="923.573" x2="-2061.249" y2="1420.331" gradientTransform="matrix(.1234 0 0 -.1234 1158.33 1550.273)">
      <stop offset="0" stop-color="#909ca9"/>
      <stop offset="1" stop-color="#ededee"/>
    </linearGradient>
    <path fill="url(#a)" d="M1410.773 814.195l-286.9 93.683-249.599 110.161-69.829 18.435c-17.784 16.916-36.431 34.049-56.599 51.397-22.119 19.082-42.72 36.433-58.553 49.008-17.564 13.88-43.587 39.902-56.814 56.38-19.735 24.721-35.348 50.96-42.071 71.13-11.928 36.433-6.07 73.297 16.916 107.346 29.492 43.369 88.261 87.606 156.785 117.749 34.916 15.4 93.683 35.132 137.92 46.19 73.512 18.651 215.771 38.819 294.054 41.857 15.828.65 37.082.65 37.947 0 1.737-1.088 13.881-24.289 27.979-53.129 48.142-98.238 82.838-190.402 101.703-269.119 11.276-47.706 20.166-111.246 26.019-186.492 1.521-21.036 2.169-91.514.868-115.37-1.953-39.033-5.423-70.692-10.84-101.703-.868-4.555-1.088-8.676-.652-8.892.865-.65 3.467-1.517 38.815-11.712l-7.153-16.912v-.005h.004zm-65.49 38.386c2.602 0 9.539 66.573 11.273 108.646.436 8.89.216 14.745-.216 14.745-1.733 0-36.649-20.599-61.583-36.212-21.687-13.663-62.888-40.988-69.393-46.192-2.173-1.517-1.957-1.733 15.828-7.807 30.14-10.194 101.706-33.18 104.091-33.18zm-146.161 48.143c1.953 0 6.937 2.816 18.865 10.191 44.671 27.974 105.393 61.805 131.415 73.083 8.022 3.469 8.887 2.166-9.542 14.746-39.468 26.889-88.697 53.344-148.983 80.018-10.624 4.771-19.514 8.456-19.73 8.456-.432 0 .865-5.418 2.598-11.925 14.53-54.001 22.772-108.647 23.208-152.452.216-21.687.216-21.687 2.169-22.334-.436.217-.22.217 0 .217zm-30.142 11.492c1.297 1.299.432 49.877-1.304 63.104-3.903 31.662-9.975 61.153-19.947 94.335-2.386 8.018-4.558 14.745-4.987 15.177-.872 1.083-30.581-27.975-40.339-39.251-16.916-19.518-30.141-39.035-39.9-58.117-4.988-9.759-12.793-28.84-12.144-29.492 3.469-2.385 117.753-46.622 118.621-45.756zm-141.826 55.731c.216 0 .432 0 .652.216.432.434 1.953 3.905 3.254 7.807 6.937 18.867 22.548 46.624 35.997 64.407 14.746 19.518 34.048 40.334 50.091 53.996 5.207 4.337 9.975 8.456 10.624 9.108 1.304 1.302 1.737 1.083-33.612 14.53-40.981 15.613-85.656 31.226-136.835 47.706a6825.474 6825.474 0 0 0-36.643 11.928c-1.955.652-1.303-.434 4.335-9.323 25.371-39.686 63.97-117.536 85.657-172.618 3.687-9.542 7.373-19.082 8.025-21.251.868-3.038 1.95-4.121 4.768-5.64 1.518-.43 3.038-.866 3.687-.866zm-43.367 17.999c.649.436-10.411 23.637-21.254 44.889-21.036 40.985-44.022 81.323-74.815 130.331-5.204 8.456-10.19 16.265-10.842 17.132-1.083 1.519-1.519 1.083-4.988-5.638-7.373-14.53-13.447-33.181-16.699-50.313-3.254-16.916-2.602-46.406 1.086-64.621 2.816-13.444 2.602-13.227 9.107-16.481 27.757-14.095 117.537-56.166 118.405-55.299zm374.073 15.182v9.107c0 48.359-5.204 114.716-12.797 163.077-1.301 8.456-2.389 15.393-2.602 15.613 0 0-6.288-1.733-13.661-3.905-32.527-10.193-67.875-25.156-99.754-42.718-21.038-11.494-51.612-30.363-50.743-31.231.213-.215 9.323-4.986 19.947-10.625 42.509-22.118 83.274-45.972 118.622-69.609 13.229-8.892 33.176-23.202 37.518-27.107l3.47-2.602zm-537.802 64.185c.867 0 .65 1.735-.651 9.542-.868 5.64-1.951 16.049-2.382 23.202-1.739 31.662 3.469 55.084 19.082 87.177 4.337 8.892 7.809 16.265 7.589 16.48-1.519 1.303-145.074 43.375-190.183 55.734-13.444 3.685-25.152 6.939-26.024 7.153-1.515.436-1.733.22-1.083-3.47 4.987-31.875 29.276-73.512 63.104-108.644 22.554-23.419 40.554-37.08 71.347-54.648 22.119-12.575 56.165-31.439 58.767-32.309.002-.217.218-.217.434-.217zm338.295 60.503c.216-.216 5.42 2.605 11.708 6.29 46.408 26.891 111.03 51.83 166.108 64.623l4.991 1.086-6.941 3.899c-28.84 16.049-123.606 55.515-220.538 91.732-14.098 5.202-27.975 10.409-30.581 11.492-2.602 1.083-4.988 1.735-4.988 1.519 0-.22 3.906-7.809 8.89-17.132 27.107-50.744 54.433-112.547 68.311-155.485 1.739-4.12 2.82-7.805 3.04-8.024zm-34.48 11.278c.22.221-1.517 4.771-3.687 9.975-18.865 45.756-43.59 95.636-75.249 151.583-8.022 14.314-14.746 25.808-14.966 25.808-.213 0-6.721-3.906-14.527-8.676-45.976-28.192-86.743-62.888-113.414-96.501l-3.905-4.771 19.732-5.422c70.696-19.298 130.762-40.116 190.4-65.704 8.459-3.471 15.4-6.292 15.616-6.292zm214.253 74.815s.217.217 0 0c.216 4.988-10.844 49.661-19.953 81.969-7.589 27.107-14.098 48.361-26.022 85.874-5.204 16.485-9.755 30.143-9.975 30.143-.216 0-1.517-.216-2.818-.647-64.405-11.714-122.089-27.977-176.303-49.661-15.182-6.074-36.866-15.833-38.167-16.916-.432-.438 12.58-6.506 29.06-13.663 98.669-43.154 201.024-92.164 236.153-113.196 4.119-2.603 7.373-3.903 8.025-3.903zm-494.646 16.916c.434.432-27.107 40.118-65.709 94.114-13.444 18.867-29.057 40.985-34.911 49.225-5.856 8.241-14.746 21.253-19.734 29.06l-9.112 14.096-9.759-8.24c-11.494-9.544-31.442-29.927-40.333-41.204-18.651-23.201-31.226-47.706-36.214-70.04-2.386-10.411-2.386-15.618-.22-16.265 3.252-.867 61.153-14.53 115.37-27.11 30.143-6.937 65.054-15.177 77.632-18.213 12.579-3.041 22.774-5.423 22.99-5.423zm27.756 10.626l6.937 7.806c31.231 34.914 63.108 60.724 101.708 83.272 6.941 3.906 12.144 7.373 11.708 7.594-1.514 1.083-134.016 48.136-195.385 69.389-34.478 12.143-62.888 21.901-63.102 21.901-.216 0-2.169-1.299-4.341-2.818l-3.901-2.82 6.288-9.106c20.383-29.493 45.976-61.803 101.707-129.028l38.381-46.19zm173.053 123.822c.213-.215 9.755 3.252 21.464 7.594 28.195 10.624 50.527 17.345 80.456 24.936 36.866 9.326 90.211 18.434 121.657 21.035 4.771.432 7.373.868 6.505 1.519-1.521.868-33.395 11.494-56.816 18.867-37.302 11.708-151.149 45.32-243.962 71.995-17.132 4.987-31.879 9.108-32.746 9.323-2.166.436-9.325-1.519-9.325-2.386 0-.431 5.204-7.153 11.494-14.527 31.225-37.3 62.238-78.935 88.044-118.403 7.154-10.846 13.229-19.736 13.229-19.953zm-38.17 1.087c.216.216-15.179 24.936-42.066 67.439-11.496 17.999-24.291 38.383-28.846 45.54-4.337 6.939-10.842 17.784-14.527 23.854l-6.29 11.061-3.252-.868c-7.809-2.169-62.672-21.471-77.202-27.325-18-7.157-36.649-15.829-50.529-23.202-17.346-9.326-39.03-23.206-37.297-23.637.433-.216 30.143-8.243 65.922-17.999 94.984-25.809 147.678-40.77 182.161-51.612 6.29-1.952 11.71-3.471 11.926-3.251zm269.985 63.318h.216c.868 2.171-34.26 99.755-47.06 130.547-2.815 6.939-3.896 8.677-5.417 8.456-3.687-.213-54.646-7.37-85.66-11.925-53.994-8.24-144.641-24.073-167.409-29.275l-5.204-1.083 32.307-7.378c69.396-15.613 102.791-24.069 136.619-34.478 42.722-13.011 85.011-29.276 127.729-49.225 6.722-3.037 12.361-5.422 13.879-5.639z"/>
    <linearGradient id="b" gradientUnits="userSpaceOnUse" x1="-2882.7" y1="10288.81" x2="-2206.249" y2="10288.81" gradientTransform="matrix(.1234 0 0 -.1234 1158.33 1550.273)">
      <stop offset="0" stop-color="#939fab"/>
      <stop offset="1" stop-color="#dcdee1"/>
    </linearGradient>
    <path fill="url(#b)" d="M1114.983 145.414c-4.771-.647-81.757 27.11-131.415 47.275-67.01 27.327-119.052 53.351-151.148 75.899-11.925 8.461-26.891 23.422-29.273 29.276-.867 2.169-1.303 4.771-1.303 7.373l29.06 27.541 69.175 22.119 164.594 29.493 188.228 32.312 1.953-16.264c-.649 0-1.085-.216-1.73-.216l-24.728-3.905-4.984-8.89c-25.59-45.107-53.781-101.056-70.261-138.789-12.793-29.276-24.938-63.102-31.662-87.391-3.687-14.746-4.119-15.613-6.501-15.829v-.005h-.005zm-3.474 11.063h.223c.213.214 1.081 6.29 1.95 13.442 3.683 30.364 10.411 59.635 21.035 91.297 8.022 23.855 8.022 22.555-1.301 19.734-22.119-6.07-121.221-23.202-193-33.177-11.494-1.519-21.253-3.036-21.253-3.252-.867-.867 51.827-28.41 75.031-39.25 29.709-13.665 111.246-47.711 117.315-48.794zm-209.047 97.15l8.461 2.816c45.97 15.616 161.551 37.736 225.31 42.94 7.154.651 13.229 1.303 13.442 1.303.216.216-5.852 3.469-13.661 7.154-30.79 15.397-64.621 34.264-88.042 48.794-6.937 4.335-13.229 7.807-14.094 7.807-.868 0-5.42-.868-10.191-1.519l-8.674-1.303-21.683-21.253c-38.167-37.08-68.094-65.704-79.588-76.549l-11.28-10.19zm-8.671 6.721l30.576 38.168c16.696 21.035 33.611 41.635 37.301 46.187 3.683 4.557 6.721 8.245 6.505 8.461-.868.65-44.236-7.809-67.226-13.011-23.637-5.423-33.395-8.025-47.924-12.577l-11.928-3.905v-3.038c.216-14.53 18.651-36.214 49.877-58.331l2.819-1.954zm259.791 52.046c.869 0 1.95 1.951 4.552 7.806 7.373 16.263 30.364 60.07 35.997 68.526 1.74 2.822 4.771 3.038-25.802-1.95-73.512-11.93-97.152-15.829-97.152-16.263 0-.216 2.169-1.735 4.988-3.254 22.771-12.575 45.756-28.624 66.142-45.756 4.988-4.121 9.542-8.024 10.407-8.676.216-.433.652-.649.868-.433z"/>
    <radialGradient id="c" cx="-14217.448" cy="7277.705" r="898.12" gradientTransform="matrix(-.1185 -.0178 -.036 .237 -198.955 -1314.415)" gradientUnits="userSpaceOnUse">
      <stop offset="0" stop-color="#ee352c"/>
      <stop offset="1" stop-color="#a91d22"/>
    </radialGradient>
    <path fill="url(#c)" d="M804.66 294.828s-4.768 7.593-.215 18.87c2.822 6.937 11.061 15.393 20.384 24.069 0 0 96.5 94.114 108.211 107.561 53.344 61.585 76.549 122.305 78.718 206.012 1.301 53.78-8.894 101.054-34.264 155.919-45.106 98.453-140.307 207.098-287.117 327.67l21.472-7.157c13.878-10.411 32.745-21.467 76.982-45.756 102.137-55.952 217.071-107.346 358.028-160.258 202.971-76.335 536.715-165.681 726.676-194.736l19.737-3.038-3.038-4.771c-17.345-26.891-29.276-43.587-43.59-61.369-41.633-51.612-92.157-93.463-153.964-128.161-85.007-47.489-194.956-84.571-334.173-112.112-26.239-5.207-83.923-15.181-130.763-22.337-99.321-15.393-163.51-26.021-234.203-38.165-25.37-4.339-63.323-10.843-88.478-16.263-13.011-2.822-37.947-8.676-57.464-15.398-15.613-6.075-38.168-12.147-42.939-30.58zm55.952 54.216c.214-.214 3.683 1.083 8.24 2.602 8.24 2.816 18.865 6.07 31.446 9.542a1599.47 1599.47 0 0 0 28.624 7.589c13.011 3.251 23.852 6.288 24.068 6.288 1.521 1.519 23.424 71.558 30.797 98.449 2.815 10.195 4.988 18.867 4.771 18.867-.223.22-2.605-3.469-5.423-8.456-25.373-44.673-65.491-89.995-111.899-126.428-6.069-4.333-10.624-8.237-10.624-8.453zm106.692 29.492c1.085 0 5.856.651 11.708 1.951 36.866 8.24 103.008 20.818 145.293 27.975 7.157 1.083 12.797 2.387 12.797 2.818 0 .436-2.605 1.951-5.859 3.688-7.153 3.685-35.997 20.815-45.536 27.322-24.073 16.047-45.756 33.395-61.371 49.008-6.288 6.29-11.712 11.494-11.712 11.494s-1.297-3.685-2.386-8.242c-7.802-30.143-24.069-74.816-38.815-106.258-2.386-4.986-4.339-9.541-4.339-9.973 0 .433 0 .217.22.217zm187.795 35.781c1.301.432 3.47 7.806 7.806 24.069 8.025 31.446 11.712 66.576 10.411 99.321-.436 9.108-.868 17.564-1.304 18.651l-.649 2.166-11.276-3.685c-23.204-7.373-60.935-18.435-93.245-27.541-18.436-4.988-33.395-9.542-33.395-9.975 0-1.303 26.891-28.192 38.383-38.383 21.898-19.303 81.316-65.275 83.269-64.623zm14.963 2.166c.652-.647 89.779 14.746 130.331 22.554 30.145 5.854 73.948 14.963 76.549 16.049 1.301.432-3.254 3.034-17.784 9.539-57.248 25.808-99.754 49.008-142.036 77.202-11.06 7.373-20.386 13.444-20.602 13.444-.216 0-.433-6.287-.433-13.878 0-41.201-8.241-82.838-23.424-117.968-1.517-3.47-2.818-6.722-2.601-6.942zm230.516 45.542c.652.65-2.169 18.217-4.771 28.624-7.806 32.312-28.84 80.24-54.643 125.343-4.558 8.024-8.677 14.53-9.114 14.746-.429.216-6.285-3.038-13.009-6.941-25.154-14.746-53.778-28.624-85.007-41.637-8.671-3.685-16.263-6.723-16.48-7.153-1.521-1.303 68.308-47.493 105.174-69.612 29.276-17.781 76.982-44.239 77.85-43.37zm16.48 2.601c1.953 0 41.421 10.844 62.019 16.916 50.963 15.181 109.512 36.648 147.679 53.996l15.828 7.159-11.056 2.6c-93.245 21.467-173.049 46.192-250.034 77.418-6.289 2.602-11.928 4.771-12.357 4.771-.436 0 1.733-4.987 4.552-11.061 23.204-49.225 38.167-100.62 41.85-144.427.221-4.121.867-7.372 1.519-7.372zm-392.938 90.213c.649-.652 30.793 6.506 47.057 11.056 24.721 6.942 77.198 24.505 77.198 25.808 0 .216-5.853 5.204-12.79 11.278-28.408 23.637-55.734 48.572-88.481 80.234-9.759 9.328-17.997 16.917-18.429 16.917-.436 0-.649-1.304-.436-3.038 4.987-36.433 3.906-83.272-3.034-130.763-.653-6.074-1.302-11.276-1.085-11.492zm633.433.652c.429.431-13.881 22.984-22.988 35.777-13.009 18.649-32.098 43.375-75.252 97.588-22.765 28.622-48.358 60.936-56.812 71.778-8.678 10.842-15.831 19.948-16.051 19.948-.216 0-3.031-3.901-6.069-8.671-24.289-36.433-53.349-68.311-87.829-96.935-6.505-5.423-13.658-11.278-16.044-13.013-2.386-1.734-4.339-3.469-4.339-3.685 0-.649 36.862-16.483 64.841-27.757 49.01-19.952 115.794-43.805 165.892-59.203 26.24-8.239 54.215-16.263 54.651-15.827zm16.696 4.334c.865-.215 6.072 2.387 12.361 6.07 52.697 30.143 104.305 68.962 145.077 108.864 11.492 11.278 39.9 40.77 39.464 40.986 0 0-9.975.867-21.683 1.733-91.296 6.942-208.178 26.239-320.511 53.345-7.589 1.733-14.31 3.252-14.746 3.252-.429 0 8.025-8.456 18.653-18.647 65.922-63.538 96.067-103.656 131.628-175.22 4.986-10.623 9.325-19.731 9.757-20.383-.216 0-.216 0 0 0zm-482.936 49.446c3.038.647 31.229 13.88 52.48 24.503 19.517 9.755 48.794 25.372 50.311 26.671.216.216-10.195 5.638-22.984 11.928-40.772 20.384-75.684 39.682-112.118 61.802-10.408 6.29-19.082 11.497-19.298 11.497-.868 0-.652-.872 5.204-11.497 19.518-35.561 35.129-78.065 44.023-119.486.864-3.252 1.733-5.418 2.382-5.418zm-28.192 5.202c.652.652-6.721 27.323-11.273 41.853-8.894 27.541-23.856 62.02-38.383 88.043-3.474 6.069-8.677 14.961-11.496 19.948l-5.42 8.674-12.144-11.707c-14.094-13.663-25.59-22.12-40.333-29.712-5.859-3.033-10.411-5.638-10.411-6.069 0-1.735 37.082-35.347 65.49-59.635 20.383-17.566 63.321-52.045 63.97-51.395zm172.404 70.913l10.627 6.937c24.282 15.833 52.906 36.866 74.813 55.298 12.357 10.19 36.21 31.662 40.985 36.866l2.598 2.822-17.561 4.986c-99.321 27.538-176.087 52.043-265.649 85.007-9.975 3.685-18.433 6.721-19.085 6.721-1.297 0-2.385 1.083 19.954-19.519 57.251-52.691 107.992-110.812 145.726-167.411l7.592-11.707zm-45.324 11.276c.432.432-29.276 42.284-47.06 65.922-21.251 28.192-58.985 75.465-85.007 106.256-10.84 12.797-20.163 23.422-20.599 23.64-.652.216-.868-3.036-.868-8.024 0-26.242-6.721-54.216-18.433-78.068-4.988-9.975-5.856-12.361-4.768-13.444 4.119-3.688 67.223-39.686 107.123-61.153 26.89-14.312 68.956-35.563 69.612-35.129zm-274.107 67.225c.652 0 5.64 2.6 11.279 5.638 13.878 7.589 26.239 16.046 37.298 25.156.432.432-5.204 4.988-12.577 10.406-20.602 14.746-51.828 38.385-70.041 52.915-19.088 15.18-19.734 15.613-17.568 12.361 14.314-21.903 21.467-34.264 29.06-50.093 6.721-14.094 13.442-30.793 18.213-45.323 1.734-6.289 3.904-11.06 4.336-11.06zm73.083 57.248c1.081-.214 2.386 1.735 8.238 10.411 12.361 18.429 21.903 43.154 24.292 63.104l.429 4.339-29.705 11.494c-53.133 20.599-102.139 40.985-135.322 56.162-9.322 4.339-25.587 12.144-36.211 17.352-10.627 5.418-19.301 9.539-19.301 9.323s6.721-5.204 14.961-11.278c64.844-47.055 121.007-98.669 163.076-150.279 4.555-5.423 8.677-10.411 9.107-10.627l.436-.001zm-33.612 8.242c.868.867-23.853 28.84-40.768 45.971-41.853 42.723-83.273 76.12-134.669 108.649-6.505 4.119-12.359 7.804-13.011 8.24-1.519.867.432-1.303 22.986-25.808 14.314-15.397 25.155-28.408 37.516-44.453 8.24-10.624 9.759-12.143 21.688-20.604 31.878-22.987 105.39-72.864 106.258-71.995z"/>
  </g>
  <path fill="#231F1F" d="M 169.287 235.494 C 168.901 235.494 168.515 235.533 168.132 235.533 C 160.338 235.971 155.082 239.597 152.008 246.677 C 149.38 253.081 149.667 261.452 152.038 267.894 C 154.795 274.189 159.25 277.511 166.688 278.766 C 168.261 279.039 169.316 279.953 172.365 283.714 L 176.114 288.357 L 182.915 288.357 L 178.392 283.538 C 175.893 280.897 173.871 278.594 173.871 278.393 C 173.871 278.19 174.827 277.749 175.986 277.376 C 179.801 276.155 182.969 273.039 185.187 268.263 C 186.98 264.428 187.239 263.241 187.496 258.471 C 188.168 244.268 181.085 235.389 169.287 235.489 L 169.287 235.494 Z M 175.249 272.635 C 171.94 274.33 167.137 274.667 164.001 273.451 C 160.758 272.192 157.619 268.632 156.207 264.604 C 154.636 260.197 154.861 252.068 156.654 248.407 C 159.541 242.578 163.358 239.896 168.934 239.896 C 177.205 239.896 181.912 245.252 182.525 255.315 C 183.01 263.717 180.35 270.02 175.253 272.631 L 175.249 272.635 Z M 292.739 247.626 C 289.884 247.626 287.702 248.846 286.231 251.25 L 285.076 253.155 L 285.076 248.204 L 280.139 248.204 L 280.139 277.893 L 285.072 277.893 L 285.072 268.403 C 285.072 259.726 285.176 258.711 286.322 256.336 C 287.903 253.081 290.622 251.457 293.252 252.234 L 295.017 252.779 L 295.017 247.633 L 292.739 247.633 L 292.739 247.626 Z M 263.732 247.353 C 262.765 247.353 261.738 247.489 260.717 247.727 C 254.11 249.551 250.387 256.237 250.614 263.114 C 250.614 268.874 251.673 271.752 254.302 274.773 C 259.688 279.444 264.559 279.816 271.132 277.309 C 272.254 276.805 273.473 276.222 273.473 276.222 L 273.473 271.551 L 271.132 272.832 C 265.812 275.282 261.804 275.282 258.595 272.398 C 256.549 270.194 255.647 267.552 255.233 264.537 L 275.138 264.537 L 275.138 260.535 C 275.138 252.374 270.492 247.222 263.726 247.353 L 263.732 247.353 Z M 255.68 260.37 C 255.68 260.37 256.415 255.28 259.143 253.283 C 260.457 252.304 261.963 251.83 263.438 251.83 C 264.916 251.83 266.39 252.336 267.606 253.318 C 270.107 255.35 270.524 260.333 270.524 260.333 L 255.68 260.333 L 255.68 260.37 Z M 136.653 255.016 C 131.299 251.588 128.926 249.118 129.214 246.204 C 130.045 238.14 139.473 239.255 144.691 242.305 L 144.729 236.881 C 144.729 236.881 141.842 235.561 137.708 235.489 C 131.361 235.389 127.259 237.588 125.337 242.065 C 122.513 248.671 125.012 253.652 134.05 259.209 C 139.124 262.329 141.365 265.038 141.365 267.991 C 141.365 274.091 134.406 276.222 127.227 272.395 C 125.749 271.617 124.499 270.968 124.433 270.968 C 124.174 272.697 124.308 276.835 124.308 276.835 C 124.308 276.835 126.513 277.815 129.822 278.491 C 138.027 280.219 145.494 276.152 146.2 269.544 C 146.815 263.345 144.691 260.092 136.653 255.013 L 136.653 255.016 Z M 336.434 247.282 C 335.471 247.282 334.448 247.423 333.382 247.659 C 326.784 249.487 323.066 256.17 323.321 263.049 C 323.321 268.8 324.375 271.653 327.005 274.667 C 332.391 279.342 337.261 279.719 343.869 277.21 C 344.985 276.704 346.202 276.13 346.202 276.13 L 346.202 271.451 L 343.863 272.74 C 338.534 275.181 334.527 275.181 331.328 272.297 C 329.269 270.098 328.376 267.487 327.96 264.436 L 347.835 264.436 L 347.835 260.433 C 347.835 252.312 343.188 247.155 336.424 247.292 L 336.434 247.282 Z M 328.383 260.302 C 328.383 260.302 329.126 255.218 331.849 253.181 C 333.159 252.199 334.666 251.724 336.14 251.724 C 337.611 251.724 339.092 252.23 340.31 253.216 C 342.81 255.249 343.229 260.265 343.229 260.265 L 328.386 260.265 L 328.383 260.302 Z M 237.888 255.083 C 232.534 251.664 230.166 249.184 230.453 246.269 C 231.284 238.201 240.71 239.322 245.93 242.372 L 245.967 236.947 C 245.967 236.947 243.081 235.625 238.945 235.563 C 232.6 235.463 228.497 237.662 226.572 242.139 C 223.751 248.745 226.285 253.726 235.292 259.283 C 240.357 262.399 242.6 265.073 242.6 268.027 C 242.6 274.126 235.645 276.292 228.465 272.428 C 226.994 271.651 225.745 271.01 225.67 271.01 C 225.413 272.74 225.545 276.879 225.545 276.879 C 225.545 276.879 227.725 277.823 231.024 278.533 C 239.235 280.267 246.706 276.202 247.41 269.596 C 248.02 263.424 245.902 260.173 237.888 255.09 L 237.888 255.083 Z M 365.445 247.556 C 362.592 247.556 360.381 248.778 358.937 251.185 L 357.782 253.081 L 357.782 248.137 L 352.845 248.137 L 352.845 277.819 L 357.778 277.819 L 357.778 268.329 C 357.778 259.656 357.878 258.639 359.03 256.268 C 360.61 253.015 363.33 251.387 365.958 252.168 L 367.723 252.712 L 367.723 247.556 L 365.445 247.556 Z M 198.624 254.911 L 198.624 236.002 L 193.646 236.002 L 193.646 277.885 L 214.581 277.885 L 214.581 272.939 L 198.624 272.939 L 198.624 254.911 Z M 313.737 260.806 L 309.635 272.09 L 305.689 260.743 L 301.681 248.169 L 296.586 248.169 C 299.888 258.063 303.48 268.128 307.101 277.885 C 308.67 277.924 310.244 277.885 311.813 277.885 L 317.354 263.18 L 322.997 248.172 L 318.126 248.172 C 318.126 248.172 315.974 254.134 313.733 260.81 L 313.737 260.806 Z M 210.093 224.589 C 210.895 224.589 211.564 224.317 212.115 223.736 C 212.66 223.16 212.947 222.484 212.947 221.637 C 212.947 220.789 212.66 220.082 212.115 219.538 C 211.564 218.995 210.927 218.722 210.131 218.722 C 209.321 218.722 208.653 218.995 208.109 219.569 C 207.558 220.145 207.307 220.852 207.307 221.668 C 207.307 222.523 207.565 223.23 208.109 223.765 C 208.622 224.31 209.293 224.581 210.093 224.581 L 210.093 224.589 Z M 208.33 219.772 C 208.808 219.266 209.389 219.034 210.131 219.034 C 210.829 219.034 211.411 219.266 211.896 219.772 C 212.373 220.276 212.632 220.891 212.632 221.637 C 212.632 222.383 212.373 223.029 211.896 223.533 C 211.411 224.037 210.829 224.279 210.131 224.279 C 209.421 224.279 208.843 224.046 208.366 223.533 C 207.888 223.029 207.631 222.383 207.631 221.637 C 207.631 220.891 207.85 220.276 208.33 219.772 Z M 209.517 221.908 L 209.84 221.908 C 210.068 221.908 210.293 222.143 210.484 222.584 L 210.87 223.501 L 211.477 223.501 L 210.999 222.484 C 210.804 222.076 210.612 221.838 210.387 221.771 C 210.671 221.701 210.895 221.602 211.058 221.399 C 211.218 221.225 211.279 220.987 211.279 220.719 C 211.279 220.409 211.186 220.175 210.992 220.005 C 210.771 219.809 210.418 219.706 209.961 219.706 L 208.94 219.706 L 208.94 223.501 L 209.455 223.501 L 209.455 221.908 L 209.517 221.908 Z M 209.517 220.145 L 209.965 220.145 C 210.289 220.145 210.517 220.213 210.642 220.315 C 210.763 220.416 210.796 220.549 210.796 220.789 C 210.796 221.229 210.539 221.434 210.061 221.434 L 209.51 221.434 L 209.51 220.145 L 209.517 220.145 Z M 127.293 221.57 C 127.293 220.25 127.255 219.266 127.227 218.686 L 127.255 218.686 C 127.384 219.371 127.542 219.881 127.671 220.219 L 132.45 231.503 L 133.251 231.503 L 138.031 220.117 C 138.159 219.807 138.287 219.34 138.446 218.69 L 138.482 218.69 C 138.387 219.818 138.353 220.797 138.353 221.578 L 138.353 231.538 L 139.988 231.538 L 139.988 216.731 L 137.938 216.731 L 133.545 227.031 C 133.383 227.438 133.16 228.049 132.873 228.855 L 132.807 228.855 C 132.711 228.457 132.486 227.846 132.167 227.1 L 127.872 216.698 L 125.692 216.698 L 125.692 231.503 L 127.266 231.503 L 127.266 221.578 L 127.293 221.57 Z M 143.574 221.598 L 144.987 221.598 L 144.987 230.82 L 143.574 230.82 L 143.574 221.598 Z M 144.28 218.218 C 144.575 218.218 144.825 218.112 145.016 217.907 C 145.21 217.704 145.339 217.44 145.339 217.13 C 145.339 216.825 145.244 216.554 145.019 216.353 C 144.821 216.146 144.567 216.041 144.278 216.041 C 143.991 216.041 143.732 216.146 143.541 216.353 C 143.347 216.554 143.219 216.825 143.219 217.13 C 143.219 217.466 143.317 217.704 143.541 217.907 C 143.762 218.112 143.991 218.218 144.278 218.218 L 144.28 218.218 Z M 155.051 231.021 L 155.051 229.396 C 154.279 230.007 153.449 230.31 152.589 230.31 C 151.561 230.31 150.724 229.937 150.115 229.223 C 149.509 228.516 149.184 227.532 149.184 226.308 C 149.184 225.025 149.509 224.007 150.177 223.23 C 150.821 222.484 151.655 222.111 152.678 222.111 C 153.511 222.111 154.313 222.383 155.051 222.927 L 155.051 221.199 C 154.379 220.824 153.611 220.655 152.743 220.655 C 151.14 220.655 149.89 221.199 148.958 222.248 C 148.031 223.296 147.553 224.724 147.553 226.444 C 147.553 227.975 147.968 229.262 148.833 230.246 C 149.733 231.255 150.883 231.769 152.295 231.769 C 153.386 231.736 154.279 231.496 155.051 231.021 Z M 159.091 226.106 C 159.091 224.89 159.35 223.906 159.828 223.23 C 160.277 222.619 160.821 222.312 161.463 222.312 C 162.008 222.312 162.393 222.418 162.677 222.654 L 162.677 220.891 C 162.456 220.789 162.136 220.754 161.721 220.754 C 161.143 220.754 160.63 220.959 160.177 221.338 C 159.699 221.738 159.318 222.348 159.093 223.125 L 159.056 223.125 L 159.056 220.959 L 157.456 220.959 L 157.456 231.529 L 159.059 231.529 L 159.059 226.106 L 159.091 226.106 Z M 168.294 231.739 C 169.801 231.739 171.015 231.226 171.915 230.209 C 172.812 229.199 173.26 227.838 173.26 226.143 C 173.26 224.415 172.85 223.093 172.01 222.111 C 171.181 221.127 170.026 220.653 168.517 220.653 C 167.011 220.653 165.797 221.127 164.896 222.045 C 163.934 223.055 163.425 224.48 163.425 226.311 C 163.425 227.905 163.837 229.227 164.706 230.209 C 165.602 231.226 166.79 231.736 168.294 231.736 L 168.294 231.739 Z M 166.014 223.128 C 166.626 222.449 167.426 222.111 168.419 222.111 C 169.448 222.111 170.22 222.449 170.794 223.128 C 171.372 223.839 171.659 224.855 171.659 226.21 C 171.659 227.5 171.4 228.514 170.856 229.195 C 170.313 229.906 169.51 230.283 168.453 230.283 C 167.423 230.283 166.626 229.906 166.014 229.195 C 165.408 228.481 165.117 227.5 165.117 226.21 C 165.055 224.929 165.374 223.88 166.014 223.128 Z M 180.279 230.82 C 180.888 230.244 181.213 229.537 181.213 228.65 C 181.213 227.873 180.956 227.229 180.477 226.719 C 180.088 226.311 179.485 225.942 178.613 225.569 C 177.842 225.228 177.364 224.925 177.107 224.687 C 176.848 224.415 176.692 224.077 176.692 223.599 C 176.692 223.16 176.852 222.822 177.169 222.549 C 177.492 222.277 177.904 222.146 178.457 222.146 C 179.319 222.146 180.058 222.386 180.735 222.896 L 180.735 221.201 C 180.088 220.859 179.385 220.697 178.585 220.697 C 177.556 220.697 176.688 220.996 176.048 221.574 C 175.374 222.15 175.055 222.896 175.055 223.775 C 175.055 224.552 175.274 225.196 175.695 225.671 C 176.048 226.075 176.651 226.487 177.489 226.856 C 178.289 227.229 178.835 227.567 179.123 227.838 C 179.41 228.111 179.541 228.449 179.541 228.848 C 179.541 229.836 178.901 230.345 177.649 230.345 C 176.686 230.345 175.823 230.011 175.05 229.335 L 175.05 231.161 C 175.748 231.604 176.588 231.806 177.513 231.806 C 178.701 231.739 179.631 231.433 180.272 230.823 L 180.279 230.82 Z M 187.911 220.653 C 186.403 220.653 185.19 221.127 184.29 222.045 C 183.334 223.055 182.819 224.482 182.819 226.311 C 182.819 227.905 183.235 229.227 184.099 230.209 C 185 231.228 186.183 231.736 187.69 231.736 C 189.234 231.736 190.411 231.224 191.313 230.205 C 192.211 229.195 192.66 227.834 192.66 226.14 C 192.66 224.412 192.242 223.09 191.411 222.108 C 190.542 221.123 189.389 220.649 187.918 220.649 L 187.911 220.653 Z M 191.02 226.21 C 191.02 227.5 190.764 228.514 190.22 229.195 C 189.676 229.906 188.874 230.283 187.815 230.283 C 186.786 230.283 185.987 229.906 185.378 229.195 C 184.771 228.481 184.481 227.5 184.481 226.21 C 184.481 224.851 184.802 223.802 185.444 223.093 C 186.05 222.418 186.852 222.076 187.849 222.076 C 188.842 222.076 189.639 222.418 190.216 223.093 C 190.73 223.839 191.018 224.855 191.018 226.21 L 191.02 226.21 Z M 195.353 231.499 L 196.952 231.499 L 196.952 222.348 L 199.293 222.348 L 199.293 220.926 L 196.952 220.926 L 196.952 219.294 C 196.952 217.81 197.496 217.064 198.621 217.064 C 198.998 217.064 199.384 217.163 199.672 217.335 L 199.672 215.808 C 199.384 215.673 198.998 215.642 198.517 215.642 C 197.652 215.642 196.948 215.913 196.371 216.488 C 195.697 217.165 195.34 218.042 195.34 219.233 L 195.34 220.965 L 193.65 220.965 L 193.65 222.386 L 195.34 222.386 L 195.34 231.505 L 195.353 231.499 Z M 201.921 228.615 C 201.921 230.683 202.785 231.736 204.55 231.736 C 205.19 231.736 205.672 231.628 206.057 231.387 L 206.057 229.934 C 205.763 230.166 205.415 230.275 205.028 230.275 C 204.484 230.275 204.101 230.139 203.878 229.832 C 203.65 229.529 203.522 229.016 203.522 228.309 L 203.522 222.344 L 206.057 222.344 L 206.057 220.922 L 203.522 220.922 L 203.522 217.806 C 202.969 218.007 202.429 218.179 201.917 218.349 L 201.917 220.922 L 200.189 220.922 L 200.189 222.344 L 201.917 222.344 L 201.917 228.612 L 201.921 228.615 Z M 373.974 248.099 C 373.43 247.556 372.786 247.282 371.988 247.282 C 371.18 247.282 370.51 247.556 369.966 248.137 C 369.422 248.71 369.164 249.42 369.164 250.236 C 369.164 251.084 369.422 251.791 369.962 252.336 C 370.506 252.878 371.175 253.152 371.984 253.152 C 372.781 253.152 373.455 252.878 374.006 252.304 C 374.546 251.721 374.833 251.049 374.833 250.205 C 374.803 249.35 374.512 248.643 373.968 248.1 L 373.974 248.099 Z M 373.717 252.103 C 373.237 252.607 372.658 252.84 371.952 252.84 C 371.253 252.84 370.672 252.607 370.187 252.103 C 369.709 251.588 369.451 250.947 369.451 250.198 C 369.451 249.459 369.672 248.846 370.157 248.333 C 370.634 247.827 371.212 247.594 371.952 247.594 C 372.649 247.594 373.23 247.827 373.717 248.333 C 374.193 248.846 374.452 249.459 374.452 250.198 C 374.452 250.982 374.23 251.588 373.717 252.103 Z M 372.275 250.373 C 372.562 250.303 372.79 250.166 372.947 250 C 373.109 249.825 373.168 249.587 373.168 249.315 C 373.168 249.012 373.077 248.772 372.883 248.604 C 372.662 248.411 372.305 248.305 371.852 248.305 L 370.831 248.305 L 370.831 252.097 L 371.346 252.097 L 371.346 250.504 L 371.665 250.504 C 371.886 250.504 372.105 250.737 372.305 251.18 L 372.687 252.094 L 373.298 252.094 L 372.82 251.075 C 372.654 250.633 372.464 250.43 372.268 250.364 L 372.275 250.373 Z M 371.922 250.031 L 371.371 250.031 L 371.371 248.748 L 371.824 248.748 C 372.143 248.748 372.367 248.811 372.496 248.916 C 372.624 249.016 372.654 249.149 372.654 249.389 C 372.654 249.828 372.396 250.031 371.918 250.031 L 371.922 250.031 Z M 282.48 220.487 L 282.929 220.487 L 282.929 216.689 L 284.117 216.689 L 284.117 216.216 L 281.293 216.216 L 281.293 216.689 L 282.482 216.689 L 282.482 220.487 L 282.48 220.487 Z M 285.201 217.634 C 285.201 217.265 285.201 216.962 285.176 216.79 C 285.204 216.993 285.272 217.13 285.301 217.23 L 286.679 220.487 L 286.9 220.487 L 288.281 217.198 C 288.319 217.099 288.349 216.966 288.41 216.79 C 288.381 217.13 288.381 217.4 288.381 217.608 L 288.381 220.483 L 288.859 220.483 L 288.859 216.216 L 288.281 216.216 L 287.032 219.161 C 287.003 219.266 286.903 219.473 286.841 219.706 L 286.803 219.706 C 286.779 219.569 286.713 219.432 286.62 219.2 L 285.37 216.216 L 284.723 216.216 L 284.723 220.49 L 285.176 220.49 L 285.176 217.638 L 285.201 217.634 Z" style=""/>
</svg>