<svg xmlns="http://www.w3.org/2000/svg" width="915" height="239" style=""><rect id="backgroundrect" width="100%" height="100%" x="0" y="0" fill="none" stroke="none"/>
  
<g class="currentLayer" style=""><title>Layer 1</title><rect fill="#ebeb1a" stroke-dashoffset="" fill-rule="nonzero" id="svg_16" x="-1" y="0" width="916" height="239" style="color: rgb(0, 0, 0);" class=""/><g fill="#000000" stroke="none" id="svg_1" class="" fill-opacity="1">
    <path d="M23.296790315078738,12.011905745052331 c-5,1.9000000000000001 -8.9,5.6000000000000005 -11.8,11.3 c-2.2,4.5 -2.2,5.5 -2.5,43.6 c-0.3000000000000003,43.1 -0.2,43.800000000000004 5.5,44.300000000000004 c6.300000000000001,0.6000000000000006 6.300000000000001,0.4 6.300000000000001,-43.400000000000006 c0,-37.4 0.1,-39.2 2,-41.6 c1,-1.4000000000000001 3.3000000000000003,-3.1 5,-3.8000000000000003 c3.7,-1.5 3.4000000000000004,-1.6 62,16.400000000000002 c2.5,0.8 21.8,6.7 43,13.100000000000001 c65.4,19.8 62.5,18.8 64.8,23.200000000000003 c0.9,1.6 1.2000000000000002,17.7 1.2000000000000002,59.1 c0,55.6 0,57 -2,59.5 c-1.1,1.4000000000000001 -3.6,3.1 -5.6000000000000005,3.7 c-3.1,1.1 -4.6000000000000005,0.8 -13,-2 c-11.3,-3.8000000000000003 -15.4,-3.7 -16.8,0.3000000000000003 c-1.6,4.4 0.1,5.9 11,9.600000000000001 c13,4.5 19.900000000000002,4.7 26.700000000000003,0.8 c2.6,-1.5 6,-4.7 7.5,-6.9 l2.7,-4.2 l0.3000000000000003,-59 c0.2,-41.2 0,-60.300000000000004 -0.8,-62.900000000000006 c-1.4000000000000001,-4.9 -6.9,-10.9 -11.700000000000001,-13 c-2.1,-0.8 -17.5,-5.7 -34.300000000000004,-10.8 c-31.5,-9.4 -60.300000000000004,-18.2 -103.4,-31.3 c-13.600000000000001,-4.2 -26.5,-7.6000000000000005 -28.5,-7.5 c-2,0 -5.4,0.7000000000000006 -7.6000000000000005,1.5 z" style="stroke-width: 0px; paint-order: fill;" stroke-width="0" id="svg_2" fill="#000000" fill-opacity="1" stroke="none" stroke-opacity="1"/>
    <path d="M321.29679031507874,68.61190574505235 c-0.3000000000000003,0.7000000000000006 -0.4,24.900000000000002 -0.3000000000000003,53.800000000000004 l0.3000000000000003,52.5 l9,0 l9,0 l0.3000000000000003,-19.3 l0.2,-19.200000000000003 l10.8,0 c13,0 20.8,-1.8 27.900000000000002,-6.5 c9.4,-6.2 14.4,-16.1 14.600000000000001,-28.5 c0.2,-9.200000000000001 -2,-16.1 -6.9,-21.8 c-8.3,-9.8 -17.1,-12.200000000000001 -44.6,-12.200000000000001 c-15,0 -20,0.3000000000000003 -20.3,1.2000000000000002 zm38.5,14.9 c5.9,1.3 10.4,4.5 12.4,8.6 c2.3000000000000003,4.800000000000001 2.1,14.4 -0.4,19.3 c-3.7,7.300000000000001 -10,10 -23.400000000000002,10 l-9.1,0 l0.2,-19.200000000000003 c0.2,-10.600000000000001 0.3000000000000003,-19.400000000000002 0.3000000000000003,-19.6 c0,-0.7000000000000006 16.1,0 20,0.9 z" style="stroke-width: 0px; paint-order: fill;" stroke-width="0" id="svg_3" fill="#000000" fill-opacity="1" stroke="none" stroke-opacity="1"/>
    <path d="M794.7967903150787,121.31190574505234 l0,54.1 l21.8,0 c23.6,0 28.5,-0.8 36.9,-5.7 c6,-3.5 11.8,-10.4 13.4,-16 c4.3,-15.4 -2.6,-29.900000000000002 -16.3,-34.1 l-5.9,-1.8 l4.1000000000000005,-1.9000000000000001 c5.6000000000000005,-2.5 11.700000000000001,-9.600000000000001 13.5,-15.8 c3,-10 1.4000000000000001,-16.2 -5.9,-23.3 c-8.200000000000001,-8 -11,-8.6 -38.300000000000004,-9.200000000000001 l-23.3,-0.4 l0,54.1 zm41.7,-37 c6,2.8000000000000003 7.6000000000000005,5.800000000000001 7.1000000000000005,13.100000000000001 c-0.4,5.2 -0.9,6.5 -3.8000000000000003,9.5 c-4.2,4.3 -8.1,5.5 -18.7,5.5 l-8.3,0 l0,-15 l0,-15 l9.8,0 c7.300000000000001,0 10.700000000000001,0.5 13.9,1.9000000000000001 zm3.7,45.6 c5.300000000000001,2.7 7.800000000000001,6.300000000000001 8.3,12.200000000000001 c1.3,13.200000000000001 -8.5,19.900000000000002 -27.900000000000002,19.1 l-7.300000000000001,-0.3000000000000003 l-0.3000000000000003,-16.900000000000002 l-0.2,-16.8 l11.700000000000001,0.4 c9.200000000000001,0.3000000000000003 12.700000000000001,0.8 15.700000000000001,2.3000000000000003 z" style="stroke-width: 0px; paint-order: fill;" stroke-width="0" id="svg_4" fill="#000000" fill-opacity="1" stroke="none" stroke-opacity="1"/>
    <path d="M887.7967903150787,121.41190574505237 l0,54 l9.5,0 l9.5,0 l0,-54 l0,-54 l-9.5,0 l-9.5,0 l0,54 z" style="stroke-width: 0px; paint-order: fill;" stroke-width="0" id="svg_5" fill="#000000" fill-opacity="1" stroke="none" stroke-opacity="1"/>
    <path d="M128.39679031507876,85.41190574505237 c-1.5,0.5 -3.7,1.7000000000000002 -4.800000000000001,2.7 c-4.800000000000001,4.2 -4.800000000000001,4.5 -4.800000000000001,68.5 c0,58.6 0.1,60.300000000000004 2,64.4 c4.6000000000000005,9.3 17.6,10 23,1.1 c1.9000000000000001,-3.1 2,-5.5 2,-65.5 c0,-67.7 0.2,-65.2 -5.4,-69.4 c-2.9000000000000004,-2.1 -8.3,-2.9000000000000004 -12,-1.8 z" style="stroke-width: 0px; paint-order: fill;" stroke-width="0" id="svg_6" fill="#000000" fill-opacity="1" stroke="none" stroke-opacity="1"/>
    <path d="M428.79679031507874,97.71190574505238 c-16.6,3.9000000000000004 -26.6,15.200000000000001 -29,33 c-2,14.200000000000001 2,27.900000000000002 10.600000000000001,36.300000000000004 c8,7.7 18.400000000000002,11 32.1,10.100000000000001 c22.1,-1.3 36.300000000000004,-17.3 36.300000000000004,-40.7 c0,-18 -8.9,-32.7 -23,-37.5 c-6.1000000000000005,-2.2 -20.200000000000003,-2.8000000000000003 -27,-1.2000000000000002 zm19.900000000000002,15.100000000000001 c3.9000000000000004,2.1 8.6,7.7 10.200000000000001,12.3 c2.2,6.300000000000001 1.7000000000000002,19.900000000000002 -1,25.8 c-3,6.800000000000001 -5.6000000000000005,9.3 -11.5,11 c-7.1000000000000005,2.1 -10.5,1.9000000000000001 -16.7,-1.3 c-8,-4 -11.100000000000001,-9.600000000000001 -11.700000000000001,-20.8 c-0.3000000000000003,-5.1000000000000005 0,-10.200000000000001 0.8,-12.9 c1.5,-5.2 7.1000000000000005,-12.200000000000001 11.4,-14.100000000000001 c4.2,-1.8 15,-1.8 18.5,0 z" style="stroke-width: 0px; paint-order: fill;" stroke-width="0" id="svg_7" fill="#000000" fill-opacity="1" stroke="none" stroke-opacity="1"/>
    <path d="M635.4967903150788,97.41190574505237 c-10.200000000000001,2.6 -20.8,11.4 -24.8,20.700000000000003 c-5,11.8 -4.800000000000001,29.400000000000002 0.6000000000000006,40.7 c3,6.4 9.700000000000001,12.9 16.3,15.8 c9.8,4.3 32.2,3.1 41,-2.2 c3.1,-1.9000000000000001 3.2,-2.2 3.2,-8.5 c0,-3.6 -0.4,-6.5 -0.9,-6.5 c-0.5,0 -3.3000000000000003,1.2000000000000002 -6.300000000000001,2.7 c-6.300000000000001,3.2 -19.1,4.3 -25.3,2.3000000000000003 c-7.4,-2.4000000000000004 -11.9,-8 -13.9,-17.2 l-0.6000000000000006,-2.8000000000000003 l26.200000000000003,-0.2 l26.3,-0.3000000000000003 l0.3000000000000003,-5 c0.4,-6.300000000000001 -1.4000000000000001,-16.7 -3.8000000000000003,-22.200000000000003 c-2.5,-5.7 -9.200000000000001,-12.700000000000001 -14.600000000000001,-15.3 c-5.1000000000000005,-2.5 -17.6,-3.5 -23.700000000000003,-2 zm17.7,15.3 c3.4000000000000004,2.4000000000000004 6.5,8.9 6.6000000000000005,13.4 l0,3.3000000000000003 l-17.5,0 l-17.400000000000002,0 l1.4000000000000001,-4.5 c1.5,-5.2 5.5,-10.9 8.8,-12.700000000000001 c5.9,-3.1 13.200000000000001,-2.9000000000000004 18.1,0.5 z" style="stroke-width: 0px; paint-order: fill;" stroke-width="0" id="svg_8" fill="#000000" fill-opacity="1" stroke="none" stroke-opacity="1"/>
    <path d="M724.7967903150787,98.11190574505235 c-3.5,1.4000000000000001 -7.4,4.9 -10.100000000000001,9.1 l-2.9000000000000004,4.6000000000000005 l0,-6.7 l0,-6.7 l-9,0 l-9,0 l0,38.5 l0,38.5 l8.9,0 l9,0 l0.3000000000000003,-23.8 c0.3000000000000003,-26.700000000000003 0.8,-28.5 8.4,-35.2 c3.7,-3.2 3.9000000000000004,-3.2 11.100000000000001,-2.8000000000000003 l7.4,0.5 l-0.3000000000000003,-8.1 l-0.3000000000000003,-8.1 l-6,-0.2 c-3.3000000000000003,-0.1 -6.7,0.1 -7.5,0.4 z" style="stroke-width: 0px; paint-order: fill;" stroke-width="0" id="svg_9" fill="#000000" fill-opacity="1" stroke="none" stroke-opacity="1"/>
    <path d="M486.79679031507874,99.81190574505234 c0,0.7000000000000006 0.4,2.6 0.9,4.2 c0.6000000000000006,1.6 4.4,14.600000000000001 8.6,28.900000000000002 c4.2,14.3 8.8,29.700000000000003 10.200000000000001,34.2 l2.4000000000000004,8.3 l9.3,0 l9.200000000000001,0 l7.9,-27.5 c4.3,-15.100000000000001 8.1,-27.200000000000003 8.4,-26.900000000000002 c0.3000000000000003,0.3000000000000003 3.8000000000000003,12.600000000000001 7.6000000000000005,27.200000000000003 l7,26.700000000000003 l9.5,0.3000000000000003 l9.600000000000001,0.3000000000000003 l4.3,-14.8 c2.4000000000000004,-8.1 7.4,-25.200000000000003 11.200000000000001,-37.800000000000004 c3.8000000000000003,-12.700000000000001 6.9,-23.3 6.9,-23.8 c0,-0.4 -3.8000000000000003,-0.7000000000000006 -8.4,-0.7000000000000006 l-8.3,0 l-1.2000000000000002,4.2 c-0.6000000000000006,2.4000000000000004 -3.9000000000000004,15.9 -7.4,30.200000000000003 l-6.2,25.900000000000002 l-7.5,-30.200000000000003 l-7.4,-30.1 l-8.6,0 l-8.5,0 l-2.4000000000000004,8.700000000000001 c-1.3,4.9 -3.2,11.700000000000001 -4.2,15.3 c-7.5,26.900000000000002 -9.1,32.7 -9.5,34 c-0.3000000000000003,0.8 -3.5,-10.200000000000001 -7,-24.5 c-3.6,-14.3 -6.9,-27.700000000000003 -7.5,-29.8 l-1,-3.7 l-8.9,0 c-6.9,0 -9,0.3000000000000003 -9,1.4000000000000001 z" style="stroke-width: 0px; paint-order: fill;" stroke-width="0" id="svg_10" fill="#000000" fill-opacity="1" stroke="none" stroke-opacity="1"/>
    <path d="M88.09679031507875,100.91190574505237 c-1.8,0.8 -4.2,2.9000000000000004 -5.300000000000001,4.7 c-1.9000000000000001,3.2 -2,4.9 -2,52.1 l0,48.7 l3.3000000000000003,3.6 c2.6,2.9000000000000004 4.2,3.7 8.1,4.1000000000000005 c6.5,0.8 10.9,-1.6 13.600000000000001,-7.2 c2,-4.2 2.1,-5.6000000000000005 1.8,-51.2 c-0.3000000000000003,-43.2 -0.4,-47.1 -2.1,-49.6 c-3.9000000000000004,-6 -10.8,-8.1 -17.400000000000002,-5.2 z" style="stroke-width: 0px; paint-order: fill;" stroke-width="0" id="svg_11" fill="#000000" fill-opacity="1" stroke="none" stroke-opacity="1"/>
    <path d="M47.59679031507875,116.91190574505237 c-2.5,1.7000000000000002 -4.1000000000000005,3.8000000000000003 -4.800000000000001,6.300000000000001 c-0.8,2.4000000000000004 -1,14.600000000000001 -0.8,35.9 l0.3000000000000003,32.2 l3,3.1 c7.2,7.5 18.8,5.2 22.400000000000002,-4.3 c0.7000000000000006,-1.8 1.1,-14.3 1.1,-33.800000000000004 c0,-28.700000000000003 -0.1,-31.3 -2,-34.800000000000004 c-3.5,-7 -12.5,-9.200000000000001 -19.200000000000003,-4.6000000000000005 z" style="stroke-width: 0px; paint-order: fill;" stroke-width="0" id="svg_12" fill="#000000" fill-opacity="1" stroke="none" stroke-opacity="1"/>
    <path d="M12.396790315078746,128.41190574505237 c-1.5,0.5 -3.7,1.7000000000000002 -4.800000000000001,2.7 c-4.1000000000000005,3.6 -4.800000000000001,7.300000000000001 -4.800000000000001,25.8 c0,22.700000000000003 1.5,26.5 11,28.6 c3.5,0.8 5,0.6000000000000006 8.4,-1 c7.2,-3.5 7.6000000000000005,-5.1000000000000005 7.6000000000000005,-27.6 c0,-22.400000000000002 -0.5,-24.1 -7.5,-27.5 c-4.5,-2.2 -5.5,-2.3000000000000003 -9.9,-1 z" style="stroke-width: 0px; paint-order: fill;" stroke-width="0" id="svg_13" fill="#000000" fill-opacity="1" stroke="none" stroke-opacity="1"/>
  </g></g></svg>