<?xml version="1.0" encoding="utf-8"?>
<svg viewBox="0 0 500 500" xmlns="http://www.w3.org/2000/svg">
  <g transform="matrix(0.1, 0, 0, -0.1, -306.320836, 418.347724)" fill="#000000" stroke="none">
    <path d="M1325 3304 c-50 -19 -89 -56 -118 -113 -22 -45 -22 -55 -25 -436 -3 -431 -2 -438 55 -443 63 -6 63 -4 63 434 0 374 1 392 20 416 10 14 33 31 50 38 37 15 34 16 620 -164 25 -8 218 -67 430 -131 654 -198 625 -188 648 -232 9 -16 12 -177 12 -591 0 -556 0 -570 -20 -595 -11 -14 -36 -31 -56 -37 -31 -11 -46 -8 -130 20 -113 38 -154 37 -168 -3 -16 -44 1 -59 110 -96 130 -45 199 -47 267 -8 26 15 60 47 75 69 l27 42 3 590 c2 412 0 603 -8 629 -14 49 -69 109 -117 130 -21 8 -175 57 -343 108 -315 94 -603 182 -1034 313 -136 42 -265 76 -285 75 -20 0 -54 -7 -76 -15z" style="stroke-width: 0px; paint-order: fill;"/>
    <path d="M4305 2738 c-3 -7 -4 -249 -3 -538 l3 -525 90 0 90 0 3 193 2 192 108 0 c130 0 208 18 279 65 94 62 144 161 146 285 2 92 -20 161 -69 218 -83 98 -171 122 -446 122 -150 0 -200 -3 -203 -12z m385 -149 c59 -13 104 -45 124 -86 23 -48 21 -144 -4 -193 -37 -73 -100 -100 -234 -100 l-91 0 2 192 c2 106 3 194 3 196 0 7 161 0 200 -9z" style="stroke-width: 0px; paint-order: fill;"/>
    <path d="M9040 2211 l0 -541 218 0 c236 0 285 8 369 57 60 35 118 104 134 160 43 154 -26 299 -163 341 l-59 18 41 19 c56 25 117 96 135 158 30 100 14 162 -59 233 -82 80 -110 86 -383 92 l-233 4 0 -541z m417 370 c60 -28 76 -58 71 -131 -4 -52 -9 -65 -38 -95 -42 -43 -81 -55 -187 -55 l-83 0 0 150 0 150 98 0 c73 0 107 -5 139 -19z m37 -456 c53 -27 78 -63 83 -122 13 -132 -85 -199 -279 -191 l-73 3 -3 169 -2 168 117 -4 c92 -3 127 -8 157 -23z" style="stroke-width: 0px; paint-order: fill;"/>
    <path d="M9970 2210 l0 -540 95 0 95 0 0 540 0 540 -95 0 -95 0 0 -540z" style="stroke-width: 0px; paint-order: fill;"/>
    <path d="M2376 2570 c-15 -5 -37 -17 -48 -27 -48 -42 -48 -45 -48 -685 0 -586 1 -603 20 -644 46 -93 176 -100 230 -11 19 31 20 55 20 655 0 677 2 652 -54 694 -29 21 -83 29 -120 18z" style="stroke-width: 0px; paint-order: fill;"/>
    <path d="M5380 2447 c-166 -39 -266 -152 -290 -330 -20 -142 20 -279 106 -363 80 -77 184 -110 321 -101 221 13 363 173 363 407 0 180 -89 327 -230 375 -61 22 -202 28 -270 12z m199 -151 c39 -21 86 -77 102 -123 22 -63 17 -199 -10 -258 -30 -68 -56 -93 -115 -110 -71 -21 -105 -19 -167 13 -80 40 -111 96 -117 208 -3 51 0 102 8 129 15 52 71 122 114 141 42 18 150 18 185 0z" style="stroke-width: 0px; paint-order: fill;"/>
    <path d="M7447 2450 c-102 -26 -208 -114 -248 -207 -50 -118 -48 -294 6 -407 30 -64 97 -129 163 -158 98 -43 322 -31 410 22 31 19 32 22 32 85 0 36 -4 65 -9 65 -5 0 -33 -12 -63 -27 -63 -32 -191 -43 -253 -23 -74 24 -119 80 -139 172 l-6 28 262 2 263 3 3 50 c4 63 -14 167 -38 222 -25 57 -92 127 -146 153 -51 25 -176 35 -237 20z m177 -153 c34 -24 65 -89 66 -134 l0 -33 -175 0 -174 0 14 45 c15 52 55 109 88 127 59 31 132 29 181 -5z" style="stroke-width: 0px; paint-order: fill;"/>
    <path d="M8340 2443 c-35 -14 -74 -49 -101 -91 l-29 -46 0 67 0 67 -90 0 -90 0 0 -385 0 -385 89 0 90 0 3 238 c3 267 8 285 84 352 37 32 39 32 111 28 l74 -5 -3 81 -3 81 -60 2 c-33 1 -67 -1 -75 -4z" style="stroke-width: 0px; paint-order: fill;"/>
    <path d="M5960 2426 c0 -7 4 -26 9 -42 6 -16 44 -146 86 -289 42 -143 88 -297 102 -342 l24 -83 93 0 92 0 79 275 c43 151 81 272 84 269 3 -3 38 -126 76 -272 l70 -267 95 -3 96 -3 43 148 c24 81 74 252 112 378 38 127 69 233 69 238 0 4 -38 7 -84 7 l-83 0 -12 -42 c-6 -24 -39 -159 -74 -302 l-62 -259 -75 302 -74 301 -86 0 -85 0 -24 -87 c-13 -49 -32 -117 -42 -153 -75 -269 -91 -327 -95 -340 -3 -8 -35 102 -70 245 -36 143 -69 277 -75 298 l-10 37 -89 0 c-69 0 -90 -3 -90 -14z" style="stroke-width: 0px; paint-order: fill;"/>
    <path d="M1973 2415 c-18 -8 -42 -29 -53 -47 -19 -32 -20 -49 -20 -521 l0 -487 33 -36 c26 -29 42 -37 81 -41 65 -8 109 16 136 72 20 42 21 56 18 512 -3 432 -4 471 -21 496 -39 60 -108 81 -174 52z" style="stroke-width: 0px; paint-order: fill;"/>
    <path d="M1568 2255 c-25 -17 -41 -38 -48 -63 -8 -24 -10 -146 -8 -359 l3 -322 30 -31 c72 -75 188 -52 224 43 7 18 11 143 11 338 0 287 -1 313 -20 348 -35 70 -125 92 -192 46z" style="stroke-width: 0px; paint-order: fill;"/>
    <path d="M1216 2140 c-15 -5 -37 -17 -48 -27 -41 -36 -48 -73 -48 -258 0 -227 15 -265 110 -286 35 -8 50 -6 84 10 72 35 76 51 76 276 0 224 -5 241 -75 275 -45 22 -55 23 -99 10z" style="stroke-width: 0px; paint-order: fill;"/>
  </g>
</svg>