<svg xmlns="http://www.w3.org/2000/svg" width="915" height="239" style=""><rect id="backgroundrect" width="100%" height="100%" x="0" y="0" fill="none" stroke="none"/>
  
<g class="currentLayer" style=""><title>Layer 1</title><rect fill="#ebeb1a" stroke-dashoffset="" fill-rule="nonzero" id="svg_16" x="-1" y="0" width="916" height="239" style="color: rgb(0, 0, 0);" class=""/><g fill="#000000" stroke="none" id="svg_1" class="" fill-opacity="1">
    <path d="M102.06540180174515,30.995742285873725 c-4.118593633174896,1.5650655806064604 -7.331096667051316,4.612824869155884 -9.719880974292757,9.308021610975267 c-1.8121811985969545,3.7067342698574066 -1.8121811985969545,4.530452996492386 -2.059296816587448,35.9141364812851 c-0.24711561799049409,35.50227711796761 -0.164743745326996,36.07888022661209 4.530452996492386,36.49073958992958 c5.18942797780037,0.49423123598098806 5.18942797780037,0.3294874906539919 5.18942797780037,-35.749392735958104 c0,-30.80708037614822 0.08237187266349796,-32.28977408409119 1.6474374532699585,-34.26669902801514 c0.8237187266349796,-1.153206217288971 2.7182717978954316,-2.5535280525684367 4.118593633174896,-3.1301311612129212 c3.0477592885494236,-1.2355780899524689 2.8006436705589297,-1.317949962615967 51.07056105136871,13.508987116813662 c2.059296816587448,0.6589749813079836 17.95706824064255,5.518915468454361 35.41990524530411,10.79071531891823 c53.87120472192765,16.30963078737259 51.4824204146862,15.485912060737611 53.37697348594665,19.11027445793152 c0.7413468539714817,1.317949962615967 0.9884624719619748,14.579821461439131 0.9884624719619748,48.681776744127276 c0,45.79876120090485 0,46.95196741819382 -1.6474374532699585,49.011264234781265 c-0.9060905992984776,1.153206217288971 -2.9653874158859255,2.5535280525684367 -4.612824869155884,3.0477592885494236 c-2.5535280525684367,0.9060905992984776 -3.7891061425209047,0.6589749813079836 -10.70834344625473,-1.6474374532699585 c-9.308021610975267,-3.1301311612129212 -12.685268390178681,-3.0477592885494236 -13.838474607467653,0.24711561799049409 c-1.317949962615967,3.624362397193909 0.08237187266349796,4.859940487146378 9.060905992984772,7.907699775695802 c10.70834344625473,3.7067342698574066 16.392002660036088,3.8714780151844037 21.993290001153948,0.6589749813079836 c2.1416686892509462,-1.2355780899524689 4.9423123598098755,-3.8714780151844037 6.177890449762344,-5.6836592137813575 l2.2240405619144443,-3.459618651866913 l0.24711561799049409,-48.599404871463776 c0.164743745326996,-33.93721153736115 0,-49.67023921608925 -0.6589749813079836,-51.8119079053402 c-1.153206217288971,-4.036221760511399 -5.6836592137813575,-8.978534120321275 -9.637509101629258,-10.70834344625473 c-1.7298093259334566,-0.6589749813079836 -14.415077716112137,-4.695196741819382 -28.253552323579793,-8.896162247657777 c-25.947139889001846,-7.7429560303688065 -49.67023921608925,-14.991680824756621 -85.17251633405687,-25.782396143674852 c-11.202574682235719,-3.459618651866913 -21.82854625582695,-6.2602623224258425 -23.47598370909691,-6.177890449762344 c-1.6474374532699585,0 -4.448081123828889,0.5766031086444862 -6.2602623224258425,1.2355780899524689 z" style="stroke-width: 0px; paint-order: fill;" stroke-width="0" id="svg_2" fill="#000000" fill-opacity="1" stroke="none" stroke-opacity="1"/>
    <path d="M347.533582338969,77.61822221341356 c-0.24711561799049409,0.5766031086444862 -0.3294874906539919,20.510596293210984 -0.24711561799049409,44.316067492961885 l0.24711561799049409,43.24523314833641 l7.413468539714813,0 l7.413468539714813,0 l0.24711561799049409,-15.897771424055101 l0.164743745326996,-15.815399551391604 l8.896162247657777,0 c10.70834344625473,0 17.13334951400757,-1.4826937079429627 22.981752473115918,-5.354171723127365 c7.7429560303688065,-5.107056105136872 11.861549663543702,-13.261871498823167 12.026293408870698,-23.47598370909691 c0.164743745326996,-7.5782122850418085 -1.6474374532699585,-13.261871498823167 -5.6836592137813575,-17.95706824064255 c-6.836865431070328,-8.072443521022798 -14.085590225458146,-10.049368464946747 -36.73785520792008,-10.049368464946747 c-12.355780899524689,0 -16.474374532699585,0.24711561799049409 -16.72149015069008,0.9884624719619748 zm31.7131709754467,12.273409026861192 c4.859940487146378,1.0708343446254731 8.566674757003785,3.7067342698574066 10.214112210273743,7.083981049060821 c1.8945530712604526,3.953849887847901 1.7298093259334566,11.861549663543702 -0.3294874906539919,15.897771424055101 c-3.0477592885494236,6.013146704435349 -8.237187266349792,8.237187266349792 -19.275018203258515,8.237187266349792 l-7.4958404123783104,0 l0.164743745326996,-15.815399551391604 c0.164743745326996,-8.731418502330781 0.24711561799049409,-15.9801432967186 0.24711561799049409,-16.144887042045596 c0,-0.5766031086444862 13.261871498823167,0 16.474374532699585,0.7413468539714817 z" style="stroke-width: 0px; paint-order: fill;" stroke-width="0" id="svg_3" fill="#000000" fill-opacity="1" stroke="none" stroke-opacity="1"/>
    <path d="M737.5643994006316,121.02819910707694 l0,44.56318311095238 l17.95706824064255,0 c19.439761948585513,0 23.47598370909691,-0.6589749813079836 30.39522101283073,-4.695196741819382 c4.9423123598098755,-2.8830155432224274 9.719880974292757,-8.566674757003785 11.037830936908723,-13.179499626159668 c3.5419905245304104,-12.685268390178681 -2.1416686892509462,-24.62918992638588 -13.426615244150163,-28.088808578252795 l-4.859940487146378,-1.4826937079429627 l3.3772467792034155,-1.5650655806064604 c4.612824869155884,-2.059296816587448 9.637509101629258,-7.907699775695802 11.12020280957222,-13.014755880832674 c2.4711561799049377,-8.237187266349792 1.153206217288971,-13.344243371486662 -4.859940487146378,-19.192646330595018 c-6.754493558406831,-6.589749813079834 -9.060905992984772,-7.083981049060821 -31.54842723011971,-7.5782122850418085 l-19.192646330595018,-0.3294874906539919 l0,44.56318311095238 zm34.34907090067864,-30.477592885494232 c4.9423123598098755,2.306412434577942 6.2602623224258425,4.77756861448288 5.848402959108353,10.79071531891823 c-0.3294874906539919,4.2833373785018924 -0.7413468539714817,5.354171723127365 -3.1301311612129212,7.825327903032303 c-3.459618651866913,3.5419905245304104 -6.672121685743331,4.530452996492386 -15.40354018807411,4.530452996492386 l-6.836865431070328,0 l0,-12.355780899524689 l0,-12.355780899524689 l8.072443521022798,0 c6.013146704435349,0 8.813790374994278,0.4118593633174899 11.449690300226212,1.5650655806064604 zm3.0477592885494236,37.56157393455506 c4.3657092511653905,2.2240405619144443 6.4250060677528396,5.18942797780037 6.836865431070328,10.049368464946747 c1.0708343446254731,10.873087191581726 -7.001609176397324,16.392002660036088 -22.981752473115918,15.733027678728105 l-6.013146704435349,-0.24711561799049409 l-0.24711561799049409,-13.920846480131152 l-0.164743745326996,-13.838474607467653 l9.637509101629258,0.3294874906539919 c7.5782122850418085,0.24711561799049409 10.461227828264237,0.6589749813079836 12.932384008169175,1.8945530712604526 z" style="stroke-width: 0px; paint-order: fill;" stroke-width="0" id="svg_4" fill="#000000" fill-opacity="1" stroke="none" stroke-opacity="1"/>
    <path d="M814.1702409776847,121.11057097974049 l0,44.48081123828888 l7.825327903032303,0 l7.825327903032303,0 l0,-44.48081123828888 l0,-44.48081123828888 l-7.825327903032303,0 l-7.825327903032303,0 l0,44.48081123828888 z" style="stroke-width: 0px; paint-order: fill;" stroke-width="0" id="svg_5" fill="#000000" fill-opacity="1" stroke="none" stroke-opacity="1"/>
    <path d="M188.63823997108148,91.45669682088123 c-1.2355780899524689,0.4118593633174899 -3.0477592885494236,1.400321835279465 -3.953849887847901,2.2240405619144443 c-3.953849887847901,3.459618651866913 -3.953849887847901,3.7067342698574066 -3.953849887847901,56.42473277449608 c0,48.26991738080979 0.08237187266349796,49.67023921608925 1.6474374532699585,53.04748599529267 c3.7891061425209047,7.6605841577053075 14.497449588775636,8.237187266349792 18.945530712604523,0.9060905992984776 c1.5650655806064604,-2.5535280525684367 1.6474374532699585,-4.530452996492386 1.6474374532699585,-53.95357659459114 c0,-55.7657577931881 0.164743745326996,-53.70646097660065 -4.448081123828889,-57.166079628467564 c-2.38878430724144,-1.7298093259334566 -6.836865431070328,-2.38878430724144 -9.884624719619751,-1.4826937079429627 z" style="stroke-width: 0px; paint-order: fill;" stroke-width="0" id="svg_6" fill="#000000" fill-opacity="1" stroke="none" stroke-opacity="1"/>
    <path d="M436.08334545222925,101.58843715849149 c-13.673730862140657,3.2125030338764193 -21.91091812849045,12.520524644851685 -23.887843072414398,27.182717978954315 c-1.6474374532699585,11.696805918216706 1.6474374532699585,22.981752473115918 8.731418502330781,29.90098977684975 c6.589749813079834,6.3426341950893415 15.15642457008362,9.060905992984772 26.441371124982837,8.319559139013291 c18.204183858633044,-1.0708343446254731 29.90098977684975,-14.250333970785142 29.90098977684975,-33.52535217404366 c0,-14.826937079429626 -7.331096667051316,-26.935602360963824 -18.945530712604523,-30.889452248811722 c-5.024684232473374,-1.8121811985969545 -16.639118278026583,-2.306412434577942 -22.24040561914444,-0.9884624719619748 zm16.392002660036088,12.438152772188188 c3.2125030338764193,1.7298093259334566 7.083981049060821,6.3426341950893415 8.401931011676789,10.131740337610246 c1.8121811985969545,5.18942797780037 1.400321835279465,16.392002660036088 -0.8237187266349796,21.251943147182466 c-2.4711561799049377,5.6012873411178585 -4.612824869155884,7.6605841577053075 -9.472765356302261,9.060905992984772 c-5.848402959108353,1.7298093259334566 -8.649046629667282,1.5650655806064604 -13.756102734804152,-1.0708343446254731 c-6.589749813079834,-3.294874906539917 -9.14327786564827,-7.907699775695802 -9.637509101629258,-17.13334951400757 c-0.24711561799049409,-4.200965505838394 0,-8.401931011676789 0.6589749813079836,-10.625971573591233 c1.2355780899524689,-4.2833373785018924 5.848402959108353,-10.049368464946747 9.390393483638764,-11.614434045553208 c3.459618651866913,-1.4826937079429627 12.355780899524689,-1.4826937079429627 15.238796442747116,0 z" style="stroke-width: 0px; paint-order: fill;" stroke-width="0" id="svg_7" fill="#000000" fill-opacity="1" stroke="none" stroke-opacity="1"/>
    <path d="M606.3460062476795,101.34132154050099 c-8.401931011676789,2.1416686892509462 -17.13334951400757,9.390393483638764 -20.428224420547487,17.050977641344073 c-4.118593633174896,9.719880974292757 -3.953849887847901,24.21733056306839 0.49423123598098806,33.52535217404366 c2.4711561799049377,5.271799850463868 7.9900716483593,10.625971573591233 13.426615244150163,13.014755880832674 c8.072443521022798,3.5419905245304104 26.523742997646334,2.5535280525684367 33.77246779203415,-1.8121811985969545 c2.5535280525684367,-1.5650655806064604 2.635899925231934,-1.8121811985969545 2.635899925231934,-7.001609176397324 c0,-2.9653874158859255 -0.3294874906539919,-5.354171723127365 -0.7413468539714817,-5.354171723127365 c-0.4118593633174899,0 -2.7182717978954316,0.9884624719619748 -5.18942797780037,2.2240405619144443 c-5.18942797780037,2.635899925231934 -15.733027678728105,3.5419905245304104 -20.840083783864976,1.8945530712604526 c-6.095518577098847,-1.9769249439239505 -9.802252846956254,-6.589749813079834 -11.449690300226212,-14.167962098121642 l-0.49423123598098806,-2.306412434577942 l21.58143063783646,-0.164743745326996 l21.663802510499956,-0.24711561799049409 l0.24711561799049409,-4.118593633174896 c0.3294874906539919,-5.18942797780037 -1.153206217288971,-13.756102734804152 -3.1301311612129212,-18.28655573129654 c-2.059296816587448,-4.695196741819382 -7.5782122850418085,-10.461227828264237 -12.026293408870698,-12.602896517515184 c-4.200965505838394,-2.059296816587448 -14.497449588775636,-2.8830155432224274 -19.52213382124901,-1.6474374532699585 zm14.579821461439131,12.602896517515184 c2.8006436705589297,1.9769249439239505 5.354171723127365,7.331096667051316 5.436543595790863,11.037830936908723 l0,2.7182717978954316 l-14.415077716112137,0 l-14.332705843448641,0 l1.153206217288971,-3.7067342698574066 c1.2355780899524689,-4.2833373785018924 4.530452996492386,-8.978534120321275 7.248724794387818,-10.461227828264237 c4.859940487146378,-2.5535280525684367 10.873087191581726,-2.38878430724144 14.909308952093125,0.4118593633174899 z" style="stroke-width: 0px; paint-order: fill;" stroke-width="0" id="svg_8" fill="#000000" fill-opacity="1" stroke="none" stroke-opacity="1"/>
    <path d="M679.904088536183,101.91792464914545 c-2.8830155432224274,1.153206217288971 -6.095518577098847,4.036221760511399 -8.319559139013291,7.4958404123783104 l-2.38878430724144,3.7891061425209047 l0,-5.518915468454361 l0,-5.518915468454361 l-7.413468539714813,0 l-7.413468539714813,0 l0,31.7131709754467 l0,31.7131709754467 l7.331096667051316,0 l7.413468539714813,0 l0.24711561799049409,-19.604505693912508 c0.24711561799049409,-21.993290001153948 0.6589749813079836,-23.47598370909691 6.919237303733826,-28.99489917755127 c3.0477592885494236,-2.635899925231934 3.2125030338764193,-2.635899925231934 9.14327786564827,-2.306412434577942 l6.095518577098847,0.4118593633174899 l-0.24711561799049409,-6.672121685743331 l-0.24711561799049409,-6.672121685743331 l-4.9423123598098755,-0.164743745326996 c-2.7182717978954316,-0.08237187266349796 -5.518915468454361,0.08237187266349796 -6.177890449762344,0.3294874906539919 z" style="stroke-width: 0px; paint-order: fill;" stroke-width="0" id="svg_9" fill="#000000" fill-opacity="1" stroke="none" stroke-opacity="1"/>
    <path d="M483.85903159705805,103.3182464844249 c0,0.5766031086444862 0.3294874906539919,2.1416686892509462 0.7413468539714817,3.459618651866913 c0.49423123598098806,1.317949962615967 3.624362397193909,12.026293408870698 7.083981049060821,23.8054711997509 c3.459618651866913,11.779177790880205 7.248724794387818,24.464446181058886 8.401931011676789,28.171180450916292 l1.9769249439239505,6.836865431070328 l7.6605841577053075,0 l7.5782122850418085,0 l6.507377940416337,-22.65226498246193 c3.5419905245304104,-12.438152772188188 6.672121685743331,-22.405149364471438 6.919237303733826,-22.158033746480942 c0.24711561799049409,0.24711561799049409 3.1301311612129212,10.37885595560074 6.2602623224258425,22.405149364471438 l5.766031086444855,21.993290001153948 l7.825327903032303,0.24711561799049409 l7.907699775695802,0.24711561799049409 l3.5419905245304104,-12.191037154197694 c1.9769249439239505,-6.672121685743331 6.095518577098847,-20.75771191120148 9.225649738311768,-31.13656786680222 c3.1301311612129212,-10.461227828264237 5.6836592137813575,-19.192646330595018 5.6836592137813575,-19.604505693912508 c0,-0.3294874906539919 -3.1301311612129212,-0.5766031086444862 -6.919237303733826,-0.5766031086444862 l-6.836865431070328,0 l-0.9884624719619748,3.459618651866913 c-0.49423123598098806,1.9769249439239505 -3.2125030338764193,13.09712775349617 -6.095518577098847,24.876305544376375 l-5.107056105136872,21.334315019845963 l-6.177890449762344,-24.876305544376375 l-6.095518577098847,-24.793933671712878 l-7.083981049060821,0 l-7.001609176397324,0 l-1.9769249439239505,7.166352921724321 c-1.0708343446254731,4.036221760511399 -2.635899925231934,9.637509101629258 -3.459618651866913,12.602896517515184 c-6.177890449762344,22.158033746480942 -7.4958404123783104,26.935602360963824 -7.825327903032303,28.006436705589294 c-0.24711561799049409,0.6589749813079836 -2.8830155432224274,-8.401931011676789 -5.766031086444855,-20.18110880255699 c-2.9653874158859255,-11.779177790880205 -5.6836592137813575,-22.817008727788927 -6.177890449762344,-24.546818053722383 l-0.8237187266349796,-3.0477592885494236 l-7.331096667051316,0 c-5.6836592137813575,0 -7.413468539714813,0.24711561799049409 -7.413468539714813,1.153206217288971 z" style="stroke-width: 0px; paint-order: fill;" stroke-width="0" id="svg_10" fill="#000000" fill-opacity="1" stroke="none" stroke-opacity="1"/>
    <path d="M155.44237528769182,104.22433708372341 c-1.4826937079429627,0.6589749813079836 -3.459618651866913,2.38878430724144 -4.3657092511653905,3.8714780151844037 c-1.5650655806064604,2.635899925231934 -1.6474374532699585,4.036221760511399 -1.6474374532699585,42.91574565768242 l0,40.115101987123495 l2.7182717978954316,2.9653874158859255 c2.1416686892509462,2.38878430724144 3.459618651866913,3.0477592885494236 6.672121685743331,3.3772467792034155 c5.354171723127365,0.6589749813079836 8.978534120321275,-1.317949962615967 11.202574682235719,-5.930774831771851 c1.6474374532699585,-3.459618651866913 1.7298093259334566,-4.612824869155884 1.4826937079429627,-42.17439880371094 c-0.24711561799049409,-35.58464899063111 -0.3294874906539919,-38.797152024507525 -1.7298093259334566,-40.85644884109497 c-3.2125030338764193,-4.9423123598098755 -8.896162247657777,-6.672121685743331 -14.332705843448641,-4.2833373785018924 z" style="stroke-width: 0px; paint-order: fill;" stroke-width="0" id="svg_11" fill="#000000" fill-opacity="1" stroke="none" stroke-opacity="1"/>
    <path d="M122.08176685897516,117.40383670988308 c-2.059296816587448,1.400321835279465 -3.3772467792034155,3.1301311612129212 -3.953849887847901,5.18942797780037 c-0.6589749813079836,1.9769249439239505 -0.8237187266349796,12.026293408870698 -0.6589749813079836,29.571502286195752 l0.24711561799049409,26.523742997646334 l2.4711561799049377,2.5535280525684367 c5.930774831771851,6.177890449762344 15.485912060737611,4.2833373785018924 18.451299476623536,-3.5419905245304104 c0.5766031086444862,-1.4826937079429627 0.9060905992984776,-11.779177790880205 0.9060905992984776,-27.841692960262304 c0,-23.640727454423907 -0.08237187266349796,-25.782396143674852 -1.6474374532699585,-28.665411686897283 c-2.8830155432224274,-5.766031086444855 -10.29648408293724,-7.5782122850418085 -15.815399551391604,-3.7891061425209047 z" style="stroke-width: 0px; paint-order: fill;" stroke-width="0" id="svg_12" fill="#000000" fill-opacity="1" stroke="none" stroke-opacity="1"/>
    <path d="M93.08686768142388,126.87660206618534 c-1.2355780899524689,0.4118593633174899 -3.0477592885494236,1.400321835279465 -3.953849887847901,2.2240405619144443 c-3.3772467792034155,2.9653874158859255 -3.953849887847901,6.013146704435349 -3.953849887847901,21.251943147182466 c0,18.69841509461403 1.2355780899524689,21.82854625582695 9.060905992984772,23.55835558176041 c2.8830155432224274,0.6589749813079836 4.118593633174896,0.49423123598098806 6.919237303733826,-0.8237187266349796 c5.930774831771851,-2.8830155432224274 6.2602623224258425,-4.200965505838394 6.2602623224258425,-22.73463685512543 c0,-18.451299476623536 -0.4118593633174899,-19.851621311903003 -6.177890449762344,-22.65226498246193 c-3.7067342698574066,-1.8121811985969545 -4.530452996492386,-1.8945530712604526 -8.154815393686295,-0.8237187266349796 z" style="stroke-width: 0px; paint-order: fill;" stroke-width="0" id="svg_13" fill="#000000" fill-opacity="1" stroke="none" stroke-opacity="1"/>
  </g></g></svg>