<svg id="SvgjsSvg1015" width="288" height="288" xmlns="http://www.w3.org/2000/svg" version="1.1" xmlns:xlink="http://www.w3.org/1999/xlink" xmlns:svgjs="http://svgjs.com/svgjs"><rect id="SvgjsRect1026" width="288" height="288" rx="20" ry="20" transform="matrix(0.7916,0,0,0.7916,30.009600000000006,30.009600000000006)" fill="#ffbf66"></rect><defs id="SvgjsDefs1016"></defs><g id="SvgjsG1017" transform="matrix(0.4652,0,0,0.4652,76.59036955442429,77.6664679107666)"><svg xmlns="http://www.w3.org/2000/svg" viewBox="26 72 915 239" width="288" height="288"><g transform="matrix(.1 0 0 -.1 -83 418.348)" fill="#000000" class="color000 svgShape"><path d="M1325 3304c-50-19-89-56-118-113-22-45-22-55-25-436-3-431-2-438 55-443 63-6 63-4 63 434 0 374 1 392 20 416 10 14 33 31 50 38 37 15 34 16 620-164 25-8 218-67 430-131 654-198 625-188 648-232 9-16 12-177 12-591 0-556 0-570-20-595-11-14-36-31-56-37-31-11-46-8-130 20-113 38-154 37-168-3-16-44 1-59 110-96 130-45 199-47 267-8 26 15 60 47 75 69l27 42 3 590c2 412 0 603-8 629-14 49-69 109-117 130-21 8-175 57-343 108-315 94-603 182-1034 313-136 42-265 76-285 75-20 0-54-7-76-15zM4305 2738c-3-7-4-249-3-538l3-525 90 0 90 0 3 193 2 192 108 0c130 0 208 18 279 65 94 62 144 161 146 285 2 92-20 161-69 218-83 98-171 122-446 122-150 0-200-3-203-12zm385-149c59-13 104-45 124-86 23-48 21-144-4-193-37-73-100-100-234-100l-91 0 2 192c2 106 3 194 3 196 0 7 161 0 200-9zM9040 2211l0-541 218 0c236 0 285 8 369 57 60 35 118 104 134 160 43 154-26 299-163 341l-59 18 41 19c56 25 117 96 135 158 30 100 14 162-59 233-82 80-110 86-383 92l-233 4 0-541zm417 370c60-28 76-58 71-131-4-52-9-65-38-95-42-43-81-55-187-55l-83 0 0 150 0 150 98 0c73 0 107-5 139-19zm37-456c53-27 78-63 83-122 13-132-85-199-279-191l-73 3-3 169-2 168 117-4c92-3 127-8 157-23zM9970 2210l0-540 95 0 95 0 0 540 0 540-95 0-95 0 0-540z" paint-order="fill" fill="#000000" class="color000 svgShape"></path><path d="M2376 2570c-15-5-37-17-48-27-48-42-48-45-48-685 0-586 1-603 20-644 46-93 176-100 230-11 19 31 20 55 20 655 0 677 2 652-54 694-29 21-83 29-120 18zM5380 2447c-166-39-266-152-290-330-20-142 20-279 106-363 80-77 184-110 321-101 221 13 363 173 363 407 0 180-89 327-230 375-61 22-202 28-270 12zm199-151c39-21 86-77 102-123 22-63 17-199-10-258-30-68-56-93-115-110-71-21-105-19-167 13-80 40-111 96-117 208-3 51 0 102 8 129 15 52 71 122 114 141 42 18 150 18 185 0zM7447 2450c-102-26-208-114-248-207-50-118-48-294 6-407 30-64 97-129 163-158 98-43 322-31 410 22 31 19 32 22 32 85 0 36-4 65-9 65-5 0-33-12-63-27-63-32-191-43-253-23-74 24-119 80-139 172l-6 28 262 2 263 3 3 50c4 63-14 167-38 222-25 57-92 127-146 153-51 25-176 35-237 20zm177-153c34-24 65-89 66-134l0-33-175 0-174 0 14 45c15 52 55 109 88 127 59 31 132 29 181-5zM8340 2443c-35-14-74-49-101-91l-29-46 0 67 0 67-90 0-90 0 0-385 0-385 89 0 90 0 3 238c3 267 8 285 84 352 37 32 39 32 111 28l74-5-3 81-3 81-60 2c-33 1-67-1-75-4zM5960 2426c0-7 4-26 9-42 6-16 44-146 86-289 42-143 88-297 102-342l24-83 93 0 92 0 79 275c43 151 81 272 84 269 3-3 38-126 76-272l70-267 95-3 96-3 43 148c24 81 74 252 112 378 38 127 69 233 69 238 0 4-38 7-84 7l-83 0-12-42c-6-24-39-159-74-302l-62-259-75 302-74 301-86 0-85 0-24-87c-13-49-32-117-42-153-75-269-91-327-95-340-3-8-35 102-70 245-36 143-69 277-75 298l-10 37-89 0c-69 0-90-3-90-14zM1973 2415c-18-8-42-29-53-47-19-32-20-49-20-521l0-487 33-36c26-29 42-37 81-41 65-8 109 16 136 72 20 42 21 56 18 512-3 432-4 471-21 496-39 60-108 81-174 52zM1568 2255c-25-17-41-38-48-63-8-24-10-146-8-359l3-322 30-31c72-75 188-52 224 43 7 18 11 143 11 338 0 287-1 313-20 348-35 70-125 92-192 46zM1216 2140c-15-5-37-17-48-27-41-36-48-73-48-258 0-227 15-265 110-286 35-8 50-6 84 10 72 35 76 51 76 276 0 224-5 241-75 275-45 22-55 23-99 10z" paint-order="fill" fill="#000000" class="color000 svgShape"></path></g></svg></g></svg>