<?xml version="1.0" encoding="UTF-8"?>
<!DOCTYPE svg PUBLIC "-//W3C//DTD SVG 1.1//EN" "http://www.w3.org/Graphics/SVG/1.1/DTD/svg11.dtd">
<svg xmlns="http://www.w3.org/2000/svg" version="1.1" width="494px" height="505px" style="shape-rendering:geometricPrecision; text-rendering:geometricPrecision; image-rendering:optimizeQuality; fill-rule:evenodd; clip-rule:evenodd" xmlns:xlink="http://www.w3.org/1999/xlink">
<g><path style="opacity:0.623" fill="#8fe7f8" d="M 139.5,2.5 C 142.649,1.83493 145.982,1.5016 149.5,1.5C 154.755,1.33429 159.755,2.00096 164.5,3.5C 156.181,2.87596 147.848,2.54263 139.5,2.5 Z"/></g>
<g><path style="opacity:1" fill="#3ddafd" d="M 381.5,28.5 C 382.256,32.767 383.589,36.767 385.5,40.5C 389.722,57.8572 390.556,75.5238 388,93.5C 387.149,102.324 385.649,110.99 383.5,119.5C 381.777,121.78 381.111,124.447 381.5,127.5C 381.215,129.288 381.548,130.955 382.5,132.5C 401.074,138.192 419.074,145.359 436.5,154C 442.741,157.943 448.741,162.109 454.5,166.5C 455.035,168.446 456.368,169.446 458.5,169.5C 468.937,177.711 476.437,188.044 481,200.5C 483.101,215.364 478.934,228.031 468.5,238.5C 467.094,238.973 466.427,239.973 466.5,241.5C 451.075,256.731 433.075,268.231 412.5,276C 402.307,280.064 391.974,283.731 381.5,287C 382.713,289.687 383.38,292.52 383.5,295.5C 383.42,298.781 384.087,301.781 385.5,304.5C 386.795,308.267 387.461,312.267 387.5,316.5C 387.376,322.069 388.043,327.402 389.5,332.5C 390.774,346.268 390.107,359.935 387.5,373.5C 385.837,375.438 385.171,377.772 385.5,380.5C 382.481,397.399 373.147,409.232 357.5,416C 352.58,417.25 347.58,417.75 342.5,417.5C 339.236,416.676 335.902,416.342 332.5,416.5C 330.901,416.768 329.568,416.434 328.5,415.5C 326.485,414.076 324.152,413.41 321.5,413.5C 312.522,411.175 304.189,407.508 296.5,402.5C 296.027,401.094 295.027,400.427 293.5,400.5C 293.027,399.094 292.027,398.427 290.5,398.5C 288.566,397.89 286.899,396.89 285.5,395.5C 284.738,393.738 283.404,392.738 281.5,392.5C 279.596,392.262 278.262,391.262 277.5,389.5C 277.027,388.094 276.027,387.427 274.5,387.5C 273.738,385.738 272.404,384.738 270.5,384.5C 269.5,384.167 268.833,383.5 268.5,382.5C 268.027,381.094 267.027,380.427 265.5,380.5C 263.833,379.5 262.5,378.167 261.5,376.5C 261.027,375.094 260.027,374.427 258.5,374.5C 254.869,371.371 251.369,368.037 248,364.5C 228.577,383.923 206.41,399.423 181.5,411C 174.427,413.971 167.094,415.804 159.5,416.5C 153.167,416.5 146.833,416.5 140.5,416.5C 138.485,415.076 136.152,414.41 133.5,414.5C 130.151,413.831 127.484,412.164 125.5,409.5C 125.027,408.094 124.027,407.427 122.5,407.5C 111.794,396.07 105.961,382.403 105,366.5C 102.857,344.883 104.357,323.549 109.5,302.5C 111.04,300.162 111.706,297.495 111.5,294.5C 111.216,292.585 111.549,290.919 112.5,289.5C 113.404,288.791 113.737,287.791 113.5,286.5C 112.5,286.5 111.5,286.5 110.5,286.5C 107.495,284.723 104.162,283.723 100.5,283.5C 90.4507,280.817 80.7841,277.151 71.5,272.5C 71.0269,271.094 70.0269,270.427 68.5,270.5C 68.1667,270.5 67.8333,270.5 67.5,270.5C 67.0269,269.094 66.0269,268.427 64.5,268.5C 64.1667,268.5 63.8333,268.5 63.5,268.5C 63.0269,267.094 62.0269,266.427 60.5,266.5C 59.5084,266.672 58.8417,266.338 58.5,265.5C 58.0269,264.094 57.0269,263.427 55.5,263.5C 54.5084,263.672 53.8417,263.338 53.5,262.5C 53.0269,261.094 52.0269,260.427 50.5,260.5C 50.0269,259.094 49.0269,258.427 47.5,258.5C 44.4669,256.984 41.8003,254.984 39.5,252.5C 38.7377,250.738 37.4044,249.738 35.5,249.5C 31.1667,245.833 27.1667,241.833 23.5,237.5C 23.4456,235.368 22.4456,234.035 20.5,233.5C 10.3105,220.275 8.97715,206.275 16.5,191.5C 18.4077,190.514 19.4077,188.848 19.5,186.5C 19.7376,184.596 20.7376,183.262 22.5,182.5C 23.9063,182.027 24.573,181.027 24.5,179.5C 26.5,176.833 28.8333,174.5 31.5,172.5C 34.4274,171.243 36.7607,169.243 38.5,166.5C 40.5313,164.478 42.8646,162.811 45.5,161.5C 47.0269,161.573 48.0269,160.906 48.5,159.5C 50.0269,159.573 51.0269,158.906 51.5,157.5C 51.8417,156.662 52.5084,156.328 53.5,156.5C 55.0269,156.573 56.0269,155.906 56.5,154.5C 59.5154,152.326 62.8487,150.659 66.5,149.5C 70.8469,149.111 74.5136,147.444 77.5,144.5C 80.491,144.834 82.8243,143.834 84.5,141.5C 87.716,141.655 90.3826,140.655 92.5,138.5C 94.4214,137.637 96.4214,136.971 98.5,136.5C 101.495,136.706 104.162,136.04 106.5,134.5C 108.861,134.326 111.194,133.993 113.5,133.5C 113.768,131.901 113.434,130.568 112.5,129.5C 110.885,124.646 109.885,119.646 109.5,114.5C 109.889,111.447 109.223,108.78 107.5,106.5C 106.044,100.606 105.377,94.6057 105.5,88.5C 105.5,76.5 105.5,64.5 105.5,52.5C 105.344,48.2357 106.011,44.2357 107.5,40.5C 108.924,38.4855 109.59,36.1522 109.5,33.5C 109.872,29.7029 111.206,26.3695 113.5,23.5C 115.408,22.5144 116.408,20.8477 116.5,18.5C 117.906,18.0269 118.573,17.0269 118.5,15.5C 120.9,12.0969 123.9,9.4302 127.5,7.5C 129.027,7.57298 130.027,6.90632 130.5,5.5C 133.855,5.31036 136.855,4.31036 139.5,2.5C 147.848,2.54263 156.181,2.87596 164.5,3.5C 177.274,6.38595 189.274,11.2193 200.5,18C 216.836,28.1731 231.836,40.0065 245.5,53.5C 245.843,55.2252 246.843,55.7252 248.5,55C 251.371,52.2972 254.038,49.4639 256.5,46.5C 259.427,45.2427 261.761,43.2427 263.5,40.5C 263.833,39.5 264.5,38.8333 265.5,38.5C 267.749,37.9202 269.415,36.5869 270.5,34.5C 273.19,31.8154 276.19,29.4821 279.5,27.5C 281.027,27.573 282.027,26.9063 282.5,25.5C 284.975,22.7589 287.975,20.7589 291.5,19.5C 293.027,19.573 294.027,18.9063 294.5,17.5C 296.181,15.9925 298.181,14.9925 300.5,14.5C 302.027,14.573 303.027,13.9063 303.5,12.5C 307.866,9.98838 312.533,7.98838 317.5,6.5C 322.165,5.9431 326.498,4.60976 330.5,2.5C 355.067,-3.38419 372.067,5.28248 381.5,28.5 Z M 357.5,16.5 C 357.973,17.9063 358.973,18.573 360.5,18.5C 364.991,23.4683 368.491,29.135 371,35.5C 375.89,53.6315 377.224,71.9648 375,90.5C 373.489,101.9 371.656,113.233 369.5,124.5C 368.566,125.568 368.232,126.901 368.5,128.5C 367.5,128.5 366.5,128.5 365.5,128.5C 363.283,127.631 360.95,127.298 358.5,127.5C 356.401,126.388 354.067,125.721 351.5,125.5C 337.333,122.381 322.999,120.381 308.5,119.5C 305.344,118.566 302.011,117.899 298.5,117.5C 298.573,115.973 297.906,114.973 296.5,114.5C 296.262,112.596 295.262,111.262 293.5,110.5C 293.573,108.973 292.906,107.973 291.5,107.5C 291.573,105.973 290.906,104.973 289.5,104.5C 288.299,102.091 286.633,100.091 284.5,98.5C 284.573,96.9731 283.906,95.9731 282.5,95.5C 281.299,93.0905 279.633,91.0905 277.5,89.5C 277.262,87.5956 276.262,86.2623 274.5,85.5C 274.167,84.5 273.5,83.8333 272.5,83.5C 272.573,81.9731 271.906,80.9731 270.5,80.5C 269.5,78.8333 268.167,77.5 266.5,76.5C 266.573,74.9731 265.906,73.9731 264.5,73.5C 262.205,70.7029 259.705,68.0362 257,65.5C 256.333,64.8333 256.333,64.1667 257,63.5C 277.113,42.0508 300.947,26.2175 328.5,16C 338.293,12.6262 347.96,12.7928 357.5,16.5 Z M 158.5,14.5 C 160.905,15.7682 163.572,16.4349 166.5,16.5C 175.549,20.1872 184.549,24.1872 193.5,28.5C 193.973,29.9063 194.973,30.573 196.5,30.5C 202.143,34.4676 207.81,38.4676 213.5,42.5C 213.973,43.9063 214.973,44.573 216.5,44.5C 216.833,45.5 217.5,46.1667 218.5,46.5C 218.973,47.9063 219.973,48.573 221.5,48.5C 222.5,50.1667 223.833,51.5 225.5,52.5C 225.973,53.9063 226.973,54.573 228.5,54.5C 230.833,57.5 233.5,60.1667 236.5,62.5C 236.611,63.1174 236.944,63.6174 237.5,64C 236.177,64.8159 235.511,65.9826 235.5,67.5C 233.167,69.1667 231.167,71.1667 229.5,73.5C 227.738,74.2623 226.738,75.5956 226.5,77.5C 224.833,78.5 223.5,79.8333 222.5,81.5C 221.094,81.9731 220.427,82.9731 220.5,84.5C 219.5,84.8333 218.833,85.5 218.5,86.5C 216.738,87.2623 215.738,88.5956 215.5,90.5C 213.367,92.0905 211.701,94.0905 210.5,96.5C 209.094,96.9731 208.427,97.9731 208.5,99.5C 207.5,99.8333 206.833,100.5 206.5,101.5C 205.094,101.973 204.427,102.973 204.5,104.5C 201.025,108.104 198.025,112.104 195.5,116.5C 191.601,118.019 187.601,119.019 183.5,119.5C 166.244,120.765 149.244,123.432 132.5,127.5C 130.051,128.057 127.718,128.057 125.5,127.5C 124.867,124.268 123.867,121.268 122.5,118.5C 121.546,110.403 120.213,102.403 118.5,94.5C 117.694,81.1829 117.361,67.8496 117.5,54.5C 119.012,46.4635 121.178,38.4635 124,30.5C 131.292,16.658 142.792,11.3246 158.5,14.5 Z M 223.5,116.5 C 219.614,116.735 215.614,116.402 211.5,115.5C 222.603,101.015 234.436,87.0146 247,73.5C 259.667,87.0196 271.5,101.186 282.5,116C 262.775,115.306 243.108,115.472 223.5,116.5 Z M 264.5,128.5 C 273.657,129.53 282.99,130.196 292.5,130.5C 293.026,132.23 294.026,133.564 295.5,134.5C 298.472,140.122 301.805,145.455 305.5,150.5C 305.932,151.71 306.599,152.71 307.5,153.5C 310.914,159.997 314.581,166.33 318.5,172.5C 318.932,173.71 319.599,174.71 320.5,175.5C 321.167,176.833 321.833,178.167 322.5,179.5C 322.932,180.71 323.599,181.71 324.5,182.5C 328.656,190.811 332.822,199.145 337,207.5C 337.18,209.488 337.014,211.488 336.5,213.5C 335.094,213.973 334.427,214.973 334.5,216.5C 331.008,222.151 328.008,228.151 325.5,234.5C 324.094,234.973 323.427,235.973 323.5,237.5C 322.326,238.514 321.66,239.847 321.5,241.5C 320.094,241.973 319.427,242.973 319.5,244.5C 317.992,246.181 316.992,248.181 316.5,250.5C 314.75,251.659 313.75,253.326 313.5,255.5C 312.094,255.973 311.427,256.973 311.5,258.5C 310.4,259.605 309.733,260.938 309.5,262.5C 308.094,262.973 307.427,263.973 307.5,265.5C 306.094,265.973 305.427,266.973 305.5,268.5C 303.917,270.663 302.584,272.996 301.5,275.5C 300.094,275.973 299.427,276.973 299.5,278.5C 298.094,278.973 297.427,279.973 297.5,281.5C 296.094,281.973 295.427,282.973 295.5,284.5C 294.094,284.973 293.427,285.973 293.5,287.5C 287.732,288.126 282.066,288.793 276.5,289.5C 251.477,289.873 226.477,289.373 201.5,288C 199.934,285.674 198.268,283.508 196.5,281.5C 196.573,279.973 195.906,278.973 194.5,278.5C 194.573,276.973 193.906,275.973 192.5,275.5C 192.573,273.973 191.906,272.973 190.5,272.5C 190.573,270.973 189.906,269.973 188.5,269.5C 188.672,268.508 188.338,267.842 187.5,267.5C 187.573,265.973 186.906,264.973 185.5,264.5C 185.672,263.508 185.338,262.842 184.5,262.5C 184.573,260.973 183.906,259.973 182.5,259.5C 182.573,257.973 181.906,256.973 180.5,256.5C 180.672,255.508 180.338,254.842 179.5,254.5C 179.573,252.973 178.906,251.973 177.5,251.5C 177.34,249.847 176.674,248.514 175.5,247.5C 175.573,245.973 174.906,244.973 173.5,244.5C 173.34,242.847 172.674,241.514 171.5,240.5C 171.573,238.973 170.906,237.973 169.5,237.5C 165.155,228.968 160.989,220.301 157,211.5C 156.333,209.833 156.333,208.167 157,206.5C 169.985,180.518 184.485,155.518 200.5,131.5C 203.821,130.67 207.154,130.003 210.5,129.5C 228.701,128.806 246.701,128.472 264.5,128.5 Z M 179.5,132.5 C 181.099,132.232 182.432,132.566 183.5,133.5C 183.5,133.833 183.5,134.167 183.5,134.5C 182.094,134.973 181.427,135.973 181.5,137.5C 179.05,139.629 177.383,142.296 176.5,145.5C 175.094,145.973 174.427,146.973 174.5,148.5C 173.662,148.842 173.328,149.508 173.5,150.5C 172.094,150.973 171.427,151.973 171.5,153.5C 169.75,154.659 168.75,156.326 168.5,158.5C 166.412,160.336 165.079,162.669 164.5,165.5C 163.662,165.842 163.328,166.508 163.5,167.5C 162.094,167.973 161.427,168.973 161.5,170.5C 160.326,171.514 159.66,172.847 159.5,174.5C 158.094,174.973 157.427,175.973 157.5,177.5C 154.308,182.55 151.642,187.883 149.5,193.5C 148.833,193.167 148.167,192.833 147.5,192.5C 144.362,183.75 141.028,175.083 137.5,166.5C 137.065,163.843 136.065,161.509 134.5,159.5C 133.037,153.776 131.37,148.109 129.5,142.5C 130.167,141.833 130.833,141.167 131.5,140.5C 147.386,137.19 163.386,134.523 179.5,132.5 Z M 309.5,133.5 C 310.568,132.566 311.901,132.232 313.5,132.5C 326.813,134.629 340.147,136.629 353.5,138.5C 355.838,140.04 358.505,140.706 361.5,140.5C 361.833,140.5 362.167,140.5 362.5,140.5C 363.167,141.167 363.833,141.833 364.5,142.5C 364.5,142.833 364.5,143.167 364.5,143.5C 363.463,144.93 362.796,146.597 362.5,148.5C 362.5,148.833 362.5,149.167 362.5,149.5C 361.463,150.93 360.796,152.597 360.5,154.5C 359.434,156.701 358.767,159.035 358.5,161.5C 356.935,163.509 355.935,165.843 355.5,168.5C 352.302,176.095 349.302,183.761 346.5,191.5C 345.5,192.833 344.5,192.833 343.5,191.5C 343.573,189.973 342.906,188.973 341.5,188.5C 340.341,184.849 338.674,181.515 336.5,178.5C 336.573,176.973 335.906,175.973 334.5,175.5C 334.008,173.181 333.008,171.181 331.5,169.5C 331.573,167.973 330.906,166.973 329.5,166.5C 329.672,165.508 329.338,164.842 328.5,164.5C 328.573,162.973 327.906,161.973 326.5,161.5C 326.34,159.847 325.674,158.514 324.5,157.5C 324.573,155.973 323.906,154.973 322.5,154.5C 322.672,153.508 322.338,152.842 321.5,152.5C 321.573,150.973 320.906,149.973 319.5,149.5C 318.89,147.566 317.89,145.899 316.5,144.5C 316.573,142.973 315.906,141.973 314.5,141.5C 313.89,139.566 312.89,137.899 311.5,136.5C 311.573,134.973 310.906,133.973 309.5,133.5 Z M 141.5,210.5 C 140.094,210.973 139.427,211.973 139.5,213.5C 133.578,226.601 128.244,239.935 123.5,253.5C 122.463,254.93 121.796,256.597 121.5,258.5C 121.167,259.833 120.833,261.167 120.5,262.5C 119.076,264.515 118.41,266.848 118.5,269.5C 117.661,270.641 116.994,271.974 116.5,273.5C 115.675,274.386 114.675,274.719 113.5,274.5C 96.5349,269.4 80.2016,262.733 64.5,254.5C 63.7095,253.599 62.7095,252.932 61.5,252.5C 60.1667,251.833 58.8333,251.167 57.5,250.5C 56.5637,249.026 55.2303,248.026 53.5,247.5C 46.6509,242.89 40.3175,237.557 34.5,231.5C 34.2624,229.596 33.2624,228.262 31.5,227.5C 31.573,225.973 30.9063,224.973 29.5,224.5C 28.7729,222.046 27.7729,219.713 26.5,217.5C 26.2041,215.597 25.5375,213.93 24.5,212.5C 25.5165,199.303 31.1832,188.469 41.5,180C 63.9974,163.503 88.8307,151.67 116,144.5C 123.225,167.012 131.725,189.012 141.5,210.5 Z M 379.5,145.5 C 380.167,145.5 380.833,145.5 381.5,145.5C 385.94,147.538 390.607,149.204 395.5,150.5C 408.209,155.022 420.542,160.356 432.5,166.5C 432.973,167.906 433.973,168.573 435.5,168.5C 435.842,169.338 436.508,169.672 437.5,169.5C 437.973,170.906 438.973,171.573 440.5,171.5C 440.973,172.906 441.973,173.573 443.5,173.5C 444.262,175.262 445.596,176.262 447.5,176.5C 448.585,178.587 450.251,179.92 452.5,180.5C 459.455,187.108 464.788,194.774 468.5,203.5C 468.628,207.881 468.295,212.215 467.5,216.5C 463.541,225.413 457.874,233.08 450.5,239.5C 448.251,240.08 446.585,241.413 445.5,243.5C 443.973,243.427 442.973,244.094 442.5,245.5C 440.973,245.427 439.973,246.094 439.5,247.5C 438.29,247.932 437.29,248.599 436.5,249.5C 434.973,249.427 433.973,250.094 433.5,251.5C 431.847,251.66 430.514,252.326 429.5,253.5C 427.973,253.427 426.973,254.094 426.5,255.5C 420.584,257.797 414.918,260.463 409.5,263.5C 406.603,264.129 403.936,265.129 401.5,266.5C 399.421,266.971 397.421,267.637 395.5,268.5C 390.607,269.796 385.94,271.462 381.5,273.5C 380.167,273.5 378.833,273.5 377.5,273.5C 377.59,270.848 376.924,268.515 375.5,266.5C 375.5,266.167 375.5,265.833 375.5,265.5C 375.204,263.597 374.537,261.93 373.5,260.5C 367.757,242.843 360.757,225.677 352.5,209C 362.178,188.797 370.178,167.963 376.5,146.5C 377.391,145.89 378.391,145.557 379.5,145.5 Z M 344.5,224.5 C 345.167,225.167 345.833,225.833 346.5,226.5C 353.398,242.96 359.731,259.627 365.5,276.5C 362.833,277.5 360.167,278.5 357.5,279.5C 352.041,279.992 346.708,280.992 341.5,282.5C 337.295,282.717 333.295,283.383 329.5,284.5C 329.167,284.5 328.833,284.5 328.5,284.5C 322.971,284.879 317.471,285.545 312,286.5C 310.93,286.472 310.097,286.139 309.5,285.5C 322.427,265.99 334.094,245.657 344.5,224.5 Z M 149.5,225.5 C 151.976,230.926 154.642,236.259 157.5,241.5C 157.932,242.71 158.599,243.71 159.5,244.5C 160.471,246.483 161.471,248.483 162.5,250.5C 162.932,251.71 163.599,252.71 164.5,253.5C 165.901,256.634 167.568,259.634 169.5,262.5C 169.932,263.71 170.599,264.71 171.5,265.5C 175.448,272.559 179.781,279.392 184.5,286C 168.756,285.061 153.089,283.228 137.5,280.5C 135.039,279.469 132.373,278.802 129.5,278.5C 129.5,277.5 129.5,276.5 129.5,275.5C 135.105,259.018 141.105,242.685 147.5,226.5C 148.167,226.167 148.833,225.833 149.5,225.5 Z M 126.5,290.5 C 128.838,292.04 131.505,292.706 134.5,292.5C 150.624,296.058 166.958,298.391 183.5,299.5C 187.601,299.981 191.601,300.981 195.5,302.5C 208.019,320.689 222.019,337.689 237.5,353.5C 237.611,354.117 237.944,354.617 238.5,355C 234.963,358.369 231.629,361.869 228.5,365.5C 225.911,366.419 223.911,368.086 222.5,370.5C 220.251,371.08 218.585,372.413 217.5,374.5C 215.596,374.738 214.262,375.738 213.5,377.5C 211.596,377.738 210.262,378.738 209.5,380.5C 207.973,380.427 206.973,381.094 206.5,382.5C 204.973,382.427 203.973,383.094 203.5,384.5C 201.973,384.427 200.973,385.094 200.5,386.5C 199.508,386.328 198.842,386.662 198.5,387.5C 196.973,387.427 195.973,388.094 195.5,389.5C 193.847,389.66 192.514,390.326 191.5,391.5C 189.973,391.427 188.973,392.094 188.5,393.5C 181.07,397.088 173.403,400.088 165.5,402.5C 162.311,402.858 159.311,403.525 156.5,404.5C 150.032,404.849 143.699,404.183 137.5,402.5C 136.035,401.263 134.368,400.263 132.5,399.5C 131.167,397.5 129.5,395.833 127.5,394.5C 127.573,392.973 126.906,391.973 125.5,391.5C 124.773,389.046 123.773,386.713 122.5,384.5C 122.204,382.597 121.537,380.93 120.5,379.5C 118.592,369.232 117.258,358.899 116.5,348.5C 117.507,334.105 119.174,319.772 121.5,305.5C 122.531,303.039 123.198,300.373 123.5,297.5C 124.055,294.904 125.055,292.571 126.5,290.5 Z M 365.5,290.5 C 366.833,290.5 368.167,290.5 369.5,290.5C 369.263,291.791 369.596,292.791 370.5,293.5C 370.517,295.565 370.85,297.565 371.5,299.5C 371.802,302.373 372.469,305.039 373.5,307.5C 374.09,314.361 375.09,321.028 376.5,327.5C 376.415,337.35 376.415,347.35 376.5,357.5C 375.67,362.807 375.003,368.141 374.5,373.5C 373.542,375.302 372.875,377.302 372.5,379.5C 372.5,379.833 372.5,380.167 372.5,380.5C 371.463,381.93 370.796,383.597 370.5,385.5C 369.463,386.93 368.796,388.597 368.5,390.5C 367.094,390.973 366.427,391.973 366.5,393.5C 364.738,394.262 363.738,395.596 363.5,397.5C 362.5,397.833 361.833,398.5 361.5,399.5C 359.973,399.427 358.973,400.094 358.5,401.5C 357.508,401.328 356.842,401.662 356.5,402.5C 349.632,404.225 342.632,404.892 335.5,404.5C 314.255,398.878 295.255,389.045 278.5,375C 271.629,368.625 264.629,362.458 257.5,356.5C 258.234,355.292 258.567,353.959 258.5,352.5C 273.47,336.405 287.137,319.239 299.5,301C 321.803,299.124 343.803,295.624 365.5,290.5 Z M 282.5,303.5 C 280.738,304.262 279.738,305.596 279.5,307.5C 278.094,307.973 277.427,308.973 277.5,310.5C 276.5,310.833 275.833,311.5 275.5,312.5C 274.094,312.973 273.427,313.973 273.5,315.5C 271.738,316.262 270.738,317.596 270.5,319.5C 268.413,320.585 267.08,322.251 266.5,324.5C 264.177,327.126 261.843,329.793 259.5,332.5C 258.094,332.973 257.427,333.973 257.5,335.5C 255.833,336.5 254.5,337.833 253.5,339.5C 252.094,339.973 251.427,340.973 251.5,342.5C 250.167,343.167 249.167,344.167 248.5,345.5C 246.5,343.833 244.5,342.167 242.5,340.5C 240.833,338.167 238.833,336.167 236.5,334.5C 235.92,332.251 234.587,330.585 232.5,329.5C 232.167,328.5 231.5,327.833 230.5,327.5C 230.262,325.596 229.262,324.262 227.5,323.5C 227.167,322.5 226.5,321.833 225.5,321.5C 225.573,319.973 224.906,318.973 223.5,318.5C 222.299,316.091 220.633,314.091 218.5,312.5C 218.573,310.973 217.906,309.973 216.5,309.5C 215.206,307.093 213.539,304.926 211.5,303C 221.847,302.295 232.181,302.462 242.5,303.5C 255.73,302.921 268.897,302.254 282,301.5C 282.464,302.094 282.631,302.761 282.5,303.5 Z"/></g>
<g><path style="opacity:0.741" fill="#96e3f4" d="M 139.5,2.5 C 136.855,4.31036 133.855,5.31036 130.5,5.5C 133.084,3.52751 136.084,2.52751 139.5,2.5 Z"/></g>
<g><path style="opacity:0.937" fill="#89e3f6" d="M 330.5,2.5 C 326.498,4.60976 322.165,5.9431 317.5,6.5C 321.502,4.39024 325.835,3.0569 330.5,2.5 Z"/></g>
<g><path style="opacity:0.663" fill="#aaedfb" d="M 130.5,5.5 C 130.027,6.90632 129.027,7.57298 127.5,7.5C 127.973,6.09368 128.973,5.42702 130.5,5.5 Z"/></g>
<g><path style="opacity:0.675" fill="#abf0fe" d="M 303.5,12.5 C 303.027,13.9063 302.027,14.573 300.5,14.5C 300.973,13.0937 301.973,12.427 303.5,12.5 Z"/></g>
<g><path style="opacity:0.741" fill="#aceffc" d="M 158.5,14.5 C 161.495,14.2938 164.162,14.9605 166.5,16.5C 163.572,16.4349 160.905,15.7682 158.5,14.5 Z"/></g>
<g><path style="opacity:0.306" fill="#beeef8" d="M 118.5,15.5 C 118.573,17.0269 117.906,18.0269 116.5,18.5C 116.427,16.9731 117.094,15.9731 118.5,15.5 Z"/></g>
<g><path style="opacity:0.341" fill="#b4e7f0" d="M 357.5,16.5 C 359.027,16.427 360.027,17.0937 360.5,18.5C 358.973,18.573 357.973,17.9063 357.5,16.5 Z"/></g>
<g><path style="opacity:0.561" fill="#afe6f2" d="M 294.5,17.5 C 294.027,18.9063 293.027,19.573 291.5,19.5C 291.973,18.0937 292.973,17.427 294.5,17.5 Z"/></g>
<g><path style="opacity:1" fill="#96e9fd" d="M 116.5,18.5 C 116.408,20.8477 115.408,22.5144 113.5,23.5C 113.75,21.326 114.75,19.6594 116.5,18.5 Z"/></g>
<g><path style="opacity:0.592" fill="#a6e5f1" d="M 282.5,25.5 C 282.027,26.9063 281.027,27.573 279.5,27.5C 279.973,26.0937 280.973,25.427 282.5,25.5 Z"/></g>
<g><path style="opacity:0.4" fill="#adf0fe" d="M 193.5,28.5 C 195.027,28.427 196.027,29.0937 196.5,30.5C 194.973,30.573 193.973,29.9063 193.5,28.5 Z"/></g>
<g><path style="opacity:1" fill="#9ae8f9" d="M 381.5,28.5 C 383.806,32.0845 385.139,36.0845 385.5,40.5C 383.589,36.767 382.256,32.767 381.5,28.5 Z"/></g>
<g><path style="opacity:0.808" fill="#99e4f4" d="M 270.5,34.5 C 269.415,36.5869 267.749,37.9202 265.5,38.5C 266.585,36.4131 268.251,35.0798 270.5,34.5 Z"/></g>
<g><path style="opacity:0.518" fill="#adf0fd" d="M 109.5,33.5 C 109.59,36.1522 108.924,38.4855 107.5,40.5C 107.41,37.8478 108.076,35.5145 109.5,33.5 Z"/></g>
<g><path style="opacity:0.612" fill="#afe6f2" d="M 213.5,42.5 C 215.027,42.427 216.027,43.0937 216.5,44.5C 214.973,44.573 213.973,43.9063 213.5,42.5 Z"/></g>
<g><path style="opacity:0.788" fill="#8fe6f8" d="M 263.5,40.5 C 261.761,43.2427 259.427,45.2427 256.5,46.5C 258.239,43.7573 260.573,41.7573 263.5,40.5 Z"/></g>
<g><path style="opacity:0.561" fill="#baf2fd" d="M 218.5,46.5 C 220.027,46.427 221.027,47.0937 221.5,48.5C 219.973,48.573 218.973,47.9063 218.5,46.5 Z"/></g>
<g><path style="opacity:0.541" fill="#b6e7f1" d="M 225.5,52.5 C 227.027,52.427 228.027,53.0937 228.5,54.5C 226.973,54.573 225.973,53.9063 225.5,52.5 Z"/></g>
<g><path style="opacity:0.624" fill="#abe8f5" d="M 256.5,46.5 C 254.038,49.4639 251.371,52.2972 248.5,55C 246.843,55.7252 245.843,55.2252 245.5,53.5C 246.117,53.6107 246.617,53.944 247,54.5C 249.766,51.2232 252.933,48.5566 256.5,46.5 Z"/></g>
<g><path style="opacity:0.633" fill="#a5e9f6" d="M 105.5,52.5 C 105.5,64.5 105.5,76.5 105.5,88.5C 103.486,76.4639 103.486,64.4639 105.5,52.5 Z"/></g>
<g><path style="opacity:0.506" fill="#b4e7f1" d="M 236.5,62.5 C 239.03,64.3297 238.697,65.9963 235.5,67.5C 235.511,65.9826 236.177,64.8159 237.5,64C 236.944,63.6174 236.611,63.1174 236.5,62.5 Z"/></g>
<g><path style="opacity:0.573" fill="#b0e6f1" d="M 229.5,73.5 C 229.262,75.4044 228.262,76.7377 226.5,77.5C 226.738,75.5956 227.738,74.2623 229.5,73.5 Z"/></g>
<g><path style="opacity:0.525" fill="#bbf3fe" d="M 264.5,73.5 C 265.906,73.9731 266.573,74.9731 266.5,76.5C 265.094,76.0269 264.427,75.0269 264.5,73.5 Z"/></g>
<g><path style="opacity:0.561" fill="#b6effb" d="M 270.5,80.5 C 271.906,80.9731 272.573,81.9731 272.5,83.5C 271.094,83.0269 270.427,82.0269 270.5,80.5 Z"/></g>
<g><path style="opacity:0.561" fill="#b5e8f2" d="M 222.5,81.5 C 222.573,83.0269 221.906,84.0269 220.5,84.5C 220.427,82.9731 221.094,81.9731 222.5,81.5 Z"/></g>
<g><path style="opacity:0.671" fill="#b7f1fe" d="M 274.5,85.5 C 276.262,86.2623 277.262,87.5956 277.5,89.5C 275.738,88.7377 274.738,87.4044 274.5,85.5 Z"/></g>
<g><path style="opacity:0.671" fill="#ace6f2" d="M 218.5,86.5 C 218.262,88.4044 217.262,89.7377 215.5,90.5C 215.738,88.5956 216.738,87.2623 218.5,86.5 Z"/></g>
<g><path style="opacity:0.541" fill="#baecf6" d="M 117.5,54.5 C 117.361,67.8496 117.694,81.1829 118.5,94.5C 116.973,86.8935 116.307,79.0602 116.5,71C 116.501,65.3229 116.834,59.8229 117.5,54.5 Z"/></g>
<g><path style="opacity:0.651" fill="#aceffc" d="M 282.5,95.5 C 283.906,95.9731 284.573,96.9731 284.5,98.5C 283.094,98.0269 282.427,97.0269 282.5,95.5 Z"/></g>
<g><path style="opacity:0.639" fill="#a6e5f2" d="M 210.5,96.5 C 210.573,98.0269 209.906,99.0269 208.5,99.5C 208.427,97.9731 209.094,96.9731 210.5,96.5 Z"/></g>
<g><path style="opacity:0.353" fill="#b6e7f1" d="M 206.5,101.5 C 206.573,103.027 205.906,104.027 204.5,104.5C 204.427,102.973 205.094,101.973 206.5,101.5 Z"/></g>
<g><path style="opacity:0.298" fill="#bce9f2" d="M 289.5,104.5 C 290.906,104.973 291.573,105.973 291.5,107.5C 290.094,107.027 289.427,106.027 289.5,104.5 Z"/></g>
<g><path style="opacity:0.675" fill="#acf0fe" d="M 107.5,106.5 C 109.223,108.78 109.889,111.447 109.5,114.5C 108.469,112.039 107.802,109.373 107.5,106.5 Z"/></g>
<g><path style="opacity:0.435" fill="#aae6f2" d="M 291.5,107.5 C 292.906,107.973 293.573,108.973 293.5,110.5C 292.094,110.027 291.427,109.027 291.5,107.5 Z"/></g>
<g><path style="opacity:0.384" fill="#aceaf5" d="M 211.5,115.5 C 215.614,116.402 219.614,116.735 223.5,116.5C 219.317,117.811 214.984,117.811 210.5,116.5C 210.624,115.893 210.957,115.56 211.5,115.5 Z"/></g>
<g><path style="opacity:0.416" fill="#afeffc" d="M 296.5,114.5 C 297.906,114.973 298.573,115.973 298.5,117.5C 297.094,117.027 296.427,116.027 296.5,114.5 Z"/></g>
<g><path style="opacity:0.529" fill="#a8ecfa" d="M 195.5,116.5 C 195.586,117.496 195.252,118.329 194.5,119C 190.848,119.499 187.182,119.665 183.5,119.5C 187.601,119.019 191.601,118.019 195.5,116.5 Z"/></g>
<g><path style="opacity:0.404" fill="#b7e9f3" d="M 298.5,117.5 C 302.011,117.899 305.344,118.566 308.5,119.5C 305.482,119.665 302.482,119.498 299.5,119C 298.944,118.617 298.611,118.117 298.5,117.5 Z"/></g>
<g><path style="opacity:0.678" fill="#a9effe" d="M 383.5,119.5 C 383.198,122.373 382.531,125.039 381.5,127.5C 381.111,124.447 381.777,121.78 383.5,119.5 Z"/></g>
<g><path style="opacity:0.58" fill="#a9edfb" d="M 351.5,125.5 C 354.067,125.721 356.401,126.388 358.5,127.5C 355.772,127.829 353.438,127.163 351.5,125.5 Z"/></g>
<g><path style="opacity:0.523" fill="#95e9f9" d="M 264.5,128.5 C 246.701,128.472 228.701,128.806 210.5,129.5C 221.633,128.066 232.967,127.4 244.5,127.5C 251.342,127.5 258.009,127.834 264.5,128.5 Z"/></g>
<g><path style="opacity:0.655" fill="#b6eaf5" d="M 369.5,124.5 C 369.5,126.167 369.5,127.833 369.5,129.5C 367.901,129.768 366.568,129.434 365.5,128.5C 366.5,128.5 367.5,128.5 368.5,128.5C 368.232,126.901 368.566,125.568 369.5,124.5 Z"/></g>
<g><path style="opacity:0.969" fill="#97e8fa" d="M 122.5,118.5 C 123.867,121.268 124.867,124.268 125.5,127.5C 127.718,128.057 130.051,128.057 132.5,127.5C 130.172,128.718 127.672,129.718 125,130.5C 123.631,126.623 122.798,122.623 122.5,118.5 Z"/></g>
<g><path style="opacity:0.851" fill="#aae8f5" d="M 292.5,130.5 C 294.446,131.035 295.446,132.368 295.5,134.5C 294.026,133.564 293.026,132.23 292.5,130.5 Z"/></g>
<g><path style="opacity:0.086" fill="#dcf8fe" d="M 179.5,132.5 C 181.288,131.378 183.288,131.211 185.5,132C 184.956,132.717 184.289,133.217 183.5,133.5C 182.432,132.566 181.099,132.232 179.5,132.5 Z"/></g>
<g><path style="opacity:0.094" fill="#c8e9ef" d="M 313.5,132.5 C 311.901,132.232 310.568,132.566 309.5,133.5C 308.957,133.44 308.624,133.107 308.5,132.5C 310.299,131.212 311.965,131.212 313.5,132.5 Z"/></g>
<g><path style="opacity:0.784" fill="#9dedfe" d="M 112.5,129.5 C 113.434,130.568 113.768,131.901 113.5,133.5C 111.194,133.993 108.861,134.326 106.5,134.5C 108.214,133.262 110.214,132.595 112.5,132.5C 112.5,131.5 112.5,130.5 112.5,129.5 Z"/></g>
<g><path style="opacity:0.784" fill="#9be5f5" d="M 106.5,134.5 C 104.162,136.04 101.495,136.706 98.5,136.5C 100.905,135.232 103.572,134.565 106.5,134.5 Z"/></g>
<g><path style="opacity:0.294" fill="#b6e7f0" d="M 309.5,133.5 C 310.906,133.973 311.573,134.973 311.5,136.5C 310.094,136.027 309.427,135.027 309.5,133.5 Z"/></g>
<g><path style="opacity:0.341" fill="#b8f2fe" d="M 183.5,134.5 C 183.573,136.027 182.906,137.027 181.5,137.5C 181.427,135.973 182.094,134.973 183.5,134.5 Z"/></g>
<g><path style="opacity:0.655" fill="#ade7f2" d="M 353.5,138.5 C 356.428,138.565 359.095,139.232 361.5,140.5C 358.505,140.706 355.838,140.04 353.5,138.5 Z"/></g>
<g><path style="opacity:0.78" fill="#a2eaf9" d="M 92.5,138.5 C 90.3826,140.655 87.716,141.655 84.5,141.5C 86.936,140.129 89.6027,139.129 92.5,138.5 Z"/></g>
<g><path style="opacity:0.114" fill="#e2f5f8" d="M 131.5,140.5 C 130.833,141.167 130.167,141.833 129.5,142.5C 128.957,142.44 128.624,142.107 128.5,141.5C 129.325,140.614 130.325,140.281 131.5,140.5 Z"/></g>
<g><path style="opacity:0.263" fill="#c2f4fd" d="M 362.5,140.5 C 363.675,140.281 364.675,140.614 365.5,141.5C 365.376,142.107 365.043,142.44 364.5,142.5C 363.833,141.833 363.167,141.167 362.5,140.5 Z"/></g>
<g><path style="opacity:0.976" fill="#91e8fb" d="M 84.5,141.5 C 82.8243,143.834 80.491,144.834 77.5,144.5C 79.5093,142.935 81.8427,141.935 84.5,141.5 Z"/></g>
<g><path style="opacity:0.329" fill="#b8f2fe" d="M 314.5,141.5 C 315.906,141.973 316.573,142.973 316.5,144.5C 315.094,144.027 314.427,143.027 314.5,141.5 Z"/></g>
<g><path style="opacity:0.063" fill="#e5edef" d="M 379.5,145.5 C 378.391,145.557 377.391,145.89 376.5,146.5C 377.053,144.448 378.053,144.115 379.5,145.5 Z"/></g>
<g><path style="opacity:0.812" fill="#aaecf9" d="M 381.5,145.5 C 386.703,146.009 391.37,147.676 395.5,150.5C 390.607,149.204 385.94,147.538 381.5,145.5 Z"/></g>
<g><path style="opacity:0.753" fill="#aff0fe" d="M 364.5,143.5 C 364.88,145.698 364.213,147.365 362.5,148.5C 362.796,146.597 363.463,144.93 364.5,143.5 Z"/></g>
<g><path style="opacity:0.314" fill="#bef3fe" d="M 176.5,145.5 C 176.573,147.027 175.906,148.027 174.5,148.5C 174.427,146.973 175.094,145.973 176.5,145.5 Z"/></g>
<g><path style="opacity:1" fill="#82e4fa" d="M 77.5,144.5 C 74.5136,147.444 70.8469,149.111 66.5,149.5C 69.9252,147.435 73.5919,145.769 77.5,144.5 Z"/></g>
<g><path style="opacity:0.835" fill="#aae8f7" d="M 305.5,150.5 C 307.048,150.821 307.715,151.821 307.5,153.5C 306.599,152.71 305.932,151.71 305.5,150.5 Z"/></g>
<g><path style="opacity:0.29" fill="#b6e7f2" d="M 319.5,149.5 C 320.906,149.973 321.573,150.973 321.5,152.5C 320.094,152.027 319.427,151.027 319.5,149.5 Z"/></g>
<g><path style="opacity:0.42" fill="#b0ecf8" d="M 173.5,150.5 C 173.573,152.027 172.906,153.027 171.5,153.5C 171.427,151.973 172.094,150.973 173.5,150.5 Z"/></g>
<g><path style="opacity:0.745" fill="#adebf8" d="M 362.5,149.5 C 362.88,151.698 362.213,153.365 360.5,154.5C 360.796,152.597 361.463,150.93 362.5,149.5 Z"/></g>
<g><path style="opacity:0.592" fill="#b0e7f1" d="M 56.5,154.5 C 56.0269,155.906 55.0269,156.573 53.5,156.5C 53.9731,155.094 54.9731,154.427 56.5,154.5 Z"/></g>
<g><path style="opacity:0.259" fill="#c2f4fe" d="M 322.5,154.5 C 323.906,154.973 324.573,155.973 324.5,157.5C 323.094,157.027 322.427,156.027 322.5,154.5 Z"/></g>
<g><path style="opacity:1" fill="#94e2f5" d="M 171.5,153.5 C 171.408,155.848 170.408,157.514 168.5,158.5C 168.75,156.326 169.75,154.659 171.5,153.5 Z"/></g>
<g><path style="opacity:0.58" fill="#b1e7f1" d="M 51.5,157.5 C 51.0269,158.906 50.0269,159.573 48.5,159.5C 48.9731,158.094 49.9731,157.427 51.5,157.5 Z"/></g>
<g><path style="opacity:0.62" fill="#aceaf6" d="M 48.5,159.5 C 48.0269,160.906 47.0269,161.573 45.5,161.5C 45.9731,160.094 46.9731,159.427 48.5,159.5 Z"/></g>
<g><path style="opacity:0.941" fill="#a3eafa" d="M 134.5,159.5 C 136.065,161.509 137.065,163.843 137.5,166.5C 135.166,164.824 134.166,162.491 134.5,159.5 Z"/></g>
<g><path style="opacity:1" fill="#91e2f6" d="M 168.5,158.5 C 168.264,161.621 166.931,163.954 164.5,165.5C 165.079,162.669 166.412,160.336 168.5,158.5 Z"/></g>
<g><path style="opacity:0.365" fill="#b1effc" d="M 326.5,161.5 C 327.906,161.973 328.573,162.973 328.5,164.5C 327.094,164.027 326.427,163.027 326.5,161.5 Z"/></g>
<g><path style="opacity:0.882" fill="#aaecfa" d="M 358.5,161.5 C 358.834,164.491 357.834,166.824 355.5,168.5C 355.935,165.843 356.935,163.509 358.5,161.5 Z"/></g>
<g><path style="opacity:1" fill="#20d8fe" d="M 278.5,179.5 C 278.427,181.027 279.094,182.027 280.5,182.5C 283.502,185.161 285.502,188.495 286.5,192.5C 286.259,194.898 286.926,196.898 288.5,198.5C 292.909,221.516 284.576,238.35 263.5,249C 255.92,252.211 248.253,253.045 240.5,251.5C 238.095,250.232 235.428,249.565 232.5,249.5C 229.279,249.104 226.612,247.771 224.5,245.5C 224.027,244.094 223.027,243.427 221.5,243.5C 220.738,241.738 219.404,240.738 217.5,240.5C 215.833,239.5 214.5,238.167 213.5,236.5C 213.446,234.368 212.446,233.035 210.5,232.5C 209.662,232.158 209.328,231.492 209.5,230.5C 209.715,228.821 209.048,227.821 207.5,227.5C 202.175,215.091 202.175,202.757 207.5,190.5C 208.906,190.027 209.573,189.027 209.5,187.5C 210.906,187.027 211.573,186.027 211.5,184.5C 212.906,184.027 213.573,183.027 213.5,181.5C 213.833,180.5 214.5,179.833 215.5,179.5C 216.5,179.167 217.167,178.5 217.5,177.5C 219.749,176.92 221.415,175.587 222.5,173.5C 222.973,172.094 223.973,171.427 225.5,171.5C 227.967,171.245 229.967,170.245 231.5,168.5C 234.152,168.59 236.485,167.924 238.5,166.5C 254.276,163.648 267.609,167.981 278.5,179.5 Z"/></g>
<g><path style="opacity:0.667" fill="#adeaf6" d="M 238.5,166.5 C 236.485,167.924 234.152,168.59 231.5,168.5C 233.515,167.076 235.848,166.41 238.5,166.5 Z"/></g>
<g><path style="opacity:0.243" fill="#c7f4fe" d="M 432.5,166.5 C 434.027,166.427 435.027,167.094 435.5,168.5C 433.973,168.573 432.973,167.906 432.5,166.5 Z"/></g>
<g><path style="opacity:0.949" fill="#aaeefe" d="M 454.5,166.5 C 456.23,167.026 457.564,168.026 458.5,169.5C 456.368,169.446 455.035,168.446 454.5,166.5 Z"/></g>
<g><path style="opacity:0.235" fill="#c7f4fd" d="M 329.5,166.5 C 330.906,166.973 331.573,167.973 331.5,169.5C 330.094,169.027 329.427,168.027 329.5,166.5 Z"/></g>
<g><path style="opacity:0.686" fill="#a5e9f8" d="M 38.5,166.5 C 36.7607,169.243 34.4274,171.243 31.5,172.5C 33.2393,169.757 35.5726,167.757 38.5,166.5 Z"/></g>
<g><path style="opacity:0.263" fill="#b9e7f0" d="M 163.5,167.5 C 163.573,169.027 162.906,170.027 161.5,170.5C 161.427,168.973 162.094,167.973 163.5,167.5 Z"/></g>
<g><path style="opacity:0.529" fill="#a9e5f2" d="M 231.5,168.5 C 229.967,170.245 227.967,171.245 225.5,171.5C 227.033,169.755 229.033,168.755 231.5,168.5 Z"/></g>
<g><path style="opacity:0.337" fill="#b2e6f2" d="M 437.5,169.5 C 439.027,169.427 440.027,170.094 440.5,171.5C 438.973,171.573 437.973,170.906 437.5,169.5 Z"/></g>
<g><path style="opacity:0.804" fill="#a9e5f2" d="M 318.5,172.5 C 320.048,172.821 320.715,173.821 320.5,175.5C 319.599,174.71 318.932,173.71 318.5,172.5 Z"/></g>
<g><path style="opacity:0.384" fill="#aee6f2" d="M 440.5,171.5 C 442.027,171.427 443.027,172.094 443.5,173.5C 441.973,173.573 440.973,172.906 440.5,171.5 Z"/></g>
<g><path style="opacity:0.737" fill="#a9e8f5" d="M 443.5,173.5 C 445.404,173.738 446.738,174.738 447.5,176.5C 445.596,176.262 444.262,175.262 443.5,173.5 Z"/></g>
<g><path style="opacity:0.149" fill="#d3f4fa" d="M 159.5,174.5 C 159.573,176.027 158.906,177.027 157.5,177.5C 157.427,175.973 158.094,174.973 159.5,174.5 Z"/></g>
<g><path style="opacity:0.929" fill="#88e5fa" d="M 222.5,173.5 C 221.415,175.587 219.749,176.92 217.5,177.5C 218.585,175.413 220.251,174.08 222.5,173.5 Z"/></g>
<g><path style="opacity:0.78" fill="#b0eaf6" d="M 447.5,176.5 C 449.749,177.08 451.415,178.413 452.5,180.5C 450.251,179.92 448.585,178.587 447.5,176.5 Z"/></g>
<g><path style="opacity:0.263" fill="#bae8f1" d="M 334.5,175.5 C 335.906,175.973 336.573,176.973 336.5,178.5C 335.094,178.027 334.427,177.027 334.5,175.5 Z"/></g>
<g><path style="opacity:0.322" fill="#c1e8f0" d="M 217.5,177.5 C 217.167,178.5 216.5,179.167 215.5,179.5C 215.5,178.167 216.167,177.5 217.5,177.5 Z"/></g>
<g><path style="opacity:0.847" fill="#adeffe" d="M 322.5,179.5 C 324.048,179.821 324.715,180.821 324.5,182.5C 323.599,181.71 322.932,180.71 322.5,179.5 Z"/></g>
<g><path style="opacity:0.627" fill="#b0e9f4" d="M 24.5,179.5 C 24.573,181.027 23.9063,182.027 22.5,182.5C 22.427,180.973 23.0937,179.973 24.5,179.5 Z"/></g>
<g><path style="opacity:0.529" fill="#bcf2fe" d="M 278.5,179.5 C 279.906,179.973 280.573,180.973 280.5,182.5C 279.094,182.027 278.427,181.027 278.5,179.5 Z"/></g>
<g><path style="opacity:0.686" fill="#a5e7f4" d="M 213.5,181.5 C 213.573,183.027 212.906,184.027 211.5,184.5C 211.427,182.973 212.094,181.973 213.5,181.5 Z"/></g>
<g><path style="opacity:0.431" fill="#acf0fe" d="M 211.5,184.5 C 211.573,186.027 210.906,187.027 209.5,187.5C 209.427,185.973 210.094,184.973 211.5,184.5 Z"/></g>
<g><path style="opacity:0.22" fill="#c7e9ef" d="M 209.5,187.5 C 209.573,189.027 208.906,190.027 207.5,190.5C 207.427,188.973 208.094,187.973 209.5,187.5 Z"/></g>
<g><path style="opacity:1" fill="#90e2f6" d="M 19.5,186.5 C 19.4077,188.848 18.4077,190.514 16.5,191.5C 16.7497,189.326 17.7497,187.659 19.5,186.5 Z"/></g>
<g><path style="opacity:0.235" fill="#c1e9f0" d="M 341.5,188.5 C 342.906,188.973 343.573,189.973 343.5,191.5C 342.094,191.027 341.427,190.027 341.5,188.5 Z"/></g>
<g><path style="opacity:0.361" fill="#c1f3fe" d="M 147.5,192.5 C 148.167,192.833 148.833,193.167 149.5,193.5C 148.699,195.793 148.032,195.46 147.5,192.5 Z"/></g>
<g><path style="opacity:0.106" fill="#daeaee" d="M 343.5,191.5 C 344.5,192.833 345.5,192.833 346.5,191.5C 345.5,195.5 344.5,195.5 343.5,191.5 Z"/></g>
<g><path style="opacity:0.529" fill="#aaf0fe" d="M 286.5,192.5 C 288.074,194.102 288.741,196.102 288.5,198.5C 286.926,196.898 286.259,194.898 286.5,192.5 Z"/></g>
<g><path style="opacity:0.167" fill="#baeffa" d="M 468.5,203.5 C 469.645,207.311 469.812,211.311 469,215.5C 468.617,216.056 468.117,216.389 467.5,216.5C 468.295,212.215 468.628,207.881 468.5,203.5 Z"/></g>
<g><path style="opacity:0.153" fill="#cbeaf0" d="M 141.5,210.5 C 141.573,212.027 140.906,213.027 139.5,213.5C 139.427,211.973 140.094,210.973 141.5,210.5 Z"/></g>
<g><path style="opacity:0.659" fill="#b8f2fe" d="M 24.5,212.5 C 25.5375,213.93 26.2041,215.597 26.5,217.5C 24.7868,216.365 24.1201,214.698 24.5,212.5 Z"/></g>
<g><path style="opacity:0.224" fill="#c8f5fe" d="M 336.5,213.5 C 336.573,215.027 335.906,216.027 334.5,216.5C 334.427,214.973 335.094,213.973 336.5,213.5 Z"/></g>
<g><path style="opacity:0.627" fill="#c0f3fe" d="M 344.5,224.5 C 344.56,223.957 344.893,223.624 345.5,223.5C 346.386,224.325 346.719,225.325 346.5,226.5C 345.833,225.833 345.167,225.167 344.5,224.5 Z"/></g>
<g><path style="opacity:0.078" fill="#d4eaee" d="M 149.5,225.5 C 148.833,225.833 148.167,226.167 147.5,226.5C 148.032,223.54 148.699,223.207 149.5,225.5 Z"/></g>
<g><path style="opacity:0.282" fill="#bbe7f0" d="M 29.5,224.5 C 30.9063,224.973 31.573,225.973 31.5,227.5C 30.0937,227.027 29.427,226.027 29.5,224.5 Z"/></g>
<g><path style="opacity:0.843" fill="#a8eefe" d="M 207.5,227.5 C 209.048,227.821 209.715,228.821 209.5,230.5C 208.599,229.71 207.932,228.71 207.5,227.5 Z"/></g>
<g><path style="opacity:0.663" fill="#b0e7f1" d="M 31.5,227.5 C 33.2624,228.262 34.2624,229.596 34.5,231.5C 32.7376,230.738 31.7376,229.404 31.5,227.5 Z"/></g>
<g><path style="opacity:0.863" fill="#b3effc" d="M 210.5,232.5 C 212.446,233.035 213.446,234.368 213.5,236.5C 212.026,235.564 211.026,234.23 210.5,232.5 Z"/></g>
<g><path style="opacity:0.871" fill="#b1ebf7" d="M 20.5,233.5 C 22.4456,234.035 23.4456,235.368 23.5,237.5C 22.0256,236.564 21.0256,235.23 20.5,233.5 Z"/></g>
<g><path style="opacity:0.239" fill="#c4e8f0" d="M 325.5,234.5 C 325.573,236.027 324.906,237.027 323.5,237.5C 323.427,235.973 324.094,234.973 325.5,234.5 Z"/></g>
<g><path style="opacity:0.263" fill="#c2f3fe" d="M 169.5,237.5 C 170.906,237.973 171.573,238.973 171.5,240.5C 170.094,240.027 169.427,239.027 169.5,237.5 Z"/></g>
<g><path style="opacity:0.004" fill="#d3eaef" d="M 468.5,238.5 C 468.573,240.027 467.906,241.027 466.5,241.5C 466.427,239.973 467.094,238.973 468.5,238.5 Z"/></g>
<g><path style="opacity:0.714" fill="#b3f1fe" d="M 217.5,240.5 C 219.404,240.738 220.738,241.738 221.5,243.5C 219.596,243.262 218.262,242.262 217.5,240.5 Z"/></g>
<g><path style="opacity:0.82" fill="#a6e5f2" d="M 157.5,241.5 C 159.048,241.821 159.715,242.821 159.5,244.5C 158.599,243.71 157.932,242.71 157.5,241.5 Z"/></g>
<g><path style="opacity:0.824" fill="#96e4f5" d="M 450.5,239.5 C 449.415,241.587 447.749,242.92 445.5,243.5C 446.585,241.413 448.251,240.08 450.5,239.5 Z"/></g>
<g><path style="opacity:0.173" fill="#d3eaee" d="M 321.5,241.5 C 321.573,243.027 320.906,244.027 319.5,244.5C 319.427,242.973 320.094,241.973 321.5,241.5 Z"/></g>
<g><path style="opacity:0.482" fill="#a5ecfa" d="M 221.5,243.5 C 223.027,243.427 224.027,244.094 224.5,245.5C 222.973,245.573 221.973,244.906 221.5,243.5 Z"/></g>
<g><path style="opacity:0.624" fill="#a4e5f2" d="M 445.5,243.5 C 445.027,244.906 444.027,245.573 442.5,245.5C 442.973,244.094 443.973,243.427 445.5,243.5 Z"/></g>
<g><path style="opacity:0.259" fill="#c5eff7" d="M 173.5,244.5 C 174.906,244.973 175.573,245.973 175.5,247.5C 174.094,247.027 173.427,246.027 173.5,244.5 Z"/></g>
<g><path style="opacity:0.471" fill="#baeff9" d="M 442.5,245.5 C 442.027,246.906 441.027,247.573 439.5,247.5C 439.973,246.094 440.973,245.427 442.5,245.5 Z"/></g>
<g><path style="opacity:0.839" fill="#ace6f2" d="M 53.5,247.5 C 55.2303,248.026 56.5637,249.026 57.5,250.5C 55.368,250.446 54.0347,249.446 53.5,247.5 Z"/></g>
<g><path style="opacity:0.753" fill="#aff0fe" d="M 35.5,249.5 C 37.4044,249.738 38.7377,250.738 39.5,252.5C 37.5956,252.262 36.2623,251.262 35.5,249.5 Z"/></g>
<g><path style="opacity:0.647" fill="#b0eaf6" d="M 232.5,249.5 C 235.428,249.565 238.095,250.232 240.5,251.5C 237.505,251.706 234.838,251.04 232.5,249.5 Z"/></g>
<g><path style="opacity:0.78" fill="#b4f1fe" d="M 162.5,250.5 C 164.048,250.821 164.715,251.821 164.5,253.5C 163.599,252.71 162.932,251.71 162.5,250.5 Z"/></g>
<g><path style="opacity:0.616" fill="#a7e5f2" d="M 436.5,249.5 C 436.027,250.906 435.027,251.573 433.5,251.5C 433.973,250.094 434.973,249.427 436.5,249.5 Z"/></g>
<g><path style="opacity:0.753" fill="#b6f1fe" d="M 61.5,252.5 C 62.7095,252.932 63.7095,253.599 64.5,254.5C 62.8212,254.715 61.8212,254.048 61.5,252.5 Z"/></g>
<g><path style="opacity:0.259" fill="#c5f4fe" d="M 177.5,251.5 C 178.906,251.973 179.573,252.973 179.5,254.5C 178.094,254.027 177.427,253.027 177.5,251.5 Z"/></g>
<g><path style="opacity:1" fill="#95e2f4" d="M 316.5,250.5 C 316.408,252.848 315.408,254.514 313.5,255.5C 313.75,253.326 314.75,251.659 316.5,250.5 Z"/></g>
<g><path style="opacity:0.588" fill="#afe6f1" d="M 429.5,253.5 C 429.027,254.906 428.027,255.573 426.5,255.5C 426.973,254.094 427.973,253.427 429.5,253.5 Z"/></g>
<g><path style="opacity:0.698" fill="#b0e7f2" d="M 123.5,253.5 C 123.88,255.698 123.213,257.365 121.5,258.5C 121.796,256.597 122.463,254.93 123.5,253.5 Z"/></g>
<g><path style="opacity:0.208" fill="#cbebf1" d="M 313.5,255.5 C 313.573,257.027 312.906,258.027 311.5,258.5C 311.427,256.973 312.094,255.973 313.5,255.5 Z"/></g>
<g><path style="opacity:0.278" fill="#c4eef6" d="M 180.5,256.5 C 181.906,256.973 182.573,257.973 182.5,259.5C 181.094,259.027 180.427,258.027 180.5,256.5 Z"/></g>
<g><path style="opacity:0.333" fill="#bbf2fe" d="M 47.5,258.5 C 49.0269,258.427 50.0269,259.094 50.5,260.5C 48.9731,260.573 47.9731,259.906 47.5,258.5 Z"/></g>
<g><path style="opacity:0.271" fill="#c5f4fe" d="M 50.5,260.5 C 52.0269,260.427 53.0269,261.094 53.5,262.5C 51.9731,262.573 50.9731,261.906 50.5,260.5 Z"/></g>
<g><path style="opacity:0.212" fill="#ceeaef" d="M 182.5,259.5 C 183.906,259.973 184.573,260.973 184.5,262.5C 183.094,262.027 182.427,261.027 182.5,259.5 Z"/></g>
<g><path style="opacity:0.804" fill="#b2f0fe" d="M 169.5,262.5 C 171.048,262.821 171.715,263.821 171.5,265.5C 170.599,264.71 169.932,263.71 169.5,262.5 Z"/></g>
<g><path style="opacity:0.71" fill="#afe6f1" d="M 373.5,260.5 C 374.537,261.93 375.204,263.597 375.5,265.5C 373.787,264.365 373.12,262.698 373.5,260.5 Z"/></g>
<g><path style="opacity:0.267" fill="#c4f3fd" d="M 55.5,263.5 C 57.0269,263.427 58.0269,264.094 58.5,265.5C 56.9731,265.573 55.9731,264.906 55.5,263.5 Z"/></g>
<g><path style="opacity:0.278" fill="#bff3fe" d="M 309.5,262.5 C 309.573,264.027 308.906,265.027 307.5,265.5C 307.427,263.973 308.094,262.973 309.5,262.5 Z"/></g>
<g><path style="opacity:0.682" fill="#b1f1fe" d="M 120.5,262.5 C 120.59,265.152 119.924,267.485 118.5,269.5C 118.41,266.848 119.076,264.515 120.5,262.5 Z"/></g>
<g><path style="opacity:0.804" fill="#99ebfd" d="M 409.5,263.5 C 407.383,265.655 404.716,266.655 401.5,266.5C 403.936,265.129 406.603,264.129 409.5,263.5 Z"/></g>
<g><path style="opacity:0.227" fill="#c9e9ee" d="M 185.5,264.5 C 186.906,264.973 187.573,265.973 187.5,267.5C 186.094,267.027 185.427,266.027 185.5,264.5 Z"/></g>
<g><path style="opacity:0.173" fill="#d0eaee" d="M 60.5,266.5 C 62.0269,266.427 63.0269,267.094 63.5,268.5C 61.9731,268.573 60.9731,267.906 60.5,266.5 Z"/></g>
<g><path style="opacity:0.231" fill="#cdedf4" d="M 307.5,265.5 C 307.573,267.027 306.906,268.027 305.5,268.5C 305.427,266.973 306.094,265.973 307.5,265.5 Z"/></g>
<g><path style="opacity:0.184" fill="#cceff6" d="M 64.5,268.5 C 66.0269,268.427 67.0269,269.094 67.5,270.5C 65.9731,270.573 64.9731,269.906 64.5,268.5 Z"/></g>
<g><path style="opacity:0.675" fill="#aeebf8" d="M 375.5,266.5 C 376.924,268.515 377.59,270.848 377.5,273.5C 376.076,271.485 375.41,269.152 375.5,266.5 Z"/></g>
<g><path style="opacity:0.192" fill="#d0eef4" d="M 68.5,270.5 C 70.0269,270.427 71.0269,271.094 71.5,272.5C 69.9731,272.573 68.9731,271.906 68.5,270.5 Z"/></g>
<g><path style="opacity:0.306" fill="#b8e7f1" d="M 188.5,269.5 C 189.906,269.973 190.573,270.973 190.5,272.5C 189.094,272.027 188.427,271.027 188.5,269.5 Z"/></g>
<g><path style="opacity:0.788" fill="#9be5f4" d="M 395.5,268.5 C 391.37,271.324 386.703,272.991 381.5,273.5C 385.94,271.462 390.607,269.796 395.5,268.5 Z"/></g>
<g><path style="opacity:0.271" fill="#bfe8f0" d="M 190.5,272.5 C 191.906,272.973 192.573,273.973 192.5,275.5C 191.094,275.027 190.427,274.027 190.5,272.5 Z"/></g>
<g><path style="opacity:0.863" fill="#94e9fb" d="M 118.5,269.5 C 118.61,272.059 117.944,274.392 116.5,276.5C 115.261,276.058 114.261,275.391 113.5,274.5C 114.675,274.719 115.675,274.386 116.5,273.5C 116.994,271.974 117.661,270.641 118.5,269.5 Z"/></g>
<g><path style="opacity:0.251" fill="#c4e8f0" d="M 192.5,275.5 C 193.906,275.973 194.573,276.973 194.5,278.5C 193.094,278.027 192.427,277.027 192.5,275.5 Z"/></g>
<g><path style="opacity:0.431" fill="#aef0fe" d="M 301.5,275.5 C 301.573,277.027 300.906,278.027 299.5,278.5C 299.427,276.973 300.094,275.973 301.5,275.5 Z"/></g>
<g><path style="opacity:0.835" fill="#a9ebf9" d="M 129.5,275.5 C 129.5,276.5 129.5,277.5 129.5,278.5C 132.373,278.802 135.039,279.469 137.5,280.5C 133.987,280.693 130.654,280.026 127.5,278.5C 127.942,277.261 128.609,276.261 129.5,275.5 Z"/></g>
<g><path style="opacity:0.651" fill="#a6e5f2" d="M 365.5,276.5 C 366.751,277.472 366.418,278.139 364.5,278.5C 362.218,279.223 359.884,279.557 357.5,279.5C 360.167,278.5 362.833,277.5 365.5,276.5 Z"/></g>
<g><path style="opacity:0.263" fill="#c5e9f0" d="M 194.5,278.5 C 195.906,278.973 196.573,279.973 196.5,281.5C 195.094,281.027 194.427,280.027 194.5,278.5 Z"/></g>
<g><path style="opacity:0.38" fill="#b6f2fe" d="M 299.5,278.5 C 299.573,280.027 298.906,281.027 297.5,281.5C 297.427,279.973 298.094,278.973 299.5,278.5 Z"/></g>
<g><path style="opacity:0.718" fill="#aeecf8" d="M 100.5,283.5 C 104.162,283.723 107.495,284.723 110.5,286.5C 106.838,286.277 103.505,285.277 100.5,283.5 Z"/></g>
<g><path style="opacity:0.384" fill="#b1e6f1" d="M 297.5,281.5 C 297.573,283.027 296.906,284.027 295.5,284.5C 295.427,282.973 296.094,281.973 297.5,281.5 Z"/></g>
<g><path style="opacity:0.741" fill="#abf0fe" d="M 341.5,282.5 C 337.79,284.136 333.79,284.802 329.5,284.5C 333.295,283.383 337.295,282.717 341.5,282.5 Z"/></g>
<g><path style="opacity:0.322" fill="#bcf1fb" d="M 295.5,284.5 C 295.573,286.027 294.906,287.027 293.5,287.5C 293.427,285.973 294.094,284.973 295.5,284.5 Z"/></g>
<g><path style="opacity:0.796" fill="#97e9fa" d="M 328.5,284.5 C 322.071,286.749 315.404,287.415 308.5,286.5C 308.624,285.893 308.957,285.56 309.5,285.5C 310.097,286.139 310.93,286.472 312,286.5C 317.471,285.545 322.971,284.879 328.5,284.5 Z"/></g>
<g><path style="opacity:0.227" fill="#bde7f0" d="M 110.5,286.5 C 111.5,286.5 112.5,286.5 113.5,286.5C 113.737,287.791 113.404,288.791 112.5,289.5C 112.218,288.222 111.551,287.222 110.5,286.5 Z"/></g>
<g><path style="opacity:0.784" fill="#b4effb" d="M 293.5,287.5 C 288.265,289.45 282.598,290.117 276.5,289.5C 282.066,288.793 287.732,288.126 293.5,287.5 Z"/></g>
<g><path style="opacity:0.059" fill="#d7ecf1" d="M 365.5,290.5 C 366.919,289.549 368.585,289.216 370.5,289.5C 370.5,290.833 370.5,292.167 370.5,293.5C 369.596,292.791 369.263,291.791 369.5,290.5C 368.167,290.5 366.833,290.5 365.5,290.5 Z"/></g>
<g><path style="opacity:0.424" fill="#bceaf2" d="M 126.5,290.5 C 129.428,290.565 132.095,291.232 134.5,292.5C 131.505,292.706 128.838,292.04 126.5,290.5 Z"/></g>
<g><path style="opacity:0.816" fill="#9fe5f4" d="M 123.5,297.5 C 123.198,300.373 122.531,303.039 121.5,305.5C 121.337,303.143 121.503,300.81 122,298.5C 122.383,297.944 122.883,297.611 123.5,297.5 Z"/></g>
<g><path style="opacity:0.49" fill="#b8ebf5" d="M 183.5,299.5 C 187.182,299.335 190.848,299.501 194.5,300C 195.252,300.671 195.586,301.504 195.5,302.5C 191.601,300.981 187.601,299.981 183.5,299.5 Z"/></g>
<g><path style="opacity:0.671" fill="#aae6f2" d="M 383.5,295.5 C 384.913,298.219 385.58,301.219 385.5,304.5C 384.087,301.781 383.42,298.781 383.5,295.5 Z"/></g>
<g><path style="opacity:0.42" fill="#b6f1fe" d="M 111.5,294.5 C 111.706,297.495 111.04,300.162 109.5,302.5C 109.565,299.572 110.232,296.905 111.5,294.5 Z"/></g>
<g><path style="opacity:0.529" fill="#bff0fa" d="M 371.5,299.5 C 373.223,301.78 373.889,304.447 373.5,307.5C 372.469,305.039 371.802,302.373 371.5,299.5 Z"/></g>
<g><path style="opacity:0.741" fill="#a8eaf8" d="M 282.5,303.5 C 282.262,305.404 281.262,306.738 279.5,307.5C 279.738,305.596 280.738,304.262 282.5,303.5 Z"/></g>
<g><path style="opacity:0.467" fill="#a5e5f2" d="M 279.5,307.5 C 279.573,309.027 278.906,310.027 277.5,310.5C 277.427,308.973 278.094,307.973 279.5,307.5 Z"/></g>
<g><path style="opacity:0.514" fill="#bff3fe" d="M 216.5,309.5 C 217.906,309.973 218.573,310.973 218.5,312.5C 217.094,312.027 216.427,311.027 216.5,309.5 Z"/></g>
<g><path style="opacity:0.271" fill="#c2e8f0" d="M 275.5,312.5 C 275.573,314.027 274.906,315.027 273.5,315.5C 273.427,313.973 274.094,312.973 275.5,312.5 Z"/></g>
<g><path style="opacity:0.694" fill="#aceaf6" d="M 273.5,315.5 C 273.262,317.404 272.262,318.738 270.5,319.5C 270.738,317.596 271.738,316.262 273.5,315.5 Z"/></g>
<g><path style="opacity:0.612" fill="#b3f1fd" d="M 223.5,318.5 C 224.906,318.973 225.573,319.973 225.5,321.5C 224.094,321.027 223.427,320.027 223.5,318.5 Z"/></g>
<g><path style="opacity:0.498" fill="#b1e6f2" d="M 270.5,319.5 C 269.92,321.749 268.587,323.415 266.5,324.5C 267.08,322.251 268.413,320.585 270.5,319.5 Z"/></g>
<g><path style="opacity:0.639" fill="#b9f2fe" d="M 227.5,323.5 C 229.262,324.262 230.262,325.596 230.5,327.5C 228.738,326.738 227.738,325.404 227.5,323.5 Z"/></g>
<g><path style="opacity:0.753" fill="#b1eaf5" d="M 232.5,329.5 C 234.587,330.585 235.92,332.251 236.5,334.5C 234.413,333.415 233.08,331.749 232.5,329.5 Z"/></g>
<g><path style="opacity:0.216" fill="#c5eef6" d="M 387.5,316.5 C 388.806,321.616 389.473,326.949 389.5,332.5C 388.043,327.402 387.376,322.069 387.5,316.5 Z"/></g>
<g><path style="opacity:0.522" fill="#b9e8f1" d="M 259.5,332.5 C 259.573,334.027 258.906,335.027 257.5,335.5C 257.427,333.973 258.094,332.973 259.5,332.5 Z"/></g>
<g><path style="opacity:0.216" fill="#ccedf4" d="M 376.5,327.5 C 377.833,337.5 377.833,347.5 376.5,357.5C 376.415,347.35 376.415,337.35 376.5,327.5 Z"/></g>
<g><path style="opacity:0.553" fill="#b6effa" d="M 253.5,339.5 C 253.573,341.027 252.906,342.027 251.5,342.5C 251.427,340.973 252.094,339.973 253.5,339.5 Z"/></g>
<g><path style="opacity:0.533" fill="#c2e9f1" d="M 242.5,340.5 C 244.5,342.167 246.5,343.833 248.5,345.5C 248.103,346.525 247.437,346.692 246.5,346C 244.536,344.549 243.203,342.716 242.5,340.5 Z"/></g>
<g><path style="opacity:0.008" fill="#e0ebed" d="M 258.5,352.5 C 258.567,353.959 258.234,355.292 257.5,356.5C 256.147,354.872 256.481,353.538 258.5,352.5 Z"/></g>
<g><path style="opacity:0.824" fill="#82e4f9" d="M 237.5,353.5 C 239.225,353.843 239.725,354.843 239,356.5C 235.902,360.107 232.402,363.107 228.5,365.5C 231.629,361.869 234.963,358.369 238.5,355C 237.944,354.617 237.611,354.117 237.5,353.5 Z"/></g>
<g><path style="opacity:0.753" fill="#95ebfc" d="M 228.5,365.5 C 227.089,367.914 225.089,369.581 222.5,370.5C 223.911,368.086 225.911,366.419 228.5,365.5 Z"/></g>
<g><path style="opacity:0.827" fill="#94e3f4" d="M 222.5,370.5 C 221.415,372.587 219.749,373.92 217.5,374.5C 218.585,372.413 220.251,371.08 222.5,370.5 Z"/></g>
<g><path style="opacity:0.557" fill="#b9eff9" d="M 258.5,374.5 C 260.027,374.427 261.027,375.094 261.5,376.5C 259.973,376.573 258.973,375.906 258.5,374.5 Z"/></g>
<g><path style="opacity:0.522" fill="#acecf8" d="M 217.5,374.5 C 216.738,376.262 215.404,377.262 213.5,377.5C 214.262,375.738 215.596,374.738 217.5,374.5 Z"/></g>
<g><path style="opacity:0.416" fill="#c1f1fa" d="M 387.5,373.5 C 387.279,376.067 386.612,378.401 385.5,380.5C 385.171,377.772 385.837,375.438 387.5,373.5 Z"/></g>
<g><path style="opacity:0.769" fill="#ade9f6" d="M 374.5,373.5 C 374.946,376.01 374.28,378.01 372.5,379.5C 372.875,377.302 373.542,375.302 374.5,373.5 Z"/></g>
<g><path style="opacity:0.533" fill="#adebf7" d="M 213.5,377.5 C 212.738,379.262 211.404,380.262 209.5,380.5C 210.262,378.738 211.596,377.738 213.5,377.5 Z"/></g>
<g><path style="opacity:0.561" fill="#bcf3fe" d="M 265.5,380.5 C 267.027,380.427 268.027,381.094 268.5,382.5C 266.973,382.573 265.973,381.906 265.5,380.5 Z"/></g>
<g><path style="opacity:0.627" fill="#a7e6f2" d="M 209.5,380.5 C 209.027,381.906 208.027,382.573 206.5,382.5C 206.973,381.094 207.973,380.427 209.5,380.5 Z"/></g>
<g><path style="opacity:0.757" fill="#aff0fe" d="M 120.5,379.5 C 121.537,380.93 122.204,382.597 122.5,384.5C 120.787,383.365 120.12,381.698 120.5,379.5 Z"/></g>
<g><path style="opacity:0.588" fill="#afe6f1" d="M 206.5,382.5 C 206.027,383.906 205.027,384.573 203.5,384.5C 203.973,383.094 204.973,382.427 206.5,382.5 Z"/></g>
<g><path style="opacity:0.788" fill="#a6e5f2" d="M 372.5,380.5 C 372.88,382.698 372.213,384.365 370.5,385.5C 370.796,383.597 371.463,381.93 372.5,380.5 Z"/></g>
<g><path style="opacity:0.58" fill="#b0e6f1" d="M 203.5,384.5 C 203.027,385.906 202.027,386.573 200.5,386.5C 200.973,385.094 201.973,384.427 203.5,384.5 Z"/></g>
<g><path style="opacity:0.435" fill="#bbe9f1" d="M 270.5,384.5 C 272.404,384.738 273.738,385.738 274.5,387.5C 272.596,387.262 271.262,386.262 270.5,384.5 Z"/></g>
<g><path style="opacity:0.678" fill="#adf0fd" d="M 274.5,387.5 C 276.027,387.427 277.027,388.094 277.5,389.5C 275.973,389.573 274.973,388.906 274.5,387.5 Z"/></g>
<g><path style="opacity:0.49" fill="#c0e9f1" d="M 198.5,387.5 C 198.027,388.906 197.027,389.573 195.5,389.5C 195.973,388.094 196.973,387.427 198.5,387.5 Z"/></g>
<g><path style="opacity:0.494" fill="#c2e8f0" d="M 191.5,391.5 C 191.027,392.906 190.027,393.573 188.5,393.5C 188.973,392.094 189.973,391.427 191.5,391.5 Z"/></g>
<g><path style="opacity:0.737" fill="#aeeaf6" d="M 281.5,392.5 C 283.404,392.738 284.738,393.738 285.5,395.5C 283.596,395.262 282.262,394.262 281.5,392.5 Z"/></g>
<g><path style="opacity:0.361" fill="#b6edf8" d="M 368.5,390.5 C 368.573,392.027 367.906,393.027 366.5,393.5C 366.427,391.973 367.094,390.973 368.5,390.5 Z"/></g>
<g><path style="opacity:0.329" fill="#b6e7f0" d="M 125.5,391.5 C 126.906,391.973 127.573,392.973 127.5,394.5C 126.094,394.027 125.427,393.027 125.5,391.5 Z"/></g>
<g><path style="opacity:0.686" fill="#aae6f2" d="M 366.5,393.5 C 366.262,395.404 365.262,396.738 363.5,397.5C 363.738,395.596 364.738,394.262 366.5,393.5 Z"/></g>
<g><path style="opacity:0.745" fill="#b4edf8" d="M 127.5,394.5 C 129.5,395.833 131.167,397.5 132.5,399.5C 129.833,398.833 128.167,397.167 127.5,394.5 Z"/></g>
<g><path style="opacity:0.306" fill="#b8f1fc" d="M 290.5,398.5 C 292.027,398.427 293.027,399.094 293.5,400.5C 291.973,400.573 290.973,399.906 290.5,398.5 Z"/></g>
<g><path style="opacity:0.886" fill="#b1e6f2" d="M 132.5,399.5 C 134.368,400.263 136.035,401.263 137.5,402.5C 134.966,402.741 133.3,401.741 132.5,399.5 Z"/></g>
<g><path style="opacity:0.616" fill="#aff1fe" d="M 361.5,399.5 C 361.027,400.906 360.027,401.573 358.5,401.5C 358.973,400.094 359.973,399.427 361.5,399.5 Z"/></g>
<g><path style="opacity:0.243" fill="#c7ecf3" d="M 293.5,400.5 C 295.027,400.427 296.027,401.094 296.5,402.5C 294.973,402.573 293.973,401.906 293.5,400.5 Z"/></g>
<g><path style="opacity:0.718" fill="#ade6f2" d="M 165.5,402.5 C 162.877,404.265 159.877,404.932 156.5,404.5C 159.311,403.525 162.311,402.858 165.5,402.5 Z"/></g>
<g><path style="opacity:0.82" fill="#baecf6" d="M 356.5,402.5 C 355.319,404.067 353.653,404.901 351.5,405C 345.984,405.817 340.65,405.651 335.5,404.5C 342.632,404.892 349.632,404.225 356.5,402.5 Z"/></g>
<g><path style="opacity:0.616" fill="#b5f2fe" d="M 122.5,407.5 C 124.027,407.427 125.027,408.094 125.5,409.5C 123.973,409.573 122.973,408.906 122.5,407.5 Z"/></g>
<g><path style="opacity:0.804" fill="#9aedfe" d="M 321.5,413.5 C 324.152,413.41 326.485,414.076 328.5,415.5C 325.848,415.59 323.515,414.924 321.5,413.5 Z"/></g>
<g><path style="opacity:0.514" fill="#b4f1fe" d="M 133.5,414.5 C 136.152,414.41 138.485,415.076 140.5,416.5C 137.848,416.59 135.515,415.924 133.5,414.5 Z"/></g>
<g><path style="opacity:0.537" fill="#b7eaf4" d="M 140.5,416.5 C 146.833,416.5 153.167,416.5 159.5,416.5C 156.491,417.283 153.324,417.95 150,418.5C 146.676,417.95 143.509,417.283 140.5,416.5 Z"/></g>
<g><path style="opacity:0.584" fill="#b8e8f1" d="M 332.5,416.5 C 335.902,416.342 339.236,416.676 342.5,417.5C 342.265,418.097 341.765,418.43 341,418.5C 338.004,417.965 335.171,417.298 332.5,416.5 Z"/></g>
<g><path style="opacity:1" fill="#6ddffc" d="M 362.5,450.5 C 364.5,450.5 366.5,450.5 368.5,450.5C 368.5,453.167 368.5,455.833 368.5,458.5C 366.33,459.768 364.163,459.768 362,458.5C 361.199,455.633 361.366,452.966 362.5,450.5 Z"/></g>
<g><path style="opacity:0.374" fill="#b4ebf4" d="M 362.5,450.5 C 364.607,449.532 366.941,449.198 369.5,449.5C 369.81,452.713 369.477,455.713 368.5,458.5C 368.5,455.833 368.5,453.167 368.5,450.5C 366.5,450.5 364.5,450.5 362.5,450.5 Z"/></g>
<g><path style="opacity:1" fill="#42dafd" d="M 60.5,455.5 C 60.427,457.027 61.0937,458.027 62.5,458.5C 63.2216,458.918 63.7216,459.584 64,460.5C 64.6667,464.5 64.6667,468.5 64,472.5C 62.5,475.333 60.3333,477.5 57.5,479C 59.3333,480.167 60.8333,481.667 62,483.5C 63.7114,487.51 65.8781,491.176 68.5,494.5C 69.1667,496.5 69.8333,498.5 70.5,500.5C 68.0521,501.473 65.3854,501.806 62.5,501.5C 60.2288,497.291 58.2288,492.958 56.5,488.5C 56.4456,486.368 55.4456,485.035 53.5,484.5C 49.196,482.238 44.5294,481.238 39.5,481.5C 38.5093,487.979 38.176,494.646 38.5,501.5C 36.5,501.5 34.5,501.5 32.5,501.5C 32.5,485.167 32.5,468.833 32.5,452.5C 38.6529,451.347 44.9863,451.18 51.5,452C 55.0045,452.119 58.0045,453.286 60.5,455.5 Z M 39.5,458.5 C 44.3368,458.116 49.0034,458.783 53.5,460.5C 55.2866,462.858 56.2866,465.525 56.5,468.5C 55.6923,470.22 54.6923,471.887 53.5,473.5C 48.8969,474.383 44.2303,474.717 39.5,474.5C 39.5,469.167 39.5,463.833 39.5,458.5 Z"/></g>
<g><path style="opacity:1" fill="#45dafd" d="M 268.5,480.5 C 268.427,482.027 269.094,483.027 270.5,483.5C 272.008,485.181 273.008,487.181 273.5,489.5C 273.461,490.756 273.961,491.756 275,492.5C 275.5,479.171 275.667,465.837 275.5,452.5C 277.5,452.5 279.5,452.5 281.5,452.5C 281.5,468.833 281.5,485.167 281.5,501.5C 278.5,501.5 275.5,501.5 272.5,501.5C 270.75,500.341 269.75,498.674 269.5,496.5C 269.715,494.821 269.048,493.821 267.5,493.5C 262.23,483.959 257.23,474.292 252.5,464.5C 252.539,463.244 252.039,462.244 251,461.5C 250.5,474.829 250.333,488.163 250.5,501.5C 248.5,501.5 246.5,501.5 244.5,501.5C 243.169,485.098 243.169,468.598 244.5,452C 248.317,450.977 251.817,451.477 255,453.5C 260.038,462.243 264.538,471.243 268.5,480.5 Z"/></g>
<g><path style="opacity:0.529" fill="#9cebfa" d="M 202.5,454.5 C 200.5,454.5 198.5,454.5 196.5,454.5C 196.813,458.042 196.479,461.375 195.5,464.5C 195.5,461.5 195.5,458.5 195.5,455.5C 196.152,454.275 197.319,453.608 199,453.5C 200.385,453.514 201.551,453.848 202.5,454.5 Z"/></g>
<g><path style="opacity:1" fill="#48dbfd" d="M 202.5,454.5 C 203.027,457.376 203.027,460.209 202.5,463C 203,463.5 203.5,464 204,464.5C 207.774,463.644 211.274,463.644 214.5,464.5C 214.5,466.167 214.5,467.833 214.5,469.5C 210.029,468.911 206.029,469.577 202.5,471.5C 203.273,477.795 203.273,484.129 202.5,490.5C 202.077,492.781 202.744,494.448 204.5,495.5C 208.042,495.187 211.375,495.521 214.5,496.5C 214.5,498.167 214.5,499.833 214.5,501.5C 210.5,501.5 206.5,501.5 202.5,501.5C 198.795,501.129 196.795,499.129 196.5,495.5C 196.5,486.833 196.5,478.167 196.5,469.5C 194.833,469.5 193.167,469.5 191.5,469.5C 190.167,467.833 190.167,466.167 191.5,464.5C 192.833,464.5 194.167,464.5 195.5,464.5C 196.479,461.375 196.813,458.042 196.5,454.5C 198.5,454.5 200.5,454.5 202.5,454.5 Z"/></g>
<g><path style="opacity:0.451" fill="#a5edfa" d="M 342.5,454.5 C 340.5,454.5 338.5,454.5 336.5,454.5C 336.813,458.042 336.479,461.375 335.5,464.5C 335.5,462.167 335.5,459.833 335.5,457.5C 335.5,456.167 335.5,454.833 335.5,453.5C 338.059,453.198 340.393,453.532 342.5,454.5 Z"/></g>
<g><path style="opacity:1" fill="#46dbfd" d="M 342.5,454.5 C 343.321,457.641 343.821,460.975 344,464.5C 347.449,463.39 350.949,463.39 354.5,464.5C 354.5,466.167 354.5,467.833 354.5,469.5C 350.5,469.5 346.5,469.5 342.5,469.5C 342.174,477.684 342.508,485.684 343.5,493.5C 343.611,494.117 343.944,494.617 344.5,495C 347.919,495.248 351.253,495.748 354.5,496.5C 354.5,498.167 354.5,499.833 354.5,501.5C 350.5,501.5 346.5,501.5 342.5,501.5C 338.795,501.129 336.795,499.129 336.5,495.5C 336.5,486.833 336.5,478.167 336.5,469.5C 334.833,469.5 333.167,469.5 331.5,469.5C 330.167,467.833 330.167,466.167 331.5,464.5C 332.833,464.5 334.167,464.5 335.5,464.5C 336.479,461.375 336.813,458.042 336.5,454.5C 338.5,454.5 340.5,454.5 342.5,454.5 Z"/></g>
<g><path style="opacity:0.529" fill="#bce8f1" d="M 60.5,455.5 C 61.9063,455.973 62.573,456.973 62.5,458.5C 61.0937,458.027 60.427,457.027 60.5,455.5 Z"/></g>
<g><path style="opacity:0.294" fill="#b1ebf6" d="M 32.5,452.5 C 32.5,468.833 32.5,485.167 32.5,501.5C 34.5,501.5 36.5,501.5 38.5,501.5C 38.176,494.646 38.5093,487.979 39.5,481.5C 39.8303,488.532 39.497,495.532 38.5,502.5C 36.3448,502.838 34.0115,502.838 31.5,502.5C 31.1702,485.658 31.5035,468.992 32.5,452.5 Z"/></g>
<g><path style="opacity:0.458" fill="#a1ecfa" d="M 39.5,458.5 C 39.5,463.833 39.5,469.167 39.5,474.5C 44.2303,474.717 48.8969,474.383 53.5,473.5C 53.3893,474.117 53.056,474.617 52.5,475C 47.8452,475.499 43.1785,475.666 38.5,475.5C 38.1778,469.642 38.5111,463.975 39.5,458.5 Z"/></g>
<g><path style="opacity:0.029" fill="#f5f0ef" d="M 195.5,455.5 C 195.5,458.5 195.5,461.5 195.5,464.5C 194.167,464.5 192.833,464.5 191.5,464.5C 192.209,463.596 193.209,463.263 194.5,463.5C 194.194,460.615 194.527,457.948 195.5,455.5 Z"/></g>
<g><path style="opacity:0.319" fill="#b0ecf8" d="M 272.5,501.5 C 275.5,501.5 278.5,501.5 281.5,501.5C 281.5,485.167 281.5,468.833 281.5,452.5C 279.5,452.5 277.5,452.5 275.5,452.5C 275.667,465.837 275.5,479.171 275,492.5C 273.961,491.756 273.461,490.756 273.5,489.5C 274.495,477.011 274.829,464.344 274.5,451.5C 277.167,451.5 279.833,451.5 282.5,451.5C 282.5,468.5 282.5,485.5 282.5,502.5C 278.958,502.813 275.625,502.479 272.5,501.5 Z"/></g>
<g><path style="opacity:0.038" fill="#f3eeec" d="M 335.5,457.5 C 335.5,459.833 335.5,462.167 335.5,464.5C 334.167,464.5 332.833,464.5 331.5,464.5C 332.209,463.596 333.209,463.263 334.5,463.5C 334.205,461.265 334.539,459.265 335.5,457.5 Z"/></g>
<g><path style="opacity:0.602" fill="#99eafa" d="M 97.5,464.5 C 92.4635,464.413 87.4635,464.746 82.5,465.5C 85.1864,464.009 88.1864,463.343 91.5,463.5C 93.6965,463.505 95.6965,463.838 97.5,464.5 Z"/></g>
<g><path style="opacity:0.614" fill="#b6eef8" d="M 137.5,464.5 C 132.5,464.5 127.5,464.5 122.5,464.5C 127.484,461.992 132.484,461.992 137.5,464.5 Z"/></g>
<g><path style="opacity:0.639" fill="#a7e9f7" d="M 314.5,464.5 C 308.797,464.375 303.13,464.708 297.5,465.5C 303.106,462.612 308.772,462.279 314.5,464.5 Z"/></g>
<g><path style="opacity:0.651" fill="#b0eaf5" d="M 442.5,464.5 C 438.167,464.5 433.833,464.5 429.5,464.5C 433.852,461.991 438.186,461.991 442.5,464.5 Z"/></g>
<g><path style="opacity:1" fill="#49dbfd" d="M 97.5,464.5 C 100.198,464.845 102.198,466.178 103.5,468.5C 103.427,470.027 104.094,471.027 105.5,471.5C 106.931,472.78 107.598,474.447 107.5,476.5C 107.5,479.167 107.5,481.833 107.5,484.5C 98.1667,484.5 88.8333,484.5 79.5,484.5C 79.2627,485.791 79.596,486.791 80.5,487.5C 81.7684,491.767 84.4351,494.767 88.5,496.5C 93.8076,497.95 99.141,497.616 104.5,495.5C 105.452,497.045 105.785,498.712 105.5,500.5C 98.4668,503.751 91.1335,504.251 83.5,502C 82.0577,501.623 81.0577,500.79 80.5,499.5C 79.1182,497.451 77.4516,495.785 75.5,494.5C 71.4987,486.571 71.6654,478.571 76,470.5C 77.7772,468.21 79.9438,466.543 82.5,465.5C 87.4635,464.746 92.4635,464.413 97.5,464.5 Z M 100.5,476.5 C 100.5,477.5 100.5,478.5 100.5,479.5C 93.4163,480.126 86.7496,479.459 80.5,477.5C 83.7929,470.891 89.1262,468.724 96.5,471C 98.4388,472.432 99.7721,474.265 100.5,476.5 Z"/></g>
<g><path style="opacity:1" fill="#57dcfd" d="M 121.5,464.5 C 121.833,464.5 122.167,464.5 122.5,464.5C 127.5,464.5 132.5,464.5 137.5,464.5C 143.261,466.318 146.428,470.318 147,476.5C 147.823,485.01 147.657,493.344 146.5,501.5C 144.5,501.5 142.5,501.5 140.5,501.5C 140.657,500.127 140.49,498.793 140,497.5C 139.283,498.044 138.783,498.711 138.5,499.5C 131.737,504.632 124.737,504.799 117.5,500C 113.515,494.058 113.515,488.225 117.5,482.5C 119.027,482.573 120.027,481.906 120.5,480.5C 122.102,478.926 124.102,478.259 126.5,478.5C 131.167,478.5 135.833,478.5 140.5,478.5C 140.88,476.302 140.213,474.635 138.5,473.5C 138.5,471.5 137.5,470.5 135.5,470.5C 130.438,470.274 125.438,470.608 120.5,471.5C 119.351,471.209 118.684,470.376 118.5,469C 118.557,466.791 119.557,465.291 121.5,464.5 Z M 136.5,483.5 C 137.9,484.1 138.9,485.1 139.5,486.5C 137.748,495.877 132.415,498.711 123.5,495C 121.964,491.76 122.297,488.76 124.5,486C 128.402,484.751 132.402,483.918 136.5,483.5 Z"/></g>
<g><path style="opacity:1" fill="#54dcfd" d="M 181.5,464.5 C 182.959,464.433 184.292,464.766 185.5,465.5C 185.975,468.082 185.308,470.082 183.5,471.5C 178.886,470.45 174.22,470.283 169.5,471C 167.285,472.379 165.619,474.213 164.5,476.5C 163.028,478.117 162.361,480.117 162.5,482.5C 162.511,484.045 162.844,485.378 163.5,486.5C 164.081,490.92 166.414,494.086 170.5,496C 175.947,496.635 181.28,496.135 186.5,494.5C 186.945,497.365 186.278,499.865 184.5,502C 177.461,504.404 170.795,503.904 164.5,500.5C 164.027,499.094 163.027,498.427 161.5,498.5C 158.325,496.008 156.659,492.674 156.5,488.5C 156.413,483.463 156.746,478.463 157.5,473.5C 158.906,473.027 159.573,472.027 159.5,470.5C 160.5,468.833 161.833,467.5 163.5,466.5C 169.346,464.767 175.346,464.1 181.5,464.5 Z"/></g>
<g><path style="opacity:1" fill="#4cdbfd" d="M 314.5,464.5 C 319.576,465.912 322.576,469.245 323.5,474.5C 323.5,483.5 323.5,492.5 323.5,501.5C 321.5,501.5 319.5,501.5 317.5,501.5C 317.657,500.127 317.49,498.793 317,497.5C 316.283,498.044 315.783,498.711 315.5,499.5C 312.668,502.282 309.168,503.615 305,503.5C 293.291,502.112 289.291,495.779 293,484.5C 294.777,482.21 296.944,480.543 299.5,479.5C 305.464,478.693 311.464,478.36 317.5,478.5C 317.768,476.901 317.434,475.568 316.5,474.5C 315.657,472.827 314.324,471.66 312.5,471C 307.463,470.337 302.463,470.504 297.5,471.5C 295.155,470.012 294.821,468.012 296.5,465.5C 296.833,465.5 297.167,465.5 297.5,465.5C 303.13,464.708 308.797,464.375 314.5,464.5 Z M 303.5,484.5 C 307.833,484.5 312.167,484.5 316.5,484.5C 316.5,485.833 316.5,487.167 316.5,488.5C 314.544,495.942 309.877,498.442 302.5,496C 298.307,491.683 298.64,487.85 303.5,484.5 Z"/></g>
<g><path style="opacity:1" fill="#48dbfd" d="M 429.5,464.5 C 433.833,464.5 438.167,464.5 442.5,464.5C 443.791,464.263 444.791,464.596 445.5,465.5C 446.785,467.452 448.451,469.118 450.5,470.5C 451.674,471.514 452.34,472.847 452.5,474.5C 452.5,477.833 452.5,481.167 452.5,484.5C 443.5,484.5 434.5,484.5 425.5,484.5C 425.232,486.099 425.566,487.432 426.5,488.5C 427.354,492.372 429.688,494.872 433.5,496C 437.152,496.499 440.818,496.665 444.5,496.5C 446.861,496.326 449.194,495.993 451.5,495.5C 451.5,497.167 451.5,498.833 451.5,500.5C 442.785,504.613 434.119,504.447 425.5,500C 422.02,497.703 420.02,494.536 419.5,490.5C 419.5,485.5 419.5,480.5 419.5,475.5C 419.557,474.391 419.89,473.391 420.5,472.5C 421.833,471.833 422.833,470.833 423.5,469.5C 423.81,467.856 424.81,466.856 426.5,466.5C 428.027,466.573 429.027,465.906 429.5,464.5 Z M 441.5,470.5 C 442.167,471.833 443.167,472.833 444.5,473.5C 445.167,475.167 445.833,476.833 446.5,478.5C 439.922,479.46 433.255,479.793 426.5,479.5C 426.5,478.5 426.5,477.5 426.5,476.5C 429.865,470.952 434.865,468.952 441.5,470.5 Z"/></g>
<g><path style="opacity:0.384" fill="#c1ebf4" d="M 181.5,464.5 C 175.346,464.1 169.346,464.767 163.5,466.5C 163.611,465.883 163.944,465.383 164.5,465C 170.277,462.268 175.943,462.102 181.5,464.5 Z"/></g>
<g><path style="opacity:1" fill="#00d7fe" d="M 368.5,465.5 C 368.5,477.5 368.5,489.5 368.5,501.5C 366.833,501.5 365.167,501.5 363.5,501.5C 363.5,489.5 363.5,477.5 363.5,465.5C 365.167,465.5 366.833,465.5 368.5,465.5 Z"/></g>
<g><path style="opacity:1" fill="#5dddfc" d="M 394.5,492.5 C 395.301,494.793 395.968,494.46 396.5,491.5C 397.633,487.433 398.967,483.433 400.5,479.5C 402.834,477.824 403.834,475.491 403.5,472.5C 403.5,472.167 403.5,471.833 403.5,471.5C 405.213,470.365 405.88,468.698 405.5,466.5C 405.414,465.504 405.748,464.671 406.5,464C 408.81,463.503 411.143,463.337 413.5,463.5C 409.75,476.086 405.417,488.419 400.5,500.5C 397.272,501.414 393.939,501.747 390.5,501.5C 385.327,489.801 380.661,477.801 376.5,465.5C 379.371,462.887 382.205,462.887 385,465.5C 388.181,474.521 391.347,483.521 394.5,492.5 Z"/></g>
<g><path style="opacity:0.6" fill="#b2e6f1" d="M 429.5,464.5 C 429.027,465.906 428.027,466.573 426.5,466.5C 426.973,465.094 427.973,464.427 429.5,464.5 Z"/></g>
<g><path style="opacity:0.988" fill="#a8edfc" d="M 445.5,465.5 C 448.189,466.189 449.856,467.856 450.5,470.5C 448.451,469.118 446.785,467.452 445.5,465.5 Z"/></g>
<g><path style="opacity:0.367" fill="#b0ecf7" d="M 296.5,465.5 C 294.821,468.012 295.155,470.012 297.5,471.5C 296.791,472.404 295.791,472.737 294.5,472.5C 293.99,469.612 294.656,467.279 296.5,465.5 Z"/></g>
<g><path style="opacity:0.192" fill="#caeef5" d="M 214.5,464.5 C 215.461,466.265 215.795,468.265 215.5,470.5C 211.069,470.231 206.735,470.564 202.5,471.5C 206.029,469.577 210.029,468.911 214.5,469.5C 214.5,467.833 214.5,466.167 214.5,464.5 Z"/></g>
<g><path style="opacity:0.574" fill="#82e6f8" d="M 252.5,464.5 C 251.505,476.989 251.171,489.656 251.5,502.5C 248.941,502.802 246.607,502.468 244.5,501.5C 246.5,501.5 248.5,501.5 250.5,501.5C 250.333,488.163 250.5,474.829 251,461.5C 252.039,462.244 252.539,463.244 252.5,464.5 Z"/></g>
<g><path style="opacity:0.218" fill="#d4eff5" d="M 354.5,464.5 C 355.461,466.265 355.795,468.265 355.5,470.5C 351.5,470.5 347.5,470.5 343.5,470.5C 343.5,478.167 343.5,485.833 343.5,493.5C 342.508,485.684 342.174,477.684 342.5,469.5C 346.5,469.5 350.5,469.5 354.5,469.5C 354.5,467.833 354.5,466.167 354.5,464.5 Z"/></g>
<g><path style="opacity:0.765" fill="#b3eaf6" d="M 405.5,466.5 C 405.88,468.698 405.213,470.365 403.5,471.5C 403.402,469.447 404.069,467.78 405.5,466.5 Z"/></g>
<g><path style="opacity:0.42" fill="#a7ebf9" d="M 103.5,468.5 C 104.906,468.973 105.573,469.973 105.5,471.5C 104.094,471.027 103.427,470.027 103.5,468.5 Z"/></g>
<g><path style="opacity:0.651" fill="#b4edf8" d="M 121.5,464.5 C 119.557,465.291 118.557,466.791 118.5,469C 118.684,470.376 119.351,471.209 120.5,471.5C 118.061,472.649 116.728,471.649 116.5,468.5C 116.981,465.686 118.648,464.352 121.5,464.5 Z"/></g>
<g><path style="opacity:0.561" fill="#bee8f0" d="M 135.5,470.5 C 137.5,470.5 138.5,471.5 138.5,473.5C 137.167,472.833 136.167,471.833 135.5,470.5 Z"/></g>
<g><path style="opacity:0.384" fill="#a2eaf7" d="M 368.5,464.5 C 369.495,476.989 369.829,489.656 369.5,502.5C 366.941,502.802 364.607,502.468 362.5,501.5C 362.833,501.5 363.167,501.5 363.5,501.5C 365.167,501.5 366.833,501.5 368.5,501.5C 368.5,489.5 368.5,477.5 368.5,465.5C 368.5,465.167 368.5,464.833 368.5,464.5 Z"/></g>
<g><path style="opacity:0.541" fill="#bee8f0" d="M 441.5,470.5 C 443.5,470.5 444.5,471.5 444.5,473.5C 443.167,472.833 442.167,471.833 441.5,470.5 Z"/></g>
<g><path style="opacity:0.816" fill="#acedfc" d="M 56.5,468.5 C 57.0838,471.285 56.0838,472.952 53.5,473.5C 54.6923,471.887 55.6923,470.22 56.5,468.5 Z"/></g>
<g><path style="opacity:0.227" fill="#d0eef4" d="M 185.5,465.5 C 186.468,467.607 186.802,469.941 186.5,472.5C 185.209,472.737 184.209,472.404 183.5,471.5C 185.308,470.082 185.975,468.082 185.5,465.5 Z"/></g>
<g><path style="opacity:0.502" fill="#9decfa" d="M 191.5,469.5 C 193.167,469.5 194.833,469.5 196.5,469.5C 196.5,478.167 196.5,486.833 196.5,495.5C 195.507,487.35 195.174,479.017 195.5,470.5C 193.901,470.768 192.568,470.434 191.5,469.5 Z"/></g>
<g><path style="opacity:0.42" fill="#a6edfa" d="M 331.5,469.5 C 333.167,469.5 334.833,469.5 336.5,469.5C 336.5,478.167 336.5,486.833 336.5,495.5C 335.507,487.35 335.174,479.017 335.5,470.5C 333.901,470.768 332.568,470.434 331.5,469.5 Z"/></g>
<g><path style="opacity:0.11" fill="#daebee" d="M 423.5,469.5 C 422.833,470.833 421.833,471.833 420.5,472.5C 420.5,470.5 421.5,469.5 423.5,469.5 Z"/></g>
<g><path style="opacity:0.176" fill="#d0eaef" d="M 159.5,470.5 C 159.573,472.027 158.906,473.027 157.5,473.5C 157.427,471.973 158.094,470.973 159.5,470.5 Z"/></g>
<g><path style="opacity:0.762" fill="#9ce9f9" d="M 368.5,464.5 C 368.5,464.833 368.5,465.167 368.5,465.5C 366.833,465.5 365.167,465.5 363.5,465.5C 363.5,477.5 363.5,489.5 363.5,501.5C 363.167,501.5 362.833,501.5 362.5,501.5C 361.175,489.327 361.175,476.994 362.5,464.5C 364.643,463.246 366.643,463.246 368.5,464.5 Z"/></g>
<g><path style="opacity:0.957" fill="#a0e8f8" d="M 403.5,472.5 C 403.834,475.491 402.834,477.824 400.5,479.5C 400.935,476.843 401.935,474.509 403.5,472.5 Z"/></g>
<g><path style="opacity:0.142" fill="#d5ecf0" d="M 138.5,473.5 C 140.213,474.635 140.88,476.302 140.5,478.5C 135.833,478.5 131.167,478.5 126.5,478.5C 129.466,477.938 131.632,476.938 133,475.5C 134.333,476.167 135.667,476.833 137,477.5C 137.833,477.167 138.667,476.833 139.5,476.5C 138.873,475.583 138.539,474.583 138.5,473.5 Z"/></g>
<g><path style="opacity:0.098" fill="#d5f3f9" d="M 316.5,474.5 C 317.434,475.568 317.768,476.901 317.5,478.5C 311.464,478.36 305.464,478.693 299.5,479.5C 300.263,478.732 301.263,478.232 302.5,478C 307.155,477.501 311.821,477.334 316.5,477.5C 316.5,476.5 316.5,475.5 316.5,474.5 Z"/></g>
<g><path style="opacity:0.564" fill="#80e6f8" d="M 100.5,476.5 C 101.434,477.568 101.768,478.901 101.5,480.5C 94.1667,480.5 86.8333,480.5 79.5,480.5C 79.2627,479.209 79.596,478.209 80.5,477.5C 86.7496,479.459 93.4163,480.126 100.5,479.5C 100.5,478.5 100.5,477.5 100.5,476.5 Z"/></g>
<g><path style="opacity:0.547" fill="#83e6f8" d="M 426.5,476.5 C 426.5,477.5 426.5,478.5 426.5,479.5C 433.255,479.793 439.922,479.46 446.5,478.5C 447.738,478.81 447.738,479.31 446.5,480C 439.508,480.5 432.508,480.666 425.5,480.5C 425.232,478.901 425.566,477.568 426.5,476.5 Z"/></g>
<g><path style="opacity:0.592" fill="#b0ebf8" d="M 120.5,480.5 C 120.027,481.906 119.027,482.573 117.5,482.5C 117.973,481.094 118.973,480.427 120.5,480.5 Z"/></g>
<g><path style="opacity:0.228" fill="#c0eef6" d="M 323.5,474.5 C 324.494,483.652 324.827,492.985 324.5,502.5C 321.941,502.802 319.607,502.468 317.5,501.5C 319.5,501.5 321.5,501.5 323.5,501.5C 323.5,492.5 323.5,483.5 323.5,474.5 Z"/></g>
<g><path style="opacity:0.214" fill="#d8f3f8" d="M 157.5,473.5 C 156.746,478.463 156.413,483.463 156.5,488.5C 155.838,486.696 155.505,484.696 155.5,482.5C 155.343,479.186 156.009,476.186 157.5,473.5 Z"/></g>
<g><path style="opacity:0.318" fill="#b5e9f3" d="M 268.5,480.5 C 269.906,480.973 270.573,481.973 270.5,483.5C 269.094,483.027 268.427,482.027 268.5,480.5 Z"/></g>
<g><path style="opacity:0.675" fill="#9feaf9" d="M 419.5,475.5 C 419.5,480.5 419.5,485.5 419.5,490.5C 418.799,487.437 418.132,484.27 417.5,481C 418.109,479.052 418.776,477.218 419.5,475.5 Z"/></g>
<g><path style="opacity:0.318" fill="#b3edf8" d="M 164.5,476.5 C 163.949,479.807 163.616,483.14 163.5,486.5C 162.844,485.378 162.511,484.045 162.5,482.5C 162.361,480.117 163.028,478.117 164.5,476.5 Z"/></g>
<g><path style="opacity:0.044" fill="#e2edef" d="M 303.5,484.5 C 307.97,483.514 312.637,483.181 317.5,483.5C 317.784,485.415 317.451,487.081 316.5,488.5C 316.5,487.167 316.5,485.833 316.5,484.5C 312.167,484.5 307.833,484.5 303.5,484.5 Z"/></g>
<g><path style="opacity:0.855" fill="#ade5f2" d="M 53.5,484.5 C 55.4456,485.035 56.4456,486.368 56.5,488.5C 55.0256,487.564 54.0256,486.23 53.5,484.5 Z"/></g>
<g><path style="opacity:0.349" fill="#b6ecf6" d="M 107.5,476.5 C 108.477,479.287 108.81,482.287 108.5,485.5C 98.7734,484.861 89.4401,485.528 80.5,487.5C 79.596,486.791 79.2627,485.791 79.5,484.5C 88.8333,484.5 98.1667,484.5 107.5,484.5C 107.5,481.833 107.5,479.167 107.5,476.5 Z"/></g>
<g><path style="opacity:0.212" fill="#dcf8fe" d="M 136.5,483.5 C 137.833,483.5 139.167,483.5 140.5,483.5C 140.737,484.791 140.404,485.791 139.5,486.5C 138.9,485.1 137.9,484.1 136.5,483.5 Z"/></g>
<g><path style="opacity:0.29" fill="#b0ecf7" d="M 452.5,474.5 C 453.298,477.171 453.965,480.004 454.5,483C 454.355,483.772 454.022,484.439 453.5,485C 444.506,485.5 435.506,485.666 426.5,485.5C 426.5,486.5 426.5,487.5 426.5,488.5C 425.566,487.432 425.232,486.099 425.5,484.5C 434.5,484.5 443.5,484.5 452.5,484.5C 452.5,481.167 452.5,477.833 452.5,474.5 Z"/></g>
<g><path style="opacity:0.012" fill="#ebeceb" d="M 68.5,493.5 C 69.8333,494.167 69.8333,494.167 68.5,493.5 Z"/></g>
<g><path style="opacity:0.824" fill="#aeeffe" d="M 267.5,493.5 C 269.048,493.821 269.715,494.821 269.5,496.5C 268.599,495.71 267.932,494.71 267.5,493.5 Z"/></g>
<g><path style="opacity:0.204" fill="#d6f1f6" d="M 396.5,491.5 C 395.968,494.46 395.301,494.793 394.5,492.5C 395.167,492.167 395.833,491.833 396.5,491.5 Z"/></g>
<g><path style="opacity:1" fill="#a8eefe" d="M 75.5,494.5 C 77.4516,495.785 79.1182,497.451 80.5,499.5C 77.856,498.856 76.1894,497.189 75.5,494.5 Z"/></g>
<g><path style="opacity:0.014" fill="#ececed" d="M 106.5,494.5 C 108.985,495.26 108.985,496.26 106.5,497.5C 106.5,496.5 106.5,495.5 106.5,494.5 Z"/></g>
<g><path style="opacity:0.706" fill="#b7ebf6" d="M 202.5,490.5 C 203.309,492.028 203.976,493.694 204.5,495.5C 202.744,494.448 202.077,492.781 202.5,490.5 Z"/></g>
<g><path style="opacity:0.906" fill="#98e8f9" d="M 106.5,494.5 C 106.5,495.5 106.5,496.5 106.5,497.5C 106.737,498.791 106.404,499.791 105.5,500.5C 105.785,498.712 105.452,497.045 104.5,495.5C 99.141,497.616 93.8076,497.95 88.5,496.5C 94.4805,497.11 100.147,496.11 105.5,493.5C 106.107,493.624 106.44,493.957 106.5,494.5 Z"/></g>
<g><path style="opacity:0.702" fill="#a5e9f8" d="M 451.5,500.5 C 451.5,498.833 451.5,497.167 451.5,495.5C 449.194,495.993 446.861,496.326 444.5,496.5C 446.539,495.422 448.706,494.422 451,493.5C 452.728,495.819 452.895,498.153 451.5,500.5 Z"/></g>
<g><path style="opacity:0.427" fill="#afe6f1" d="M 161.5,498.5 C 163.027,498.427 164.027,499.094 164.5,500.5C 162.973,500.573 161.973,499.906 161.5,498.5 Z"/></g>
<g><path style="opacity:0.033" fill="#e8fafe" d="M 317.5,501.5 C 316.833,500.833 316.167,500.167 315.5,499.5C 315.783,498.711 316.283,498.044 317,497.5C 317.49,498.793 317.657,500.127 317.5,501.5 Z"/></g>
<g><path style="opacity:0.403" fill="#c4ebf2" d="M 70.5,500.5 C 71.7459,502.023 71.2459,503.023 69,503.5C 66.6539,503.01 64.4872,502.343 62.5,501.5C 65.3854,501.806 68.0521,501.473 70.5,500.5 Z"/></g>
<g><path style="opacity:0.379" fill="#b8eef8" d="M 146.5,501.5 C 144.393,502.468 142.059,502.802 139.5,502.5C 139.737,501.209 139.404,500.209 138.5,499.5C 138.783,498.711 139.283,498.044 140,497.5C 140.49,498.793 140.657,500.127 140.5,501.5C 142.5,501.5 144.5,501.5 146.5,501.5 Z"/></g>
<g><path style="opacity:0.379" fill="#b4ecf6" d="M 214.5,496.5 C 215.461,498.265 215.795,500.265 215.5,502.5C 210.968,502.818 206.634,502.485 202.5,501.5C 206.5,501.5 210.5,501.5 214.5,501.5C 214.5,499.833 214.5,498.167 214.5,496.5 Z"/></g>
<g><path style="opacity:0.383" fill="#afeaf5" d="M 354.5,496.5 C 355.461,498.265 355.795,500.265 355.5,502.5C 350.968,502.818 346.634,502.485 342.5,501.5C 346.5,501.5 350.5,501.5 354.5,501.5C 354.5,499.833 354.5,498.167 354.5,496.5 Z"/></g>
<g><path style="opacity:0.405" fill="#afe7f1" d="M 400.5,500.5 C 399.306,501.777 397.64,502.444 395.5,502.5C 393.631,502.493 391.964,502.16 390.5,501.5C 393.939,501.747 397.272,501.414 400.5,500.5 Z"/></g>
</svg>
