<?xml version="1.0" encoding="utf-8"?>
<svg viewBox="0 0 454 434" xmlns="http://www.w3.org/2000/svg" xmlns:bx="https://boxy-svg.com">
  <defs>
    <style bx:fonts="Actor">@import url(https://fonts.googleapis.com/css2?family=Actor%3Aital%2Cwght%400%2C400&amp;display=swap);</style>
  </defs>
  <g transform="matrix(0.161691, 0, 0, 0.166844, 73.745279, -11.971318)" style="">
    <linearGradient id="a" gradientUnits="userSpaceOnUse" x1="-2901.952" y1="923.573" x2="-2061.249" y2="1420.331" gradientTransform="matrix(.1234 0 0 -.1234 1158.33 1550.273)">
      <stop offset="0" stop-color="#909ca9"/>
      <stop offset="1" stop-color="#ededee"/>
    </linearGradient>
    <path fill="url(#a)" d="M1410.773 814.195l-286.9 93.683-249.599 110.161-69.829 18.435c-17.784 16.916-36.431 34.049-56.599 51.397-22.119 19.082-42.72 36.433-58.553 49.008-17.564 13.88-43.587 39.902-56.814 56.38-19.735 24.721-35.348 50.96-42.071 71.13-11.928 36.433-6.07 73.297 16.916 107.346 29.492 43.369 88.261 87.606 156.785 117.749 34.916 15.4 93.683 35.132 137.92 46.19 73.512 18.651 215.771 38.819 294.054 41.857 15.828.65 37.082.65 37.947 0 1.737-1.088 13.881-24.289 27.979-53.129 48.142-98.238 82.838-190.402 101.703-269.119 11.276-47.706 20.166-111.246 26.019-186.492 1.521-21.036 2.169-91.514.868-115.37-1.953-39.033-5.423-70.692-10.84-101.703-.868-4.555-1.088-8.676-.652-8.892.865-.65 3.467-1.517 38.815-11.712l-7.153-16.912v-.005h.004zm-65.49 38.386c2.602 0 9.539 66.573 11.273 108.646.436 8.89.216 14.745-.216 14.745-1.733 0-36.649-20.599-61.583-36.212-21.687-13.663-62.888-40.988-69.393-46.192-2.173-1.517-1.957-1.733 15.828-7.807 30.14-10.194 101.706-33.18 104.091-33.18zm-146.161 48.143c1.953 0 6.937 2.816 18.865 10.191 44.671 27.974 105.393 61.805 131.415 73.083 8.022 3.469 8.887 2.166-9.542 14.746-39.468 26.889-88.697 53.344-148.983 80.018-10.624 4.771-19.514 8.456-19.73 8.456-.432 0 .865-5.418 2.598-11.925 14.53-54.001 22.772-108.647 23.208-152.452.216-21.687.216-21.687 2.169-22.334-.436.217-.22.217 0 .217zm-30.142 11.492c1.297 1.299.432 49.877-1.304 63.104-3.903 31.662-9.975 61.153-19.947 94.335-2.386 8.018-4.558 14.745-4.987 15.177-.872 1.083-30.581-27.975-40.339-39.251-16.916-19.518-30.141-39.035-39.9-58.117-4.988-9.759-12.793-28.84-12.144-29.492 3.469-2.385 117.753-46.622 118.621-45.756zm-141.826 55.731c.216 0 .432 0 .652.216.432.434 1.953 3.905 3.254 7.807 6.937 18.867 22.548 46.624 35.997 64.407 14.746 19.518 34.048 40.334 50.091 53.996 5.207 4.337 9.975 8.456 10.624 9.108 1.304 1.302 1.737 1.083-33.612 14.53-40.981 15.613-85.656 31.226-136.835 47.706a6825.474 6825.474 0 0 0-36.643 11.928c-1.955.652-1.303-.434 4.335-9.323 25.371-39.686 63.97-117.536 85.657-172.618 3.687-9.542 7.373-19.082 8.025-21.251.868-3.038 1.95-4.121 4.768-5.64 1.518-.43 3.038-.866 3.687-.866zm-43.367 17.999c.649.436-10.411 23.637-21.254 44.889-21.036 40.985-44.022 81.323-74.815 130.331-5.204 8.456-10.19 16.265-10.842 17.132-1.083 1.519-1.519 1.083-4.988-5.638-7.373-14.53-13.447-33.181-16.699-50.313-3.254-16.916-2.602-46.406 1.086-64.621 2.816-13.444 2.602-13.227 9.107-16.481 27.757-14.095 117.537-56.166 118.405-55.299zm374.073 15.182v9.107c0 48.359-5.204 114.716-12.797 163.077-1.301 8.456-2.389 15.393-2.602 15.613 0 0-6.288-1.733-13.661-3.905-32.527-10.193-67.875-25.156-99.754-42.718-21.038-11.494-51.612-30.363-50.743-31.231.213-.215 9.323-4.986 19.947-10.625 42.509-22.118 83.274-45.972 118.622-69.609 13.229-8.892 33.176-23.202 37.518-27.107l3.47-2.602zm-537.802 64.185c.867 0 .65 1.735-.651 9.542-.868 5.64-1.951 16.049-2.382 23.202-1.739 31.662 3.469 55.084 19.082 87.177 4.337 8.892 7.809 16.265 7.589 16.48-1.519 1.303-145.074 43.375-190.183 55.734-13.444 3.685-25.152 6.939-26.024 7.153-1.515.436-1.733.22-1.083-3.47 4.987-31.875 29.276-73.512 63.104-108.644 22.554-23.419 40.554-37.08 71.347-54.648 22.119-12.575 56.165-31.439 58.767-32.309.002-.217.218-.217.434-.217zm338.295 60.503c.216-.216 5.42 2.605 11.708 6.29 46.408 26.891 111.03 51.83 166.108 64.623l4.991 1.086-6.941 3.899c-28.84 16.049-123.606 55.515-220.538 91.732-14.098 5.202-27.975 10.409-30.581 11.492-2.602 1.083-4.988 1.735-4.988 1.519 0-.22 3.906-7.809 8.89-17.132 27.107-50.744 54.433-112.547 68.311-155.485 1.739-4.12 2.82-7.805 3.04-8.024zm-34.48 11.278c.22.221-1.517 4.771-3.687 9.975-18.865 45.756-43.59 95.636-75.249 151.583-8.022 14.314-14.746 25.808-14.966 25.808-.213 0-6.721-3.906-14.527-8.676-45.976-28.192-86.743-62.888-113.414-96.501l-3.905-4.771 19.732-5.422c70.696-19.298 130.762-40.116 190.4-65.704 8.459-3.471 15.4-6.292 15.616-6.292zm214.253 74.815s.217.217 0 0c.216 4.988-10.844 49.661-19.953 81.969-7.589 27.107-14.098 48.361-26.022 85.874-5.204 16.485-9.755 30.143-9.975 30.143-.216 0-1.517-.216-2.818-.647-64.405-11.714-122.089-27.977-176.303-49.661-15.182-6.074-36.866-15.833-38.167-16.916-.432-.438 12.58-6.506 29.06-13.663 98.669-43.154 201.024-92.164 236.153-113.196 4.119-2.603 7.373-3.903 8.025-3.903zm-494.646 16.916c.434.432-27.107 40.118-65.709 94.114-13.444 18.867-29.057 40.985-34.911 49.225-5.856 8.241-14.746 21.253-19.734 29.06l-9.112 14.096-9.759-8.24c-11.494-9.544-31.442-29.927-40.333-41.204-18.651-23.201-31.226-47.706-36.214-70.04-2.386-10.411-2.386-15.618-.22-16.265 3.252-.867 61.153-14.53 115.37-27.11 30.143-6.937 65.054-15.177 77.632-18.213 12.579-3.041 22.774-5.423 22.99-5.423zm27.756 10.626l6.937 7.806c31.231 34.914 63.108 60.724 101.708 83.272 6.941 3.906 12.144 7.373 11.708 7.594-1.514 1.083-134.016 48.136-195.385 69.389-34.478 12.143-62.888 21.901-63.102 21.901-.216 0-2.169-1.299-4.341-2.818l-3.901-2.82 6.288-9.106c20.383-29.493 45.976-61.803 101.707-129.028l38.381-46.19zm173.053 123.822c.213-.215 9.755 3.252 21.464 7.594 28.195 10.624 50.527 17.345 80.456 24.936 36.866 9.326 90.211 18.434 121.657 21.035 4.771.432 7.373.868 6.505 1.519-1.521.868-33.395 11.494-56.816 18.867-37.302 11.708-151.149 45.32-243.962 71.995-17.132 4.987-31.879 9.108-32.746 9.323-2.166.436-9.325-1.519-9.325-2.386 0-.431 5.204-7.153 11.494-14.527 31.225-37.3 62.238-78.935 88.044-118.403 7.154-10.846 13.229-19.736 13.229-19.953zm-38.17 1.087c.216.216-15.179 24.936-42.066 67.439-11.496 17.999-24.291 38.383-28.846 45.54-4.337 6.939-10.842 17.784-14.527 23.854l-6.29 11.061-3.252-.868c-7.809-2.169-62.672-21.471-77.202-27.325-18-7.157-36.649-15.829-50.529-23.202-17.346-9.326-39.03-23.206-37.297-23.637.433-.216 30.143-8.243 65.922-17.999 94.984-25.809 147.678-40.77 182.161-51.612 6.29-1.952 11.71-3.471 11.926-3.251zm269.985 63.318h.216c.868 2.171-34.26 99.755-47.06 130.547-2.815 6.939-3.896 8.677-5.417 8.456-3.687-.213-54.646-7.37-85.66-11.925-53.994-8.24-144.641-24.073-167.409-29.275l-5.204-1.083 32.307-7.378c69.396-15.613 102.791-24.069 136.619-34.478 42.722-13.011 85.011-29.276 127.729-49.225 6.722-3.037 12.361-5.422 13.879-5.639z"/>
    <linearGradient id="b" gradientUnits="userSpaceOnUse" x1="-2882.7" y1="10288.81" x2="-2206.249" y2="10288.81" gradientTransform="matrix(.1234 0 0 -.1234 1158.33 1550.273)">
      <stop offset="0" stop-color="#939fab"/>
      <stop offset="1" stop-color="#dcdee1"/>
    </linearGradient>
    <path fill="url(#b)" d="M1114.983 145.414c-4.771-.647-81.757 27.11-131.415 47.275-67.01 27.327-119.052 53.351-151.148 75.899-11.925 8.461-26.891 23.422-29.273 29.276-.867 2.169-1.303 4.771-1.303 7.373l29.06 27.541 69.175 22.119 164.594 29.493 188.228 32.312 1.953-16.264c-.649 0-1.085-.216-1.73-.216l-24.728-3.905-4.984-8.89c-25.59-45.107-53.781-101.056-70.261-138.789-12.793-29.276-24.938-63.102-31.662-87.391-3.687-14.746-4.119-15.613-6.501-15.829v-.005h-.005zm-3.474 11.063h.223c.213.214 1.081 6.29 1.95 13.442 3.683 30.364 10.411 59.635 21.035 91.297 8.022 23.855 8.022 22.555-1.301 19.734-22.119-6.07-121.221-23.202-193-33.177-11.494-1.519-21.253-3.036-21.253-3.252-.867-.867 51.827-28.41 75.031-39.25 29.709-13.665 111.246-47.711 117.315-48.794zm-209.047 97.15l8.461 2.816c45.97 15.616 161.551 37.736 225.31 42.94 7.154.651 13.229 1.303 13.442 1.303.216.216-5.852 3.469-13.661 7.154-30.79 15.397-64.621 34.264-88.042 48.794-6.937 4.335-13.229 7.807-14.094 7.807-.868 0-5.42-.868-10.191-1.519l-8.674-1.303-21.683-21.253c-38.167-37.08-68.094-65.704-79.588-76.549l-11.28-10.19zm-8.671 6.721l30.576 38.168c16.696 21.035 33.611 41.635 37.301 46.187 3.683 4.557 6.721 8.245 6.505 8.461-.868.65-44.236-7.809-67.226-13.011-23.637-5.423-33.395-8.025-47.924-12.577l-11.928-3.905v-3.038c.216-14.53 18.651-36.214 49.877-58.331l2.819-1.954zm259.791 52.046c.869 0 1.95 1.951 4.552 7.806 7.373 16.263 30.364 60.07 35.997 68.526 1.74 2.822 4.771 3.038-25.802-1.95-73.512-11.93-97.152-15.829-97.152-16.263 0-.216 2.169-1.735 4.988-3.254 22.771-12.575 45.756-28.624 66.142-45.756 4.988-4.121 9.542-8.024 10.407-8.676.216-.433.652-.649.868-.433z"/>
    <radialGradient id="c" cx="-14217.448" cy="7277.705" r="898.12" gradientTransform="matrix(-.1185 -.0178 -.036 .237 -198.955 -1314.415)" gradientUnits="userSpaceOnUse">
      <stop offset="0" stop-color="#ee352c"/>
      <stop offset="1" stop-color="#a91d22"/>
    </radialGradient>
    <path fill="url(#c)" d="M804.66 294.828s-4.768 7.593-.215 18.87c2.822 6.937 11.061 15.393 20.384 24.069 0 0 96.5 94.114 108.211 107.561 53.344 61.585 76.549 122.305 78.718 206.012 1.301 53.78-8.894 101.054-34.264 155.919-45.106 98.453-140.307 207.098-287.117 327.67l21.472-7.157c13.878-10.411 32.745-21.467 76.982-45.756 102.137-55.952 217.071-107.346 358.028-160.258 202.971-76.335 536.715-165.681 726.676-194.736l19.737-3.038-3.038-4.771c-17.345-26.891-29.276-43.587-43.59-61.369-41.633-51.612-92.157-93.463-153.964-128.161-85.007-47.489-194.956-84.571-334.173-112.112-26.239-5.207-83.923-15.181-130.763-22.337-99.321-15.393-163.51-26.021-234.203-38.165-25.37-4.339-63.323-10.843-88.478-16.263-13.011-2.822-37.947-8.676-57.464-15.398-15.613-6.075-38.168-12.147-42.939-30.58zm55.952 54.216c.214-.214 3.683 1.083 8.24 2.602 8.24 2.816 18.865 6.07 31.446 9.542a1599.47 1599.47 0 0 0 28.624 7.589c13.011 3.251 23.852 6.288 24.068 6.288 1.521 1.519 23.424 71.558 30.797 98.449 2.815 10.195 4.988 18.867 4.771 18.867-.223.22-2.605-3.469-5.423-8.456-25.373-44.673-65.491-89.995-111.899-126.428-6.069-4.333-10.624-8.237-10.624-8.453zm106.692 29.492c1.085 0 5.856.651 11.708 1.951 36.866 8.24 103.008 20.818 145.293 27.975 7.157 1.083 12.797 2.387 12.797 2.818 0 .436-2.605 1.951-5.859 3.688-7.153 3.685-35.997 20.815-45.536 27.322-24.073 16.047-45.756 33.395-61.371 49.008-6.288 6.29-11.712 11.494-11.712 11.494s-1.297-3.685-2.386-8.242c-7.802-30.143-24.069-74.816-38.815-106.258-2.386-4.986-4.339-9.541-4.339-9.973 0 .433 0 .217.22.217zm187.795 35.781c1.301.432 3.47 7.806 7.806 24.069 8.025 31.446 11.712 66.576 10.411 99.321-.436 9.108-.868 17.564-1.304 18.651l-.649 2.166-11.276-3.685c-23.204-7.373-60.935-18.435-93.245-27.541-18.436-4.988-33.395-9.542-33.395-9.975 0-1.303 26.891-28.192 38.383-38.383 21.898-19.303 81.316-65.275 83.269-64.623zm14.963 2.166c.652-.647 89.779 14.746 130.331 22.554 30.145 5.854 73.948 14.963 76.549 16.049 1.301.432-3.254 3.034-17.784 9.539-57.248 25.808-99.754 49.008-142.036 77.202-11.06 7.373-20.386 13.444-20.602 13.444-.216 0-.433-6.287-.433-13.878 0-41.201-8.241-82.838-23.424-117.968-1.517-3.47-2.818-6.722-2.601-6.942zm230.516 45.542c.652.65-2.169 18.217-4.771 28.624-7.806 32.312-28.84 80.24-54.643 125.343-4.558 8.024-8.677 14.53-9.114 14.746-.429.216-6.285-3.038-13.009-6.941-25.154-14.746-53.778-28.624-85.007-41.637-8.671-3.685-16.263-6.723-16.48-7.153-1.521-1.303 68.308-47.493 105.174-69.612 29.276-17.781 76.982-44.239 77.85-43.37zm16.48 2.601c1.953 0 41.421 10.844 62.019 16.916 50.963 15.181 109.512 36.648 147.679 53.996l15.828 7.159-11.056 2.6c-93.245 21.467-173.049 46.192-250.034 77.418-6.289 2.602-11.928 4.771-12.357 4.771-.436 0 1.733-4.987 4.552-11.061 23.204-49.225 38.167-100.62 41.85-144.427.221-4.121.867-7.372 1.519-7.372zm-392.938 90.213c.649-.652 30.793 6.506 47.057 11.056 24.721 6.942 77.198 24.505 77.198 25.808 0 .216-5.853 5.204-12.79 11.278-28.408 23.637-55.734 48.572-88.481 80.234-9.759 9.328-17.997 16.917-18.429 16.917-.436 0-.649-1.304-.436-3.038 4.987-36.433 3.906-83.272-3.034-130.763-.653-6.074-1.302-11.276-1.085-11.492zm633.433.652c.429.431-13.881 22.984-22.988 35.777-13.009 18.649-32.098 43.375-75.252 97.588-22.765 28.622-48.358 60.936-56.812 71.778-8.678 10.842-15.831 19.948-16.051 19.948-.216 0-3.031-3.901-6.069-8.671-24.289-36.433-53.349-68.311-87.829-96.935-6.505-5.423-13.658-11.278-16.044-13.013-2.386-1.734-4.339-3.469-4.339-3.685 0-.649 36.862-16.483 64.841-27.757 49.01-19.952 115.794-43.805 165.892-59.203 26.24-8.239 54.215-16.263 54.651-15.827zm16.696 4.334c.865-.215 6.072 2.387 12.361 6.07 52.697 30.143 104.305 68.962 145.077 108.864 11.492 11.278 39.9 40.77 39.464 40.986 0 0-9.975.867-21.683 1.733-91.296 6.942-208.178 26.239-320.511 53.345-7.589 1.733-14.31 3.252-14.746 3.252-.429 0 8.025-8.456 18.653-18.647 65.922-63.538 96.067-103.656 131.628-175.22 4.986-10.623 9.325-19.731 9.757-20.383-.216 0-.216 0 0 0zm-482.936 49.446c3.038.647 31.229 13.88 52.48 24.503 19.517 9.755 48.794 25.372 50.311 26.671.216.216-10.195 5.638-22.984 11.928-40.772 20.384-75.684 39.682-112.118 61.802-10.408 6.29-19.082 11.497-19.298 11.497-.868 0-.652-.872 5.204-11.497 19.518-35.561 35.129-78.065 44.023-119.486.864-3.252 1.733-5.418 2.382-5.418zm-28.192 5.202c.652.652-6.721 27.323-11.273 41.853-8.894 27.541-23.856 62.02-38.383 88.043-3.474 6.069-8.677 14.961-11.496 19.948l-5.42 8.674-12.144-11.707c-14.094-13.663-25.59-22.12-40.333-29.712-5.859-3.033-10.411-5.638-10.411-6.069 0-1.735 37.082-35.347 65.49-59.635 20.383-17.566 63.321-52.045 63.97-51.395zm172.404 70.913l10.627 6.937c24.282 15.833 52.906 36.866 74.813 55.298 12.357 10.19 36.21 31.662 40.985 36.866l2.598 2.822-17.561 4.986c-99.321 27.538-176.087 52.043-265.649 85.007-9.975 3.685-18.433 6.721-19.085 6.721-1.297 0-2.385 1.083 19.954-19.519 57.251-52.691 107.992-110.812 145.726-167.411l7.592-11.707zm-45.324 11.276c.432.432-29.276 42.284-47.06 65.922-21.251 28.192-58.985 75.465-85.007 106.256-10.84 12.797-20.163 23.422-20.599 23.64-.652.216-.868-3.036-.868-8.024 0-26.242-6.721-54.216-18.433-78.068-4.988-9.975-5.856-12.361-4.768-13.444 4.119-3.688 67.223-39.686 107.123-61.153 26.89-14.312 68.956-35.563 69.612-35.129zm-274.107 67.225c.652 0 5.64 2.6 11.279 5.638 13.878 7.589 26.239 16.046 37.298 25.156.432.432-5.204 4.988-12.577 10.406-20.602 14.746-51.828 38.385-70.041 52.915-19.088 15.18-19.734 15.613-17.568 12.361 14.314-21.903 21.467-34.264 29.06-50.093 6.721-14.094 13.442-30.793 18.213-45.323 1.734-6.289 3.904-11.06 4.336-11.06zm73.083 57.248c1.081-.214 2.386 1.735 8.238 10.411 12.361 18.429 21.903 43.154 24.292 63.104l.429 4.339-29.705 11.494c-53.133 20.599-102.139 40.985-135.322 56.162-9.322 4.339-25.587 12.144-36.211 17.352-10.627 5.418-19.301 9.539-19.301 9.323s6.721-5.204 14.961-11.278c64.844-47.055 121.007-98.669 163.076-150.279 4.555-5.423 8.677-10.411 9.107-10.627l.436-.001zm-33.612 8.242c.868.867-23.853 28.84-40.768 45.971-41.853 42.723-83.273 76.12-134.669 108.649-6.505 4.119-12.359 7.804-13.011 8.24-1.519.867.432-1.303 22.986-25.808 14.314-15.397 25.155-28.408 37.516-44.453 8.24-10.624 9.759-12.143 21.688-20.604 31.878-22.987 105.39-72.864 106.258-71.995z"/>
  </g>
  <path d="M 92.584 276.219 C 91.938 276.219 91.291 276.283 90.649 276.283 C 77.584 277.001 68.774 282.934 63.622 294.52 C 59.215 304.997 59.696 318.695 63.671 329.237 C 68.294 339.539 75.761 344.975 88.227 347.029 C 90.865 347.475 92.634 348.969 97.743 355.124 L 104.028 362.723 L 115.428 362.723 L 107.847 354.837 C 103.657 350.513 100.268 346.749 100.268 346.419 C 100.268 346.088 101.871 345.363 103.811 344.753 C 110.208 342.755 115.519 337.656 119.236 329.841 C 122.242 323.566 122.675 321.626 123.106 313.817 C 124.233 290.577 112.358 276.047 92.583 276.212 L 92.584 276.219 Z M 102.58 336.996 C 97.034 339.767 88.98 340.32 83.723 338.331 C 78.288 336.27 73.025 330.447 70.659 323.853 C 68.028 316.642 68.404 303.34 71.41 297.349 C 76.247 287.811 82.644 283.424 91.992 283.424 C 105.858 283.424 113.746 292.187 114.774 308.655 C 115.589 322.404 111.127 332.716 102.585 336.989 L 102.58 336.996 Z M 299.514 296.071 C 294.732 296.071 291.072 298.068 288.606 302.003 L 286.672 305.12 L 286.672 297.019 L 278.396 297.019 L 278.396 345.599 L 286.666 345.599 L 286.666 330.071 C 286.666 315.872 286.837 314.212 288.761 310.327 C 291.41 304.997 295.97 302.342 300.377 303.614 L 303.334 304.503 L 303.334 296.084 L 299.514 296.084 L 299.514 296.071 Z M 250.894 295.626 C 249.272 295.626 247.553 295.848 245.841 296.236 C 234.767 299.225 228.525 310.162 228.906 321.417 C 228.906 330.841 230.681 335.552 235.087 340.493 C 244.115 348.136 252.28 348.746 263.298 344.645 C 265.178 343.818 267.223 342.865 267.223 342.865 L 267.223 335.222 L 263.298 337.32 C 254.381 341.326 247.664 341.326 242.284 336.608 C 238.853 333.003 237.343 328.678 236.646 323.745 L 270.015 323.745 L 270.015 317.194 C 270.015 303.841 262.226 295.41 250.886 295.626 L 250.894 295.626 Z M 237.397 316.928 C 237.397 316.928 238.63 308.598 243.202 305.33 C 245.404 303.726 247.929 302.952 250.4 302.952 C 252.877 302.952 255.348 303.777 257.389 305.387 C 261.579 308.712 262.281 316.865 262.281 316.865 L 237.398 316.865 L 237.398 316.928 L 237.397 316.928 Z M 37.882 308.166 C 28.909 302.557 24.928 298.512 25.414 293.744 C 26.808 280.549 42.608 282.374 51.359 287.367 L 51.421 278.49 C 51.421 278.49 46.583 276.328 39.65 276.213 C 29.014 276.048 22.137 279.646 18.915 286.973 C 14.181 297.781 18.372 305.933 33.519 315.026 C 42.022 320.131 45.782 324.565 45.782 329.397 C 45.782 339.38 34.117 342.865 22.082 336.601 C 19.605 335.33 17.51 334.267 17.4 334.267 C 16.967 337.097 17.191 343.869 17.191 343.869 C 17.191 343.869 20.887 345.472 26.433 346.577 C 40.187 349.407 52.703 342.75 53.885 331.94 C 54.915 321.792 51.359 316.469 37.883 308.159 L 37.882 308.166 Z M 372.759 295.512 C 371.144 295.512 369.431 295.74 367.644 296.128 C 356.583 299.118 350.352 310.054 350.777 321.309 C 350.777 330.72 352.546 335.387 356.952 340.321 C 365.98 347.971 374.144 348.588 385.219 344.48 C 387.092 343.653 389.132 342.713 389.132 342.713 L 389.132 335.057 L 385.213 337.168 C 376.277 341.162 369.56 341.162 364.199 336.444 C 360.747 332.845 359.25 328.571 358.555 323.579 L 391.868 323.579 L 391.868 317.03 C 391.868 303.741 384.078 295.303 372.739 295.525 L 372.759 295.512 Z M 359.263 316.813 C 359.263 316.813 360.508 308.496 365.074 305.164 C 367.268 303.556 369.794 302.78 372.264 302.78 C 374.73 302.78 377.214 303.606 379.254 305.221 C 383.444 308.546 384.147 316.756 384.147 316.756 L 359.27 316.756 L 359.263 316.813 Z M 207.572 308.274 C 198.6 302.678 194.632 298.621 195.111 293.852 C 196.505 280.651 212.305 282.482 221.056 287.474 L 221.118 278.598 C 221.118 278.598 216.28 276.435 209.347 276.334 C 198.711 276.169 191.833 279.767 188.605 287.092 C 183.878 297.903 188.124 306.054 203.223 315.148 C 211.714 320.247 215.474 324.622 215.474 329.454 C 215.474 339.437 203.814 342.98 191.778 336.658 C 189.314 335.387 187.22 334.337 187.095 334.337 C 186.664 337.166 186.887 343.939 186.887 343.939 C 186.887 343.939 190.54 345.484 196.068 346.647 C 209.834 349.483 222.356 342.831 223.533 332.023 C 224.556 321.925 221.007 316.603 207.572 308.285 L 207.572 308.274 Z M 421.384 295.957 C 416.603 295.957 412.899 297.959 410.478 301.896 L 408.542 304.998 L 408.542 296.911 L 400.266 296.911 L 400.266 345.478 L 408.536 345.478 L 408.536 329.951 C 408.536 315.759 408.703 314.092 410.632 310.212 C 413.282 304.89 417.841 302.227 422.248 303.505 L 425.205 304.394 L 425.205 295.957 L 421.384 295.957 Z M 141.759 307.994 L 141.759 277.053 L 133.416 277.053 L 133.416 345.586 L 168.504 345.586 L 168.504 337.492 L 141.759 337.492 L 141.759 307.994 Z M 334.712 317.64 L 327.836 336.105 L 321.223 317.537 L 314.507 296.961 L 305.966 296.961 C 311.499 313.15 317.52 329.62 323.589 345.586 C 326.221 345.65 328.858 345.586 331.489 345.586 L 340.776 321.525 L 350.236 296.968 L 342.07 296.968 C 342.07 296.968 338.465 306.722 334.707 317.646 L 334.712 317.64 Z M 160.985 258.376 C 162.328 258.376 163.451 257.932 164.375 256.978 C 165.286 256.037 165.767 254.931 165.767 253.543 C 165.767 252.157 165.286 251 164.375 250.11 C 163.451 249.22 162.384 248.774 161.047 248.774 C 159.691 248.774 158.57 249.22 157.657 250.162 C 156.734 251.102 156.314 252.261 156.314 253.595 C 156.314 254.994 156.747 256.151 157.657 257.029 C 158.52 257.919 159.642 258.364 160.985 258.364 L 160.985 258.376 Z M 158.028 250.492 C 158.828 249.666 159.803 249.284 161.048 249.284 C 162.218 249.284 163.191 249.666 164.005 250.492 C 164.807 251.318 165.238 252.323 165.238 253.543 C 165.238 254.765 164.807 255.821 164.005 256.648 C 163.192 257.473 162.218 257.868 161.048 257.868 C 159.858 257.868 158.89 257.486 158.09 256.648 C 157.289 255.821 156.857 254.765 156.857 253.543 C 156.857 252.323 157.227 251.318 158.028 250.492 Z M 160.018 253.99 L 160.56 253.99 C 160.942 253.99 161.318 254.37 161.638 255.096 L 162.286 256.596 L 163.303 256.596 L 162.502 254.93 C 162.175 254.262 161.856 253.875 161.479 253.767 C 161.953 253.651 162.328 253.486 162.6 253.155 C 162.871 252.87 162.97 252.482 162.97 252.043 C 162.97 251.534 162.815 251.153 162.49 250.872 C 162.119 250.555 161.529 250.383 160.764 250.383 L 159.052 250.383 L 159.052 256.596 L 159.914 256.596 L 159.914 253.989 L 160.018 253.99 Z M 160.018 251.102 L 160.77 251.102 C 161.312 251.102 161.694 251.217 161.904 251.382 C 162.108 251.547 162.163 251.764 162.163 252.157 C 162.163 252.876 161.731 253.213 160.93 253.213 L 160.006 253.213 L 160.006 251.102 L 160.018 251.102 Z M 22.192 253.436 C 22.192 251.274 22.131 249.666 22.081 248.717 L 22.131 248.717 C 22.346 249.836 22.611 250.67 22.827 251.223 L 30.837 269.689 L 32.182 269.689 L 40.192 251.058 C 40.407 250.55 40.624 249.786 40.888 248.724 L 40.95 248.724 C 40.79 250.569 40.734 252.171 40.734 253.448 L 40.734 269.747 L 43.476 269.747 L 43.476 245.519 L 40.038 245.519 L 32.674 262.37 C 32.402 263.037 32.027 264.035 31.546 265.358 L 31.435 265.358 C 31.275 264.704 30.898 263.705 30.363 262.484 L 23.165 245.461 L 19.511 245.461 L 19.511 269.688 L 22.148 269.688 L 22.148 253.448 L 22.192 253.436 Z M 49.485 253.481 L 51.851 253.481 L 51.851 268.569 L 49.485 268.569 L 49.485 253.481 Z M 50.668 247.948 C 51.161 247.948 51.58 247.776 51.9 247.44 C 52.228 247.109 52.443 246.677 52.443 246.169 C 52.443 245.673 52.283 245.226 51.907 244.897 C 51.574 244.559 51.149 244.387 50.662 244.387 C 50.182 244.387 49.75 244.559 49.429 244.897 C 49.103 245.226 48.887 245.673 48.887 246.169 C 48.887 246.722 49.054 247.109 49.429 247.44 C 49.8 247.776 50.181 247.948 50.662 247.948 L 50.668 247.948 Z M 68.723 268.902 L 68.723 266.242 C 67.429 267.241 66.037 267.737 64.595 267.737 C 62.87 267.737 61.471 267.127 60.447 265.958 C 59.431 264.8 58.889 263.19 58.889 261.188 C 58.889 259.089 59.431 257.422 60.553 256.151 C 61.632 254.931 63.03 254.321 64.743 254.321 C 66.142 254.321 67.485 254.766 68.724 255.656 L 68.724 252.826 C 67.596 252.216 66.308 251.936 64.854 251.936 C 62.167 251.936 60.073 252.826 58.507 254.543 C 56.954 256.26 56.153 258.594 56.153 261.412 C 56.153 263.916 56.849 266.021 58.297 267.631 C 59.808 269.283 61.737 270.122 64.103 270.122 C 65.933 270.069 67.429 269.676 68.723 268.902 Z M 75.496 260.857 C 75.496 258.867 75.928 257.258 76.728 256.151 C 77.48 255.153 78.393 254.65 79.47 254.65 C 80.383 254.65 81.03 254.823 81.503 255.21 L 81.503 252.323 C 81.135 252.158 80.598 252.101 79.903 252.101 C 78.934 252.101 78.073 252.437 77.314 253.055 C 76.513 253.709 75.873 254.708 75.496 255.98 L 75.436 255.98 L 75.436 252.437 L 72.754 252.437 L 72.754 269.733 L 75.441 269.733 L 75.441 260.857 L 75.496 260.857 Z M 90.921 270.077 C 93.447 270.077 95.481 269.237 96.99 267.572 C 98.494 265.917 99.244 263.692 99.244 260.919 C 99.244 258.09 98.555 255.929 97.15 254.32 C 95.758 252.711 93.823 251.935 91.296 251.935 C 88.769 251.935 86.736 252.711 85.226 254.211 C 83.611 255.865 82.761 258.198 82.761 261.194 C 82.761 263.8 83.451 265.963 84.906 267.572 C 86.41 269.237 88.4 270.069 90.921 270.069 L 90.921 270.077 Z M 87.1 255.986 C 88.122 254.874 89.467 254.32 91.13 254.32 C 92.855 254.32 94.149 254.874 95.111 255.986 C 96.078 257.15 96.559 258.809 96.559 261.028 C 96.559 263.139 96.128 264.799 95.215 265.912 C 94.303 267.076 92.96 267.691 91.185 267.691 C 89.46 267.691 88.122 267.076 87.1 265.912 C 86.084 264.742 85.596 263.139 85.596 261.028 C 85.492 258.929 86.027 257.214 87.1 255.986 Z M 111.009 268.569 C 112.032 267.629 112.575 266.471 112.575 265.021 C 112.575 263.749 112.143 262.694 111.342 261.861 C 110.689 261.194 109.68 260.589 108.219 259.979 C 106.924 259.421 106.123 258.924 105.691 258.535 C 105.261 258.09 104.995 257.537 104.995 256.755 C 104.995 256.037 105.267 255.484 105.796 255.039 C 106.339 254.593 107.029 254.378 107.953 254.378 C 109.401 254.378 110.64 254.772 111.774 255.604 L 111.774 252.833 C 110.689 252.273 109.512 252.006 108.168 252.006 C 106.443 252.006 104.989 252.496 103.916 253.443 C 102.789 254.384 102.253 255.605 102.253 257.041 C 102.253 258.313 102.622 259.369 103.324 260.145 C 103.916 260.806 104.928 261.48 106.332 262.083 C 107.675 262.695 108.587 263.247 109.074 263.692 C 109.554 264.138 109.771 264.691 109.771 265.347 C 109.771 266.961 108.699 267.795 106.603 267.795 C 104.989 267.795 103.54 267.247 102.246 266.142 L 102.246 269.129 C 103.417 269.855 104.822 270.185 106.375 270.185 C 108.365 270.077 109.924 269.574 110.996 268.576 L 111.009 268.569 Z M 123.802 251.936 C 121.275 251.936 119.242 252.711 117.732 254.212 C 116.131 255.865 115.267 258.199 115.267 261.195 C 115.267 263.801 115.964 265.964 117.413 267.572 C 118.922 269.238 120.907 270.07 123.432 270.07 C 126.021 270.07 127.994 269.232 129.503 267.565 C 131.013 265.912 131.764 263.686 131.764 260.914 C 131.764 258.084 131.061 255.923 129.668 254.314 C 128.215 252.706 126.279 251.929 123.814 251.929 L 123.802 251.936 Z M 129.016 261.029 C 129.016 263.139 128.585 264.8 127.672 265.912 C 126.76 267.076 125.417 267.692 123.641 267.692 C 121.916 267.692 120.579 267.076 119.555 265.912 C 118.539 264.742 118.052 263.139 118.052 261.029 C 118.052 258.803 118.589 257.087 119.667 255.929 C 120.684 254.823 122.027 254.262 123.698 254.262 C 125.361 254.262 126.698 254.822 127.666 255.929 C 128.529 257.149 129.009 258.809 129.009 261.029 L 129.016 261.029 Z M 136.275 269.682 L 138.955 269.682 L 138.955 254.709 L 142.881 254.709 L 142.881 252.38 L 138.955 252.38 L 138.955 249.71 C 138.955 247.282 139.867 246.061 141.754 246.061 C 142.388 246.061 143.034 246.226 143.515 246.506 L 143.515 244.007 C 143.034 243.785 142.388 243.734 141.581 243.734 C 140.131 243.734 138.949 244.179 137.981 245.119 C 136.853 246.227 136.255 247.663 136.255 249.61 L 136.255 252.446 L 133.421 252.446 L 133.421 254.773 L 136.255 254.773 L 136.255 269.691 L 136.275 269.682 Z M 147.287 264.964 C 147.287 268.348 148.735 270.069 151.692 270.069 C 152.766 270.069 153.572 269.893 154.219 269.498 L 154.219 267.121 C 153.727 267.502 153.142 267.681 152.494 267.681 C 151.582 267.681 150.942 267.456 150.566 266.954 C 150.183 266.46 149.967 265.62 149.967 264.462 L 149.967 254.701 L 154.219 254.701 L 154.219 252.374 L 149.967 252.374 L 149.967 247.275 C 149.043 247.605 148.138 247.886 147.281 248.164 L 147.281 252.374 L 144.386 252.374 L 144.386 254.701 L 147.281 254.701 L 147.281 264.959 L 147.287 264.964 Z M 435.682 296.846 C 434.768 295.957 433.691 295.512 432.354 295.512 C 430.999 295.512 429.877 295.957 428.964 296.911 C 428.053 297.845 427.621 299.009 427.621 300.344 C 427.621 301.731 428.053 302.888 428.958 303.777 C 429.87 304.668 430.992 305.113 432.347 305.113 C 433.684 305.113 434.813 304.668 435.737 303.727 C 436.643 302.772 437.123 301.673 437.123 300.293 C 437.074 298.894 436.586 297.738 435.676 296.846 L 435.682 296.846 Z M 435.249 303.397 C 434.449 304.223 433.476 304.604 432.292 304.604 C 431.121 304.604 430.149 304.223 429.334 303.397 C 428.534 302.557 428.102 301.507 428.102 300.281 C 428.102 299.072 428.471 298.068 429.286 297.229 C 430.086 296.403 431.054 296.02 432.292 296.02 C 433.463 296.02 434.438 296.403 435.249 297.229 C 436.052 298.068 436.482 299.072 436.482 300.281 C 436.482 301.566 436.113 302.557 435.249 303.397 Z M 432.835 300.566 C 433.315 300.452 433.697 300.23 433.962 299.956 C 434.233 299.67 434.333 299.282 434.333 298.837 C 434.333 298.341 434.178 297.947 433.852 297.673 C 433.482 297.356 432.885 297.184 432.127 297.184 L 430.414 297.184 L 430.414 303.39 L 431.277 303.39 L 431.277 300.783 L 431.812 300.783 C 432.183 300.783 432.553 301.164 432.885 301.889 L 433.525 303.382 L 434.549 303.382 L 433.748 301.716 C 433.471 300.993 433.15 300.661 432.825 300.553 L 432.835 300.566 Z M 432.243 300.008 L 431.319 300.008 L 431.319 297.909 L 432.077 297.909 C 432.613 297.909 432.989 298.01 433.205 298.183 C 433.42 298.348 433.469 298.564 433.469 298.959 C 433.469 299.677 433.038 300.008 432.237 300.008 L 432.243 300.008 Z M 282.321 251.662 L 283.073 251.662 L 283.073 245.45 L 285.063 245.45 L 285.063 244.673 L 280.33 244.673 L 280.33 245.45 L 282.322 245.45 L 282.322 251.662 L 282.321 251.662 Z M 286.882 246.995 C 286.882 246.39 286.882 245.894 286.838 245.616 C 286.887 245.946 286.998 246.169 287.048 246.334 L 289.359 251.662 L 289.729 251.662 L 292.045 246.282 C 292.107 246.117 292.157 245.901 292.261 245.616 C 292.211 246.169 292.211 246.613 292.211 246.95 L 292.211 251.656 L 293.013 251.656 L 293.013 244.673 L 292.045 244.673 L 289.95 249.494 C 289.901 249.667 289.734 250.002 289.63 250.384 L 289.568 250.384 C 289.524 250.162 289.414 249.938 289.259 249.558 L 287.164 244.674 L 286.081 244.674 L 286.081 251.668 L 286.838 251.668 L 286.838 247.002 L 286.882 246.995 Z" style="fill: rgb(255, 255, 255);"/>
  <text style="fill: rgb(255, 255, 255); font-family: Actor; font-size: 65.9738px; line-height: 110.75px; text-transform: capitalize; white-space: pre;" transform="matrix(0.688482, 0, 0, 0.856728, 340.048772, -333.627477)" x="-420.44" y="852.652">Integration Services</text>
</svg>