<?xml version="1.0" encoding="UTF-8"?>
<!DOCTYPE svg PUBLIC "-//W3C//DTD SVG 1.1//EN" "http://www.w3.org/Graphics/SVG/1.1/DTD/svg11.dtd">
<svg xmlns="http://www.w3.org/2000/svg" version="1.1" width="400px" height="400px" style="shape-rendering:geometricPrecision; text-rendering:geometricPrecision; image-rendering:optimizeQuality; fill-rule:evenodd; clip-rule:evenodd" xmlns:xlink="http://www.w3.org/1999/xlink">
<g><path style="opacity:0.998" fill="#07b5d5" d="M 194.5,89.5 C 224.015,88.2801 249.682,97.4468 271.5,117C 280.887,126.387 290.221,135.721 299.5,145C 332.032,163.093 359.532,157.26 382,127.5C 375.738,158.097 358.572,180.264 330.5,194C 292.865,206.719 257.865,201.719 225.5,179C 212.651,164.474 198.318,151.808 182.5,141C 159.792,129.719 138.792,132.386 119.5,149C 114.917,152.912 111.083,157.412 108,162.5C 112.911,131.525 129.745,109.692 158.5,97C 170.268,92.685 182.268,90.185 194.5,89.5 Z"/></g>
<g><path style="opacity:0.998" fill="#07b6d5" d="M 97.5,199.5 C 126.146,197.24 151.813,204.74 174.5,222C 185.833,233 197.167,244 208.5,255C 241.427,273.06 268.927,266.893 291,236.5C 284.887,267.907 267.387,290.407 238.5,304C 189.274,319.247 147.941,307.58 114.5,269C 106.345,261.177 97.3452,254.51 87.5,249C 57.4913,238.781 33.6579,246.948 16,273.5C 24.8876,228.782 52.0543,204.115 97.5,199.5 Z"/></g>
</svg>
