<?xml version="1.0" encoding="utf-8"?>
<svg viewBox="0 0 400 400" style="shape-rendering:geometricPrecision; text-rendering:geometricPrecision; image-rendering:optimizeQuality; fill-rule:evenodd; clip-rule:evenodd" xmlns="http://www.w3.org/2000/svg">
  <g transform="matrix(1.119488000869751, 0, 0, 1.2500839233398438, -11.228766441345272, -87.82646942138673)" style="">
    <path style="opacity:0.998" fill="#07b5d5" d="M 194.5,89.5 C 224.015,88.2801 249.682,97.4468 271.5,117C 280.887,126.387 290.221,135.721 299.5,145C 332.032,163.093 359.532,157.26 382,127.5C 375.738,158.097 358.572,180.264 330.5,194C 292.865,206.719 257.865,201.719 225.5,179C 212.651,164.474 198.318,151.808 182.5,141C 159.792,129.719 138.792,132.386 119.5,149C 114.917,152.912 111.083,157.412 108,162.5C 112.911,131.525 129.745,109.692 158.5,97C 170.268,92.685 182.268,90.185 194.5,89.5 Z"/>
  </g>
  <g transform="matrix(1.119488000869751, 0, 0, 1.2500839233398438, -11.228766441345272, -87.82646942138673)" style="">
    <path style="opacity:0.998" fill="#07b6d5" d="M 97.5,199.5 C 126.146,197.24 151.813,204.74 174.5,222C 185.833,233 197.167,244 208.5,255C 241.427,273.06 268.927,266.893 291,236.5C 284.887,267.907 267.387,290.407 238.5,304C 189.274,319.247 147.941,307.58 114.5,269C 106.345,261.177 97.3452,254.51 87.5,249C 57.4913,238.781 33.6579,246.948 16,273.5C 24.8876,228.782 52.0543,204.115 97.5,199.5 Z"/>
  </g>
  <path xmlns="http://www.w3.org/2000/svg" d="M 60.012 351.318 L 51.576 351.318 L 51.576 367.66 C 51.576 372.036 54.41 371.935 60.007 371.665 L 60.007 378.24 C 48.642 379.606 44.158 376.497 44.158 367.66 L 44.158 351.318 L 37.911 351.318 L 37.911 344.287 L 44.158 344.287 L 44.158 335.162 L 51.491 332.984 L 51.491 344.287 L 59.91 344.287 L 59.91 351.318 L 60.012 351.318 Z M 92.279 344.287 L 99.61 344.287 L 99.61 378.24 L 92.279 378.24 L 92.279 373.303 C 89.7 376.869 85.679 379.068 80.36 379.068 C 71.097 379.068 63.409 371.207 63.409 361.169 C 63.409 351.048 71.097 343.292 80.364 343.292 C 85.679 343.292 89.7 345.469 92.281 349.037 L 92.279 344.287 Z M 81.451 372.121 C 87.596 372.121 92.281 367.558 92.281 361.272 C 92.281 354.969 87.596 350.405 81.451 350.405 C 75.323 350.405 70.638 354.969 70.638 361.272 C 70.741 367.558 75.323 372.121 81.455 372.121 L 81.451 372.121 Z M 111.886 339.185 C 109.324 339.185 107.218 336.986 107.218 334.519 C 107.218 331.966 109.324 329.872 111.886 329.872 C 114.454 329.872 116.572 331.966 116.572 334.519 C 116.657 336.986 114.449 339.185 111.886 339.185 Z M 108.221 378.24 L 108.221 344.293 L 115.552 344.293 L 115.552 378.24 L 108.221 378.24 Z M 124.073 378.24 L 124.073 328.69 L 131.407 328.69 L 131.407 378.24 L 124.073 378.24 Z M 179.363 344.293 L 187.153 344.293 L 176.426 378.24 L 169.175 378.24 L 162.116 355.34 L 154.968 378.24 L 147.738 378.24 L 137.01 344.293 L 144.797 344.293 L 151.396 367.744 L 158.547 344.287 L 165.61 344.287 L 172.653 367.744 L 179.363 344.293 Z M 196.216 339.181 C 193.654 339.181 191.548 336.991 191.548 334.519 C 191.548 331.966 193.654 329.872 196.216 329.872 C 198.783 329.872 200.902 331.966 200.902 334.519 C 200.986 336.986 198.882 339.185 196.216 339.185 L 196.216 339.181 Z M 192.551 378.24 L 192.551 344.293 L 199.882 344.293 L 199.882 378.24 L 192.551 378.24 Z M 226.381 343.379 C 233.985 343.379 239.484 348.581 239.484 357.334 L 239.484 378.24 L 232.152 378.24 L 232.152 358.162 C 232.152 352.955 229.131 350.321 224.547 350.321 C 219.692 350.321 215.84 353.142 215.84 360.07 L 215.84 378.322 L 208.505 378.322 L 208.505 344.39 L 215.84 344.39 L 215.84 348.768 C 218.132 345.115 221.798 343.375 226.381 343.375 L 226.381 343.379 Z M 274.504 330.701 L 281.836 330.701 L 281.836 378.24 L 274.504 378.24 L 274.504 373.303 C 271.938 376.869 267.901 379.068 262.589 379.068 C 253.319 379.068 245.629 371.207 245.629 361.169 C 245.629 351.048 253.319 343.292 262.589 343.292 C 267.901 343.292 271.938 345.469 274.504 349.037 L 274.504 330.701 Z M 263.69 372.121 C 269.818 372.121 274.504 367.558 274.504 361.272 C 274.504 354.969 269.818 350.405 263.69 350.405 C 257.545 350.405 252.861 354.969 252.861 361.272 C 252.861 367.558 257.545 372.121 263.691 372.121 L 263.69 372.121 Z M 306.483 379.151 C 296.232 379.151 288.441 371.311 288.441 361.272 C 288.441 351.131 296.128 343.375 306.483 343.375 C 313.189 343.375 318.96 346.843 321.712 352.148 L 315.379 355.797 C 313.919 352.603 310.525 350.592 306.399 350.592 C 300.357 350.592 295.858 355.155 295.858 361.272 C 295.858 367.37 300.441 371.935 306.399 371.935 C 310.525 371.935 313.815 369.838 315.48 366.747 L 321.795 370.296 C 319.045 375.688 313.189 379.151 306.483 379.151 Z M 334.084 353.598 C 334.084 359.804 352.417 356.067 352.417 368.656 C 352.417 375.417 346.459 379.151 339.126 379.151 C 332.336 379.151 327.394 376.04 325.189 371.207 L 331.523 367.558 C 332.608 370.669 335.359 372.494 339.126 372.494 C 342.419 372.494 344.898 371.393 344.898 368.656 C 344.898 362.641 326.566 366.003 326.566 353.873 C 326.566 347.485 332.065 343.478 339.023 343.478 C 344.626 343.478 349.294 346.029 351.688 350.489 L 345.44 353.972 C 344.252 351.318 341.875 350.135 339.023 350.135 C 336.376 350.035 334.084 351.232 334.084 353.598 Z M 365.523 353.598 C 365.523 359.804 383.855 356.067 383.855 368.656 C 383.855 375.417 377.896 379.151 370.564 379.151 C 363.773 379.151 358.832 376.04 356.631 371.207 L 362.957 367.558 C 364.058 370.669 366.808 372.494 370.564 372.494 C 373.855 372.494 376.335 371.393 376.335 368.656 C 376.335 362.641 358.002 366.003 358.002 353.873 C 358.002 347.485 363.5 343.478 370.479 343.478 C 376.063 343.478 380.729 346.029 383.124 350.489 L 376.891 353.972 C 375.688 351.318 373.313 350.135 370.476 350.135 C 367.814 350.035 365.523 351.232 365.523 353.598 Z M 365.523 353.598" style="fill: rgb(8, 182, 214);" transform="matrix(1, 0, 0, 1, -5.684341886080802e-14, -2.842170943040401e-14)"/>
</svg>